<svg xmlns="http://www.w3.org/2000/svg" width="802.57" height="598.011" viewBox="0 0 802.57 598.011"><defs><style>.a{fill:#ebebeb;}.b,.h{fill:#e6e6e6;}.c{fill:#f5f5f5;}.d,.k{fill:#fff;}.e{fill:#e0e0e0;opacity:0.5;}.f{fill:#f0f0f0;}.g{fill:#fafafa;}.h{opacity:0.7;}.i{fill:#8cc739;}.j,.k{opacity:0.2;}.l{fill:#263238;}.m{fill:#7f3e3b;}.n{opacity:0.3;}.o{fill:#630f0f;}.p{opacity:0.1;}</style></defs><g transform="translate(0 -55)"><g transform="translate(0 55)"><rect class="a" width="802.57" height="0.401" transform="translate(0 525.523)"/><rect class="a" width="13.949" height="0.401" transform="translate(517.706 555.715)"/><rect class="a" width="37.207" height="0.401" transform="translate(240.835 535.763)"/><rect class="a" width="90.963" height="0.401" transform="translate(645.427 544.367)"/><rect class="a" width="90.963" height="0.401" transform="translate(68.572 544.367)"/><path class="a" d="M357.3,508.933H47.359a9.165,9.165,0,0,1-9.149-9.165V64.085A9.165,9.165,0,0,1,47.359,55H357.3a9.165,9.165,0,0,1,9.165,9.165v435.6A9.165,9.165,0,0,1,357.3,508.933ZM47.359,55.321a8.764,8.764,0,0,0-8.748,8.764V499.768a8.764,8.764,0,0,0,8.748,8.764H357.3a8.78,8.78,0,0,0,8.764-8.764V64.085a8.78,8.78,0,0,0-8.764-8.764Z" transform="translate(23.122 -55)"/><path class="a" d="M573.618,508.933H263.665a9.181,9.181,0,0,1-9.165-9.165V64.085A9.181,9.181,0,0,1,263.665,55H573.618a9.165,9.165,0,0,1,9.133,9.085V499.768A9.165,9.165,0,0,1,573.618,508.933ZM263.665,55.321a8.78,8.78,0,0,0-8.764,8.764V499.768a8.78,8.78,0,0,0,8.764,8.764H573.618a8.78,8.78,0,0,0,8.764-8.764V64.085a8.78,8.78,0,0,0-8.764-8.764Z" transform="translate(154.008 -55)"/><rect class="b" width="426.197" height="231.509" transform="translate(608.059 291.108) rotate(180)"/><rect class="c" width="426.197" height="231.509" transform="translate(603.211 291.108) rotate(180)"/><rect class="d" width="211.991" height="408.813" transform="translate(594.528 69.358) rotate(90)"/><rect class="b" width="211.991" height="3.66" transform="translate(189.374 69.374) rotate(90)"/><rect class="c" width="419.006" height="13.098" transform="translate(599.616 244.238) rotate(180)"/><rect class="c" width="419.006" height="13.098" transform="translate(599.616 132.938) rotate(180)"/><path class="b" d="M104.9,82.07H554.867a1.348,1.348,0,0,1,1.332,1.348h0a1.332,1.332,0,0,1-1.332,1.332H104.9a1.348,1.348,0,0,1-1.348-1.332h0A1.364,1.364,0,0,1,104.9,82.07Z" transform="translate(62.662 -38.619)"/><path class="b" d="M99.39,85.433a6.677,6.677,0,1,0,1.95-4.732,6.693,6.693,0,0,0-1.95,4.732Z" transform="translate(60.145 -40.634)"/><path class="b" d="M378.384,90.408h0a1.8,1.8,0,0,0,1.8-1.8V84.678a1.8,1.8,0,0,0-1.8-1.8h0a1.814,1.814,0,0,0-1.814,1.8v3.884a1.814,1.814,0,0,0,1.814,1.846Z" transform="translate(227.877 -38.129)"/><path class="b" d="M117.708,90.391h0a1.814,1.814,0,0,0,1.814-1.8V84.66a1.814,1.814,0,0,0-1.814-1.75h0a1.8,1.8,0,0,0-1.878,1.75v3.884a1.8,1.8,0,0,0,1.878,1.846Z" transform="translate(70.093 -38.111)"/><rect class="e" width="431.638" height="48.604" transform="translate(599.632 93.403) rotate(180)"/><circle class="b" cx="6.693" cy="6.693" r="6.693" transform="translate(578.043 38.106)"/><rect class="b" width="27.384" height="183.05" transform="translate(502.328 525.523) rotate(180)"/><path class="f" d="M303.1,391.8H295.89V366.87h14.751Z" transform="translate(179.055 133.725)"/><rect class="b" width="27.384" height="183.05" transform="translate(724.704 525.523) rotate(180)"/><rect class="f" width="228.652" height="167.753" transform="translate(703.597 510.226) rotate(180)"/><rect class="b" width="217.48" height="46.003" transform="translate(698.011 395.892) rotate(180)"/><path class="f" d="M333.251,287.808h126.4c7.014,0,13.74-5.666,18.571-15.7H314.68C319.511,282.142,326.221,287.808,333.251,287.808Z" transform="translate(190.425 76.382)"/><path class="f" d="M436.71,391.8H443.9V366.87H429.15Z" transform="translate(259.696 133.725)"/><rect class="b" width="217.48" height="46.003" transform="translate(698.011 449.343) rotate(180)"/><path class="f" d="M333.251,321.108h126.4c7.014,0,13.74-5.682,18.571-15.7H314.68C319.511,315.426,326.221,321.108,333.251,321.108Z" transform="translate(190.425 96.533)"/><rect class="b" width="217.48" height="46.003" transform="translate(698.011 502.794) rotate(180)"/><path class="f" d="M333.251,354.4h126.4c7.014,0,13.74-5.682,18.571-15.7H314.68C319.511,348.716,326.221,354.4,333.251,354.4Z" transform="translate(190.425 116.678)"/><path class="c" d="M399.313,243.4c-4.334-14.591,49.647-87.592,73.339-85.409S454.69,248.727,441.9,256.56C427.467,265.4,404.032,259.272,399.313,243.4Z" transform="translate(241.491 7.293)"/><path class="c" d="M397.321,229.513c-2.087-7.448,35.65-19.567,50.642-10.787s-15.618,31.4-24.077,30.369C414.239,247.94,399.6,237.618,397.321,229.513Z" transform="translate(240.385 42.222)"/><path class="c" d="M448.956,245.787c5.217-9.791-33.21-66.982-53.692-68.042s5.827,65.811,15.923,72.665C422.6,258.194,443.258,256.429,448.956,245.787Z" transform="translate(234.592 19.27)"/><path class="a" d="M416.566,201.17h-.08a4.029,4.029,0,0,0-4.045,3.419,354.734,354.734,0,0,0-1.605,91.108,4.013,4.013,0,0,0,3.917,3.547h.08a4,4,0,0,0,4.029-4.446,354,354,0,0,1,1.589-89.085,3.981,3.981,0,0,0-3.884-4.543Z" transform="translate(247.288 33.453)"/><path class="g" d="M423.931,279.249h0c14.189,0,26.148-8.347,29.053-19.663a45.86,45.86,0,0,1,3.034-8.78l.225-.465H391.62l.225.465a45.859,45.859,0,0,1,3.034,8.78C397.784,270.9,409.758,279.249,423.931,279.249Z" transform="translate(236.985 63.208)"/><path class="f" d="M393.03,256.437h64.944c1.814,0,3.387-1.766,3.836-4.3h0c.642-3.644-1.252-7.175-3.836-7.175H393.03c-2.584,0-4.478,3.531-3.82,7.175h0C389.659,254.655,391.232,256.437,393.03,256.437Z" transform="translate(235.446 59.952)"/><rect class="f" width="79.952" height="115.313" transform="translate(348.476 410.209)"/><rect class="c" width="237.785" height="115.313" transform="translate(348.492 525.523) rotate(180)"/><rect class="g" width="50.273" height="51.188" transform="translate(181.862 499.985) rotate(180)"/><rect class="g" width="50.273" height="51.188" transform="translate(250.113 499.985) rotate(180)"/><rect class="h" width="318.572" height="6.565" transform="translate(109.856 422.473)"/><rect class="f" width="84.366" height="19.021" transform="translate(348.476 406.229)"/><rect class="c" width="242.199" height="19.021" transform="translate(348.492 425.234) rotate(180)"/><path class="f" d="M108.9,287.91s1.525,32.376,59.872,32.376,59.872-32.376,59.872-32.376Z" transform="translate(65.9 85.943)"/><path class="f" d="M108.9,274.55s1.525,32.376,59.872,32.376,59.872-32.376,59.872-32.376Z" transform="translate(65.9 77.858)"/></g><g transform="translate(90.064 616.67)"><ellipse class="c" cx="311.22" cy="18.17" rx="311.22" ry="18.17"/></g><g transform="translate(138.572 392.256)"><rect class="i" width="157.609" height="29.663" transform="translate(10.947 207.625)"/><rect class="j" width="157.609" height="3.371" transform="translate(10.947 207.625)"/><rect class="j" width="6.212" height="29.663" transform="translate(22.488 207.625)"/><rect class="j" width="6.212" height="29.663" transform="translate(36.742 207.625)"/><rect class="j" width="6.212" height="29.663" transform="translate(51.011 207.625)"/><rect class="j" width="6.212" height="29.663" transform="translate(65.265 207.625)"/><rect class="j" width="6.212" height="29.663" transform="translate(79.519 207.625)"/><rect class="j" width="6.212" height="29.663" transform="translate(93.788 207.625)"/><rect class="j" width="6.212" height="29.663" transform="translate(108.042 207.625)"/><rect class="j" width="6.212" height="29.663" transform="translate(122.296 207.625)"/><rect class="j" width="6.212" height="29.663" transform="translate(136.565 207.625)"/><rect class="j" width="6.212" height="29.663" transform="translate(150.819 207.625)"/><rect class="i" width="157.609" height="29.663" transform="translate(4.543 177.962)"/><rect class="j" width="157.609" height="3.371" transform="translate(4.543 177.962)"/><rect class="j" width="6.212" height="29.663" transform="translate(16.067 177.962)"/><rect class="j" width="6.212" height="29.663" transform="translate(30.337 177.962)"/><rect class="j" width="6.212" height="29.663" transform="translate(44.591 177.962)"/><rect class="j" width="6.212" height="29.663" transform="translate(58.844 177.962)"/><rect class="j" width="6.212" height="29.663" transform="translate(73.114 177.962)"/><rect class="j" width="6.212" height="29.663" transform="translate(87.368 177.962)"/><rect class="j" width="6.212" height="29.663" transform="translate(101.621 177.962)"/><rect class="j" width="6.212" height="29.663" transform="translate(115.891 177.962)"/><rect class="j" width="6.212" height="29.663" transform="translate(130.145 177.962)"/><rect class="j" width="6.212" height="29.663" transform="translate(144.398 177.962)"/><rect class="i" width="157.609" height="29.663" transform="translate(0 148.299)"/><rect class="j" width="157.609" height="3.371" transform="translate(0 148.299)"/><rect class="j" width="6.212" height="29.663" transform="translate(11.541 148.299)"/><rect class="j" width="6.212" height="29.663" transform="translate(25.795 148.299)"/><rect class="j" width="6.212" height="29.663" transform="translate(40.064 148.299)"/><rect class="j" width="6.212" height="29.663" transform="translate(54.318 148.299)"/><rect class="j" width="6.212" height="29.663" transform="translate(68.572 148.299)"/><rect class="j" width="6.212" height="29.663" transform="translate(82.841 148.299)"/><rect class="j" width="6.212" height="29.663" transform="translate(97.095 148.299)"/><rect class="j" width="6.212" height="29.663" transform="translate(111.349 148.299)"/><rect class="j" width="6.212" height="29.663" transform="translate(125.618 148.299)"/><rect class="j" width="6.212" height="29.663" transform="translate(139.872 148.299)"/><rect class="i" width="157.609" height="29.663" transform="translate(7.143 118.652)"/><rect class="j" width="157.609" height="3.371" transform="translate(7.143 118.652)"/><rect class="j" width="6.212" height="29.663" transform="translate(18.668 118.652)"/><rect class="j" width="6.212" height="29.663" transform="translate(32.937 118.652)"/><rect class="j" width="6.212" height="29.663" transform="translate(47.191 118.652)"/><rect class="j" width="6.212" height="29.663" transform="translate(61.445 118.652)"/><rect class="j" width="6.212" height="29.663" transform="translate(75.714 118.652)"/><rect class="j" width="6.212" height="29.663" transform="translate(89.968 118.652)"/><rect class="j" width="6.212" height="29.663" transform="translate(104.222 118.652)"/><rect class="j" width="6.212" height="29.663" transform="translate(118.491 118.652)"/><rect class="j" width="6.212" height="29.663" transform="translate(132.745 118.652)"/><rect class="j" width="6.212" height="29.663" transform="translate(146.999 118.652)"/><rect class="i" width="157.609" height="29.663" transform="translate(157.833 118.636) rotate(180)"/><rect class="j" width="157.609" height="3.371" transform="translate(157.833 92.344) rotate(180)"/><rect class="j" width="6.212" height="29.663" transform="translate(146.292 118.636) rotate(180)"/><rect class="j" width="6.212" height="29.663" transform="translate(132.023 118.636) rotate(180)"/><rect class="j" width="6.212" height="29.663" transform="translate(117.769 118.636) rotate(180)"/><rect class="j" width="6.212" height="29.663" transform="translate(103.515 118.636) rotate(180)"/><rect class="j" width="6.212" height="29.663" transform="translate(89.246 118.636) rotate(180)"/><rect class="j" width="6.212" height="29.663" transform="translate(74.992 118.636) rotate(180)"/><rect class="j" width="6.212" height="29.663" transform="translate(60.738 118.636) rotate(180)"/><rect class="j" width="6.212" height="29.663" transform="translate(46.469 118.636) rotate(180)"/><rect class="j" width="6.212" height="29.663" transform="translate(32.215 118.636) rotate(180)"/><rect class="j" width="6.212" height="29.663" transform="translate(17.962 118.636) rotate(180)"/><rect class="i" width="157.609" height="29.663" transform="translate(164.238 88.989) rotate(180)"/><rect class="j" width="157.609" height="3.371" transform="translate(164.238 62.697) rotate(180)"/><rect class="j" width="6.212" height="29.663" transform="translate(152.697 88.989) rotate(180)"/><rect class="j" width="6.212" height="29.663" transform="translate(138.459 88.989) rotate(180)"/><rect class="j" width="6.212" height="29.663" transform="translate(124.19 88.989) rotate(180)"/><rect class="j" width="6.212" height="29.663" transform="translate(109.92 88.989) rotate(180)"/><rect class="j" width="6.212" height="29.663" transform="translate(95.682 88.989) rotate(180)"/><rect class="j" width="6.212" height="29.663" transform="translate(81.413 88.989) rotate(180)"/><rect class="j" width="6.212" height="29.663" transform="translate(67.143 88.989) rotate(180)"/><rect class="j" width="6.212" height="29.663" transform="translate(52.905 88.989) rotate(180)"/><rect class="j" width="6.212" height="29.663" transform="translate(38.636 88.989) rotate(180)"/><rect class="j" width="6.212" height="29.663" transform="translate(24.366 88.989) rotate(180)"/><rect class="i" width="157.609" height="29.663" transform="translate(168.78 59.326) rotate(180)"/><rect class="j" width="157.609" height="3.371" transform="translate(168.78 33.034) rotate(180)"/><rect class="j" width="6.212" height="29.663" transform="translate(157.239 59.326) rotate(180)"/><rect class="j" width="6.212" height="29.663" transform="translate(142.97 59.326) rotate(180)"/><rect class="j" width="6.212" height="29.663" transform="translate(128.716 59.326) rotate(180)"/><rect class="j" width="6.212" height="29.663" transform="translate(114.462 59.326) rotate(180)"/><rect class="j" width="6.212" height="29.663" transform="translate(100.193 59.326) rotate(180)"/><rect class="j" width="6.212" height="29.663" transform="translate(85.939 59.326) rotate(180)"/><rect class="j" width="6.212" height="29.663" transform="translate(71.686 59.326) rotate(180)"/><rect class="j" width="6.212" height="29.663" transform="translate(57.416 59.326) rotate(180)"/><rect class="j" width="6.212" height="29.663" transform="translate(43.162 59.326) rotate(180)"/><rect class="j" width="6.212" height="29.663" transform="translate(28.909 59.326) rotate(180)"/><rect class="i" width="157.609" height="29.663" transform="translate(161.638 29.663) rotate(180)"/><rect class="j" width="157.609" height="3.371" transform="translate(161.638 3.371) rotate(180)"/><rect class="j" width="6.212" height="29.663" transform="translate(150.097 29.663) rotate(180)"/><rect class="j" width="6.212" height="29.663" transform="translate(135.859 29.663) rotate(180)"/><rect class="j" width="6.212" height="29.663" transform="translate(121.589 29.663) rotate(180)"/><rect class="j" width="6.212" height="29.663" transform="translate(107.32 29.663) rotate(180)"/><rect class="j" width="6.212" height="29.663" transform="translate(93.082 29.663) rotate(180)"/><rect class="j" width="6.212" height="29.663" transform="translate(78.812 29.663) rotate(180)"/><rect class="j" width="6.212" height="29.663" transform="translate(64.543 29.663) rotate(180)"/><rect class="j" width="6.212" height="29.663" transform="translate(50.305 29.663) rotate(180)"/><rect class="j" width="6.212" height="29.663" transform="translate(36.035 29.663) rotate(180)"/><rect class="j" width="6.212" height="29.663" transform="translate(21.766 29.663) rotate(180)"/></g><g transform="translate(186.276 274.819)"><path class="i" d="M572.889,192.032,510.031,202.8a6.18,6.18,0,0,0-2.52,11.156l11.589,8.2-71.06,100.45a6.084,6.084,0,0,1-8.491,1.445L335.1,250.218a6.116,6.116,0,0,0-8.507,1.461L116.05,549.272h75.666L341.363,337.73a6.083,6.083,0,0,1,8.491-1.445L454.3,410.122a6.1,6.1,0,0,0,8.507-1.461L569.534,257.779l11.605,8.2a6.2,6.2,0,0,0,9.631-6.1l-10.786-62.857A6.18,6.18,0,0,0,572.889,192.032Z" transform="translate(-116.05 -191.947)"/><path class="j" d="M572.889,192.032,510.031,202.8a6.18,6.18,0,0,0-2.52,11.156l11.589,8.2-71.06,100.45a6.084,6.084,0,0,1-8.491,1.445L335.1,250.218a6.116,6.116,0,0,0-8.507,1.461L116.05,549.272h75.666L341.363,337.73a6.083,6.083,0,0,1,8.491-1.445L454.3,410.122a6.1,6.1,0,0,0,8.507-1.461L569.534,257.779l11.605,8.2a6.2,6.2,0,0,0,9.631-6.1l-10.786-62.857A6.18,6.18,0,0,0,572.889,192.032Z" transform="translate(-116.05 -191.947)"/><path class="k" d="M180.474,537.111H127.215a.417.417,0,0,1-.353-.225.4.4,0,0,1,0-.417L321.919,260.706a6.5,6.5,0,0,1,9.069-1.605l104.43,73.836a5.7,5.7,0,0,0,8.026-1.364l81.4-115.056L512,207.384a.369.369,0,0,1-.161-.417.4.4,0,0,1,.321-.3l52.97-9.069a.385.385,0,0,1,.449.321l9.069,52.97a.433.433,0,0,1-.177.417.417.417,0,0,1-.449,0l-12.841-9.133L454.68,392.729a6.5,6.5,0,0,1-9.053,1.605L341.18,320.5a5.7,5.7,0,0,0-7.945,1.364L180.811,536.935A.417.417,0,0,1,180.474,537.111Zm-52.488-.8h52.279L332.336,321.332a6.517,6.517,0,0,1,9.069-1.605l104.447,73.836A5.7,5.7,0,0,0,453.8,392.2L560.523,241.316a.337.337,0,0,1,.257-.161.353.353,0,0,1,.305,0l12.44,8.8-8.844-51.38L513.139,207.4l12.44,8.8a.434.434,0,0,1,.161.257.4.4,0,0,1,0,.3L444.118,332.151a6.42,6.42,0,0,1-4.206,2.648,6.533,6.533,0,0,1-4.815-1.091l-104.43-73.836a5.7,5.7,0,0,0-8.026,1.364Z" transform="translate(-109.543 -188.535)"/></g><g transform="translate(505.828 477.906)"><rect class="l" width="6.597" height="98.154" transform="translate(46.244 53.483)"/><rect class="l" width="6.597" height="151.638" transform="translate(103.965 0)"/><rect class="l" width="6.597" height="115.265" transform="translate(162.745 36.372)"/><rect class="i" width="46.26" height="98.154" transform="translate(0 53.483)"/><path class="k" d="M315.13,351.79v58.2l23.114-58.2Z" transform="translate(-315.13 -298.307)"/><rect class="i" width="46.26" height="151.638" transform="translate(57.705 0)"/><path class="k" d="M351.08,318.47v58.2l23.13-58.2Z" transform="translate(-293.375 -318.47)"/><rect class="i" width="46.26" height="115.265" transform="translate(116.501 36.372)"/><path class="k" d="M387.71,341.13v51.8l23.13-51.8Z" transform="translate(-271.209 -304.758)"/></g><g transform="translate(296.397 138.162)"><path class="m" d="M252.758,419.885l-12.408-2.327,2.1-29.358,12.408,2.344Z" transform="translate(-150.952 63.471)"/><path class="m" d="M306.042,418.75H293.41l-3.13-29.23H302.9Z" transform="translate(-120.738 64.27)"/><path class="l" d="M300.4,406.82h15.377a1.108,1.108,0,0,1,1.075.867l2.5,11.236a1.862,1.862,0,0,1-1.846,2.247c-4.96-.08-8.571-.385-14.8-.385-3.836,0-15.409.4-20.706.4s-5.987-5.233-3.82-5.714c9.727-2.119,17.047-5.056,20.161-7.849a3.05,3.05,0,0,1,2.055-.8Z" transform="translate(-128.754 74.739)"/><path class="l" d="M251.062,404.81l13.6,2.344a1.108,1.108,0,0,1,.915,1.027l.546,11.477a1.846,1.846,0,0,1-2.167,1.91c-4.815-.931-11.926-2.44-18.074-3.5-7.207-1.236-10.722-2.135-19.165-3.6-5.1-.883-4-6.421-1.766-6.565,10.1-.449,13.66,1.091,22.953-2.648a5.827,5.827,0,0,1,3.162-.45Z" transform="translate(-161.407 73.49)"/><path class="m" d="M298.744,169.432c-.433,1.284-.77,2.215-1.172,3.21s-.8,2.055-1.22,3.066c-.835,2.039-1.718,4.029-2.648,6.019a116.324,116.324,0,0,1-6.244,11.637,76.741,76.741,0,0,1-18.09,21,44.432,44.432,0,0,1-6.421,4.077c-.578.321-1.172.594-1.782.867s-1.156.53-1.878.8a25.86,25.86,0,0,1-4.382,1.188,44.94,44.94,0,0,1-7.336.626c-2.311,0-4.526,0-6.709-.209a128.412,128.412,0,0,1-25.152-4.559l1.268-9.39c8.026-.3,16.164-.562,23.8-1.236,1.91-.177,3.788-.4,5.57-.674a30.248,30.248,0,0,0,4.815-1.059,7.063,7.063,0,0,0,1.477-.61c.53-.321,1.252-.626,1.846-1.043a28.892,28.892,0,0,0,3.708-2.777,47.7,47.7,0,0,0,6.886-7.576,84.778,84.778,0,0,0,6-9.2c1.878-3.21,3.563-6.629,5.217-10.064.8-1.717,1.605-3.467,2.311-5.217l1.075-2.616.979-2.472Z" transform="translate(-165.863 -72.673)"/><path class="i" d="M275.589,157.878c23.034,0-2.279,49.759-2.279,49.759l-29.39-11.894s8.026-17.3,13.307-27.207A19.567,19.567,0,0,1,275.589,157.878Z" transform="translate(-148.792 -75.919)"/><g class="n" transform="translate(95.128 81.937)"><path class="d" d="M275.589,157.878c23.034,0-2.279,49.759-2.279,49.759l-29.39-11.894s8.026-17.3,13.307-27.207A19.567,19.567,0,0,1,275.589,157.878Z" transform="translate(-243.92 -157.856)"/></g><path class="j" d="M266.155,167.89c-8.427,5.923-14.286,16.918-15.955,25.843l16.79,6.806c3.05-4.559,6.019-9.936,9.294-14.655.9-2.456,1.782-5.04,2.552-7.657Z" transform="translate(-144.992 -69.847)"/><path class="m" d="M227.723,193.868l-10.1-5.7-7.737,14.446a35.184,35.184,0,0,0,13.467-.337Z" transform="translate(-169.385 -57.575)"/><path class="m" d="M210.808,188.17l-5.618,12.745,7.48,1.75,7.737-14.494Z" transform="translate(-172.229 -57.575)"/><path class="j" d="M242.065,388.21l-1.075,15.12,12.408,2.327,1.075-15.12Z" transform="translate(-150.565 63.477)"/><path class="j" d="M302.9,389.53H290.27l1.637,15.072h12.616Z" transform="translate(-120.744 64.276)"/><path class="i" d="M333.566,163.7a284.6,284.6,0,0,0-8.026,41.525c-1.2,9.775-1.91,19.1-2.36,27.576-1.059,19.84-.61,34.96-1.2,40.128-9.872-.674-47.063-3.21-67.416-4.687-9.165-71.8,8.347-108.78,8.347-108.78a131.718,131.718,0,0,1,16.051-2.006c1.14,0,2.311-.112,3.483-.128a248.98,248.98,0,0,1,28.636,1.99c1.8.209,3.628.482,5.393.77A167.308,167.308,0,0,1,333.566,163.7Z" transform="translate(-143.959 -76.238)"/><g class="n" transform="translate(107.947 81.092)"><path class="d" d="M333.566,163.7a284.6,284.6,0,0,0-8.026,41.525c-1.2,9.775-1.91,19.1-2.36,27.576-1.059,19.84-.61,34.96-1.2,40.128-9.872-.674-47.063-3.21-67.416-4.687-9.165-71.8,8.347-108.78,8.347-108.78a131.718,131.718,0,0,1,16.051-2.006c1.14,0,2.311-.112,3.483-.128a248.98,248.98,0,0,1,28.636,1.99c1.8.209,3.628.482,5.393.77A167.308,167.308,0,0,1,333.566,163.7Z" transform="translate(-251.906 -157.33)"/></g><path class="j" d="M292.192,172.62a52.969,52.969,0,0,0,8.331,29.181c.193-1.926.417-3.868.658-5.827.9-7.352,2.055-14.96,3.579-22.648Z" transform="translate(-119.583 -66.985)"/><path class="m" d="M299.475,138.33c-2.44,9.1-5.425,25.843.594,32.44a28.7,28.7,0,0,1-22.7,7.239c-7.913-.722-7.913-6.292-5.939-9.23,10.449-1.734,10.706-9.374,9.422-16.661Z" transform="translate(-132.806 -87.735)"/><path class="l" d="M271.11,165.991a20.528,20.528,0,0,0,1,4.157,2.119,2.119,0,0,0,2.022,1.477,19.741,19.741,0,0,1,3.933.337,2.055,2.055,0,0,0,1.605-.289c1.605-1.011,3.66-2.5,3.13-4.366-.626-2.183-4.382-4.157-4.382-4.157S271.961,164.739,271.11,165.991Z" transform="translate(-132.338 -72.716)"/><path class="l" d="M276.772,167.51c-2.584,5.65-8.555,41.83-9.294,47.3s1.782,14.3,5.281,21.316a34.415,34.415,0,0,0,6.581-18.925c.465-7.48.915-48.8.915-48.8Z" transform="translate(-134.614 -70.077)"/><path class="d" d="M275.63,166.353a23.74,23.74,0,0,1,5.811,7.191c4.061-.321,21.99-8.186,19.438-14.254-2.231-.626-4.189-1.91-4.815-1.252C295.213,159.339,287.6,163.93,275.63,166.353Z" transform="translate(-129.603 -75.919)"/><path class="d" d="M280.564,167.01s-6.886,2.327-8.491,6.244c-4.157-1.846-6.421-10.177-2.745-15.65,2.3-.193,4.494-1.332,4.912-.578C274.881,158.455,273.132,162.291,280.564,167.01Z" transform="translate(-134.536 -76.576)"/><path class="j" d="M287.917,141.84l-11.027,8.138a28.493,28.493,0,0,1,.53,5.153c3.965-.289,9.631-4.222,10.369-8.3a13.641,13.641,0,0,0,.128-4.992Z" transform="translate(-128.84 -85.611)"/><path class="l" d="M273.3,120.3c-4.815,1.894-6.6,20.53,3.21,18.7S282.992,116.492,273.3,120.3Z" transform="translate(-133.37 -98.931)"/><path class="m" d="M306.038,140.26c-3.933,11.894-5.618,19.053-13.355,23.66-11.653,6.918-25.12-2.552-24.832-15.377.257-11.541,6.629-29.069,19.743-30.754a17.079,17.079,0,0,1,18.443,22.472Z" transform="translate(-134.312 -100.259)"/><path class="l" d="M302.574,155c-4.992.1-9.085-15.024.979-19.262-7.929-.915-32.279.417-36.645-10.466s12.568-12.568,18.331-8.459c-1.83-5.987,5.618-14.815,19-6.79s13.226,17.929,11.974,20.867c5.971,1.605,7.143,14.9.546,16.677,3.868,5.361.53,16.629-9.9,14.222-.353,6.565-7.673,3.692-7.223-1.348S302.574,155,302.574,155Z" transform="translate(-135.311 -106.81)"/><path class="l" d="M275.091,139.455h0a9.23,9.23,0,0,0,8.3-1.605.337.337,0,0,0,0-.465.321.321,0,0,0-.449,0,8.684,8.684,0,0,1-7.7,1.605.252.252,0,1,0-.145.466Z" transform="translate(-130.075 -88.363)"/><path class="m" d="M297.9,143.131a11.958,11.958,0,0,1-8.523,3.21c-4.173-.177-4.976-4.221-2.745-7.48,2.023-2.937,6.613-6.421,10.273-4.639a5.345,5.345,0,0,1,1,8.909Z" transform="translate(-123.682 -90.514)"/><path class="l" d="M239.448,496.352l20.867,4.928s7.384-81.3,13.724-125.971c1.685-11.846,4.286-28.507,8.25-46.26,4.992-22.36,11.236-46.549,16.4-65.49,5.409-19.952,9.534-34.061,9.534-34.061l-44.27-3.1s-23.965,104.495-26.5,142.857C234.745,409.29,239.448,496.352,239.448,496.352Z" transform="translate(-153.212 -34.441)"/><path class="j" d="M265.235,318.773c4.992-22.36,11.236-46.549,16.4-65.49l-4.607-9.9C266.1,256.43,263.149,296.831,265.235,318.773Z" transform="translate(-136.271 -24.165)"/><path class="l" d="M268.49,227.44S273.305,335.5,278.6,372.1c5.827,40.128,20.642,127.673,20.642,127.673h23.13s-6.421-83.259-10.77-122.5c-4.96-44.7.337-146.79.337-146.79Z" transform="translate(-133.924 -33.811)"/><path class="i" d="M286.541,400.678h27.223l1.2-8.138-30.048-.53Z" transform="translate(-123.981 65.777)"/><path class="i" d="M237.792,398.815l23.708,4.462,2.681-8.266-27.031-5.12Z" transform="translate(-152.889 64.494)"/><path class="l" d="M281.153,131.933c-.273.979-1,1.605-1.605,1.477s-.963-1.108-.706-2.087,1-1.605,1.605-1.477S281.41,130.954,281.153,131.933Z" transform="translate(-127.71 -92.879)"/><path class="l" d="M274.208,130.119c-.257.979-1,1.605-1.605,1.461s-.947-1.091-.69-2.087,1-1.605,1.605-1.477S274.465,129.124,274.208,130.119Z" transform="translate(-131.905 -93.987)"/><path class="o" d="M277.458,129.89a36.917,36.917,0,0,1-6.918,7.191c1.3,2.071,4.655,1.894,4.655,1.894Z" transform="translate(-132.683 -92.843)"/><path class="l" d="M283.987,130.83a.594.594,0,0,1-.514-.369,4.815,4.815,0,0,0-3.21-2.905.6.6,0,1,1,.225-1.172,5.939,5.939,0,0,1,4.077,3.628.594.594,0,0,1-.321.787.563.563,0,0,1-.257.032Z" transform="translate(-127.093 -94.971)"/><path class="l" d="M270.575,127.037a.642.642,0,0,1-.337-.144.594.594,0,0,1,0-.851,5.939,5.939,0,0,1,5.008-2.167.626.626,0,0,1,.514.674.61.61,0,0,1-.674.514h0a4.815,4.815,0,0,0-3.949,1.766.61.61,0,0,1-.562.209Z" transform="translate(-132.975 -96.491)"/><path class="i" d="M290.156,409.411a3.852,3.852,0,0,1-2.44-.642,1.8,1.8,0,0,1-.61-1.605.9.9,0,0,1,.514-.835c1.4-.722,5.457,1.782,5.923,2.071a.273.273,0,0,1,.128.289.289.289,0,0,1-.225.257,14.944,14.944,0,0,1-3.291.466Zm-1.878-2.616a.691.691,0,0,0-.385.08c-.08,0-.176.112-.193.353a1.2,1.2,0,0,0,.4,1.075,6.084,6.084,0,0,0,4.478.225,12.073,12.073,0,0,0-4.318-1.734Z" transform="translate(-122.668 74.363)"/><path class="i" d="M292.406,410.038h-.144c-1.3-.706-3.836-3.483-3.563-4.815a.979.979,0,0,1,.947-.787,1.6,1.6,0,0,1,1.284.385c1.461,1.188,1.766,4.815,1.782,4.992a.321.321,0,0,1-.144.273A.273.273,0,0,1,292.406,410.038Zm-2.552-5.12h-.128c-.385,0-.417.225-.433.3-.161.819,1.445,2.921,2.745,3.9a7.078,7.078,0,0,0-1.493-3.949,1.043,1.043,0,0,0-.69-.257Z" transform="translate(-121.707 73.286)"/><path class="i" d="M242.307,407.188h0c-2.071,0-5.714-.08-6.87-1.509a1.686,1.686,0,0,1-.3-1.605.947.947,0,0,1,.61-.69c1.605-.562,6.228,2.809,6.742,3.21a.273.273,0,0,1,.1.321A.305.305,0,0,1,242.307,407.188Zm-6.324-3.21h0a.353.353,0,0,0-.241.289,1.075,1.075,0,0,0,.193,1c.642.819,2.665,1.284,5.49,1.3-1.91-1.252-4.478-2.777-5.441-2.568Z" transform="translate(-154.161 72.621)"/><path class="i" d="M240.965,408.049a.305.305,0,0,1-.225,0c-1.38-.931-3.884-4.141-3.419-5.506.112-.321.417-.69,1.236-.642a2.232,2.232,0,0,1,1.605.787c1.364,1.605,1.124,4.992,1.108,5.136a.289.289,0,0,1-.161.241Zm-2.793-5.57a.275.275,0,0,0-.289.209c-.273.819,1.38,3.291,2.745,4.462a6.886,6.886,0,0,0-.979-4.109,1.605,1.605,0,0,0-1.124-.578.785.785,0,0,0-.353.016Z" transform="translate(-152.819 71.76)"/><path class="i" d="M300.689,197.8l-5.12-3.66L211.62,311.652l5.12,3.66A72.231,72.231,0,0,0,300.689,197.8Z" transform="translate(-168.338 -53.962)"/><path class="p" d="M300.689,197.8l-5.12-3.66L211.62,311.652l5.12,3.66A72.231,72.231,0,0,0,300.689,197.8Z" transform="translate(-168.338 -53.962)"/><path class="i" d="M189.86,247.647A77.592,77.592,0,0,1,192.027,218l1.605.417a75.729,75.729,0,0,0-2.119,29.053Z" transform="translate(-181.842 -39.524)"/><path class="i" d="M193.981,252.909a77.913,77.913,0,0,1-3.451-11.236l1.605-.353a77.467,77.467,0,0,0,3.387,10.979Z" transform="translate(-181.1 -25.412)"/><circle class="i" cx="72.199" cy="72.199" r="72.199" transform="matrix(0.979, -0.202, 0.202, 0.979, 0, 142.764)"/><path class="d" d="M232.362,261.624l11.332-15.843q-5.907-7.416-6.308-14.189a19.839,19.839,0,0,1,4-12.841,18.154,18.154,0,0,1,11.364-7.624,19.455,19.455,0,0,1,13.9,2.584l2.729-3.82,5.49,3.917-2.745,3.82a19.951,19.951,0,0,1,6.645,10.947,19.551,19.551,0,0,1-1.926,12.311L266.375,235.3a9.518,9.518,0,0,0-.225-9.31l-10.562,14.8q7.319,8.957,7.817,15.217a18.539,18.539,0,0,1-3.884,12.392,20.658,20.658,0,0,1-12.392,8.587,22.472,22.472,0,0,1-15.634-2.472l-2.729,3.82-5.49-3.917,2.6-3.644a21.477,21.477,0,0,1-7.143-12.472,24.671,24.671,0,0,1,3.018-15.281l10.642,6a15.426,15.426,0,0,0-1.461,6.838A12.841,12.841,0,0,0,232.362,261.624ZM260.74,221.9a8.716,8.716,0,0,0-5.393,0,8.17,8.17,0,0,0-4.189,3.066,7.881,7.881,0,0,0-1.445,4.591,10.257,10.257,0,0,0,1.605,5.409Zm-23.274,44.189a9.454,9.454,0,0,0,6.421.658,9.1,9.1,0,0,0,5.313-3.66,8.267,8.267,0,0,0,1.605-5.441,11.814,11.814,0,0,0-2.889-6.324Z" transform="translate(-164.152 -44.431)"/><path class="p" d="M318.437,246.888a58.812,58.812,0,0,0-115.811,19.262,58.812,58.812,0,1,1,115.811-19.262Z" transform="translate(-174.689 -53.965)"/><path class="m" d="M311.863,165.6c1.605,2.039,2.937,3.868,4.286,5.859s2.665,3.9,3.949,5.891c2.552,3.981,4.976,8.026,7.223,12.247s4.334,8.539,6.228,13l1.38,3.387,1.252,3.483c.417,1.14.77,2.36,1.14,3.547l.53,1.8.144.449.241.979a15.106,15.106,0,0,1,.321,2.022,17.062,17.062,0,0,1-.883,6.677,23.856,23.856,0,0,1-2.167,4.623,42.263,42.263,0,0,1-5.072,6.677,89.583,89.583,0,0,1-11,9.9,161.361,161.361,0,0,1-23.788,15.072l-5.2-7.929c6.726-5.73,13.451-11.766,19.535-17.881a88.543,88.543,0,0,0,8.218-9.374,25.781,25.781,0,0,0,2.761-4.446,8.17,8.17,0,0,0,.546-1.605h0a.883.883,0,0,0,0,.353,1.067,1.067,0,0,0,0,.144l-.144-.353-.562-1.413c-.385-.963-.722-1.91-1.172-2.857l-1.284-2.841-1.364-2.841c-1.91-3.772-3.949-7.528-6.164-11.236s-4.51-7.4-6.9-11.027c-1.172-1.83-2.392-3.644-3.612-5.425l-3.66-5.217Z" transform="translate(-120.635 -71.233)"/><path class="i" d="M310.09,161.488c11.83,2.392,22.215,31.316,22.215,31.316l-24.687,20.112s-8.026-14.7-14.575-28.893C286,168.566,295.756,158.6,310.09,161.488Z" transform="translate(-120.484 -74.023)"/><g class="n" transform="translate(170.216 86.967)"><path class="d" d="M310.09,161.488c11.83,2.392,22.215,31.316,22.215,31.316l-24.687,20.112s-8.026-14.7-14.575-28.893C286,168.566,295.756,158.6,310.09,161.488Z" transform="translate(-290.7 -160.99)"/></g><path class="m" d="M297.075,219.54l-12.745,1.4,8.266,13.836s10.594-3.6,9.31-9.406Z" transform="translate(-124.338 -38.592)"/><path class="m" d="M279.6,227.713l7.368,11.124,8.491-4.591-8.267-13.836Z" transform="translate(-127.2 -38.065)"/></g></g></svg>