<svg xmlns="http://www.w3.org/2000/svg" width="802.57" height="598.011" viewBox="0 0 802.57 598.011"><defs><style>.a{fill:#ebebeb;}.b{fill:#f5f5f5;}.c{fill:#e0e0e0;}.d{fill:#8cc739;}.e,.g,.i,.j,.k,.l,.v{fill:#fff;}.e,.f{opacity:0.7;}.h,.i,.o{opacity:0.4;}.j,.n,.s{opacity:0.2;}.k{opacity:0.6;}.l{opacity:0.8;}.m{fill:#e4897b;}.p{fill:#263238;}.q{fill:#de5753;}.r{fill:#ebb376;}.t{fill:#de726f;}.u{fill:none;stroke:#263238;stroke-linecap:round;stroke-linejoin:round;stroke-width:0.5px;}.v,.w{opacity:0.1;}</style></defs><rect class="a" width="802.57" height="0.401" transform="translate(0 525.523)"/><rect class="a" width="53.162" height="0.401" transform="translate(668.99 551.349)"/><rect class="a" width="13.949" height="0.401" transform="translate(517.706 555.715)"/><rect class="a" width="30.803" height="0.401" transform="translate(636.582 536.454)"/><rect class="a" width="69.326" height="0.401" transform="translate(84.206 539.15)"/><rect class="a" width="10.161" height="0.401" transform="translate(167.833 539.15)"/><rect class="a" width="150.369" height="0.401" transform="translate(211.028 545.924)"/><path class="a" d="M357.3,508.933H47.359a9.165,9.165,0,0,1-9.149-9.165V64.085A9.165,9.165,0,0,1,47.359,55H357.3a9.165,9.165,0,0,1,9.165,9.165v435.6A9.165,9.165,0,0,1,357.3,508.933ZM47.359,55.321a8.764,8.764,0,0,0-8.748,8.764V499.768a8.764,8.764,0,0,0,8.748,8.764H357.3a8.78,8.78,0,0,0,8.764-8.764V64.085a8.78,8.78,0,0,0-8.764-8.764Z" transform="translate(23.122 -55)"/><path class="a" d="M573.618,508.933H263.665a9.181,9.181,0,0,1-9.165-9.165V64.085A9.181,9.181,0,0,1,263.665,55H573.618a9.165,9.165,0,0,1,9.133,9.085V499.768A9.166,9.166,0,0,1,573.618,508.933ZM263.665,55.321a8.78,8.78,0,0,0-8.764,8.764V499.768a8.78,8.78,0,0,0,8.764,8.764H573.618a8.78,8.78,0,0,0,8.764-8.764V64.085a8.78,8.78,0,0,0-8.764-8.764Z" transform="translate(154.008 -55)"/><rect class="a" width="245.988" height="202.761" transform="translate(92.103 84.607)"/><rect class="b" width="31.926" height="31.926" transform="translate(108.668 104.479)"/><rect class="b" width="31.926" height="31.926" transform="translate(292.521 186.613)"/><rect class="b" width="31.926" height="31.926" transform="translate(148.202 121.3)"/><rect class="b" width="31.926" height="31.926" transform="translate(256.517 196.662)"/><rect class="b" width="45.955" height="61.059" transform="translate(118.202 197.4)"/><rect class="b" width="45.955" height="61.059" transform="translate(170.674 197.866)"/><rect class="b" width="45.955" height="61.059" transform="translate(262.521 106.742)"/><rect class="a" width="163.275" height="342.328" transform="translate(557.577 40.867)"/><rect class="c" width="170.819" height="16.116" transform="translate(553.805 36.405)"/><rect class="c" width="170.819" height="8.058" transform="translate(553.805 59.117)"/><rect class="c" width="170.819" height="8.058" transform="translate(553.805 71.076)"/><rect class="c" width="170.819" height="8.058" transform="translate(553.805 83.034)"/><rect class="c" width="170.819" height="8.058" transform="translate(553.805 94.992)"/><rect class="c" width="170.819" height="8.058" transform="translate(553.805 106.934)"/><rect class="c" width="170.819" height="8.058" transform="translate(553.805 118.893)"/><rect class="c" width="170.819" height="8.058" transform="translate(553.805 130.851)"/><rect class="c" width="170.819" height="8.058" transform="translate(553.805 142.809)"/><rect class="c" width="170.819" height="8.058" transform="translate(553.805 154.768)"/><rect class="c" width="170.819" height="8.058" transform="translate(553.805 166.71)"/><rect class="c" width="170.819" height="8.058" transform="translate(553.805 178.668)"/><rect class="c" width="170.819" height="8.058" transform="translate(553.805 190.626)"/><rect class="c" width="170.819" height="8.058" transform="translate(553.805 202.585)"/><rect class="c" width="170.819" height="8.058" transform="translate(553.805 214.543)"/><rect class="c" width="170.819" height="8.058" transform="translate(553.805 226.501)"/><rect class="c" width="170.819" height="8.058" transform="translate(553.805 238.443)"/><rect class="c" width="170.819" height="8.058" transform="translate(553.805 250.402)"/><rect class="c" width="170.819" height="8.058" transform="translate(553.805 262.36)"/><rect class="c" width="170.819" height="8.058" transform="translate(553.805 274.318)"/><rect class="c" width="170.819" height="8.058" transform="translate(553.805 286.277)"/><rect class="c" width="170.819" height="8.058" transform="translate(553.805 298.219)"/><rect class="c" width="170.819" height="8.058" transform="translate(553.805 310.177)"/><rect class="c" width="170.819" height="8.058" transform="translate(553.805 322.135)"/><rect class="c" width="170.819" height="8.058" transform="translate(553.805 334.094)"/><rect class="c" width="170.819" height="8.058" transform="translate(553.805 346.052)"/><rect class="c" width="170.819" height="8.058" transform="translate(553.805 358.01)"/><rect class="c" width="170.819" height="8.058" transform="translate(553.805 369.952)"/><path class="a" d="M73.378,372.293c-.241-1.605-5.859-40.4,5.393-53.788a12.167,12.167,0,0,1,9.422-4.591c22.713-.546,25.827,17.656,25.859,17.9l-2.681.417c-.112-.658-2.793-16.051-23.114-15.618a9.518,9.518,0,0,0-7.335,3.644c-10.465,12.456-4.815,51.252-4.815,51.637Z" transform="translate(43.428 101.672)"/><path class="a" d="M89.526,367.194l-2.7-.08c0-.353.9-35.714-16.533-43.018-17.063-7.159-24.751,7.544-25.072,8.186l-2.424-1.22c.1-.177,9.1-17.657,28.555-9.47C90.489,329.618,89.574,365.669,89.526,367.194Z" transform="translate(25.9 105.006)"/><path class="a" d="M87.177,383.151c0-.562-.161-56.485-11.059-72.841-10.465-15.7-27.287-8.315-28.074-8.026l-1.124-2.472c.209-.1,19.7-8.7,31.445,8.957C89.729,325.8,89.89,380.775,89.89,383.1Z" transform="translate(28.393 91.826)"/><path class="c" d="M86.849,317.773s-9.952,3.628-7.014,12.3,34.3,22.841,34.3,22.841,13.13-12.039,1.075-31.621S87.074,311.593,86.849,317.773Z" transform="translate(47.983 99.146)"/><path class="c" d="M78.6,308.367s7.047-.754,6.421-5.056S57.7,287.982,41.89,305.847c0,0,10.128,17.384,24.767,17.657S78.6,308.367,78.6,308.367Z" transform="translate(25.349 90.831)"/><path class="c" d="M72.187,324.006s4.815-3.933-.385-5.843S40.823,316.8,40.55,342.24c0,0,29.984,4.976,33.708-4.735S72.187,324.006,72.187,324.006Z" transform="translate(24.538 103.844)"/><path class="a" d="M106.731,401.841H60.214L55.19,350.91h56.549Z" transform="translate(33.398 124.067)"/><rect class="c" width="61.509" height="11.236" transform="translate(86.116 469.359)"/><path class="c" d="M449.562,406.185s-9.069-19.791,1.284-39.294,13.371-24.077,6.758-28.09-9.631,15.6-9.631,15.6-5.57-13.483-.963-27.592,7.48-37.095,1.188-39.551-1.188,28.668-6.645,39.278a91.492,91.492,0,0,1-5.329-23.146c-.738-11.332.433-29.438-4.526-34.077s-8.138-1.429-3.21,23.579A262.35,262.35,0,0,1,433.3,338.24s-10.755-32.809-17.978-33.708-7.223,9.631-1.027,18.892,18.09,25.682,20.048,34.222c0,0-11.814-24.7-22.472-17.127s9.262,22.472,18.106,27.865,15.008,39.165,15.008,39.165Z" transform="translate(247.389 73.607)"/><path class="a" d="M434.379,411.388s8.828-19.92-1.766-39.262-13.66-23.9-7.095-27.994,9.823,15.458,9.823,15.458,5.393-13.563.626-27.592-7.913-36.918-1.605-39.551,1.605,28.652,7.111,39.181A91.844,91.844,0,0,0,446.53,308.4c.61-11.332-.771-29.406,4.125-34.125s8.106-1.605,3.547,23.531a262.094,262.094,0,0,0-4.3,45.409s10.369-32.969,17.576-34.029,7.336,9.551,1.268,18.86-17.8,25.987-19.647,34.51c0,0,11.509-24.864,22.215-17.448s-8.973,22.616-17.769,28.138-14.526,39.374-14.526,39.374Z" transform="translate(255.414 76.574)"/><path class="a" d="M482.607,350.12H409.67l5.891,52.2H476.7Z" transform="translate(247.907 123.589)"/><path class="c" d="M336.715,356.682l-4.815-.69c.867-6,5.875-17.352,18.716-17.352,15.217,0,22.777,8.78,23.547,17.48l-4.815.417c-.578-6.517-6.581-13.082-18.748-13.082C338.818,343.455,336.876,356.136,336.715,356.682Z" transform="translate(200.846 116.642)"/><rect class="a" width="93.724" height="55.955" rx="4.83" transform="translate(507.93 469.086)"/><path class="c" d="M384.438,401.956c-66.228,0-69.438-45.442-69.438-45.971l2.7-5.265c.1,1.685,5.313,46.356,66.822,46.356,25.3,0,47.159,0,49.374-4.815,1.942-4.27-7.56-15.185-22.761-32.7v-6.709c19.374,22.311,30.369,34.318,27.143,41.4C434.824,401.651,420.185,401.956,384.438,401.956Z" transform="translate(190.619 123.952)"/><g transform="translate(90.064 561.67)"><ellipse class="b" cx="311.22" cy="18.17" rx="311.22" ry="18.17"/></g><g transform="translate(172.295 57.384)"><path class="d" d="M469.106,92.885a8.026,8.026,0,0,1,8.026,8.026V362.917a8.026,8.026,0,0,1-8.026,8.026h-351.8a8.026,8.026,0,0,1-8.026-8.026V100.782a8.026,8.026,0,0,1,8.026-8.026h351.8m0-2.006h-351.8a9.968,9.968,0,0,0-9.968,10.032V362.917a9.968,9.968,0,0,0,9.968,9.968h351.8a9.968,9.968,0,0,0,9.968-9.968V100.782a9.968,9.968,0,0,0-9.968-9.968Z" transform="translate(-107.34 -90.75)"/><rect class="e" width="371.734" height="282.007" rx="6.21" transform="translate(0 0.128)"/><rect class="d" width="4.607" height="3.836" transform="translate(325.651 29.374)"/><path class="d" d="M314.811,319.75H310.22v-7.544h4.591Zm0-15.088H310.22v-7.544h4.591Zm0-15.072H310.22v-7.544h4.591Zm0-15.088H310.22v-7.528h4.591Zm0-15.072H310.22v-7.544h4.591Zm0-15.088H310.22v-7.528h4.591Zm0-15.072H310.22v-7.544h4.591Zm0-15.072H310.22v-7.544h4.591Zm0-15.088H310.22v-7.544h4.591Zm0-15.072H310.22v-7.544h4.591Zm0-15.088H310.22v-7.528h4.591Zm0-15.072H310.22v-7.544h4.591Zm0-15.088H310.22v-7.528h4.591Zm0-15.072H310.22V116.17h4.591Z" transform="translate(15.431 -75.367)"/><rect class="d" width="4.607" height="3.836" transform="translate(325.651 251.846)"/><path class="d" d="M141.477,245.844H136.87V238.3h4.607Z" transform="translate(-89.47 -1.462)"/><rect class="d" width="4.607" height="3.836" transform="translate(47.4 251.846)"/><path class="d" d="M176.147,262.9H171.54v-7.544h4.607Zm0-15.088H171.54v-7.544h4.607Zm0-15.072H171.54v-7.544h4.607Zm0-15.088H171.54V210.12h4.607Z" transform="translate(-68.49 -18.515)"/><rect class="d" width="4.607" height="3.836" transform="translate(103.05 251.846)"/><path class="d" d="M210.817,268.585H206.21v-7.544h4.607Zm0-15.088H206.21v-7.544h4.607Zm0-15.072H206.21v-7.544h4.607Zm0-15.088H206.21v-7.528h4.607Zm0-15.072H206.21V200.72h4.607Z" transform="translate(-47.51 -24.203)"/><rect class="d" width="4.607" height="3.836" transform="translate(158.7 251.846)"/><path class="d" d="M245.487,285.638H240.88v-7.544h4.607Zm0-15.088H240.88v-7.544h4.607Zm0-15.072H240.88v-7.544h4.607Zm0-15.088H240.88v-7.528h4.607Zm0-15.072H240.88v-7.544h4.607Zm0-15.088H240.88V202.7h4.607Zm0-15.072H240.88v-7.544h4.607Zm0-15.072H240.88V172.54h4.607Z" transform="translate(-26.529 -41.256)"/><rect class="d" width="4.607" height="3.836" transform="translate(214.351 251.846)"/><path class="d" d="M280.157,297.009H275.55v-7.544h4.607Zm0-15.088H275.55v-7.544h4.607Zm0-15.072H275.55V259.3h4.607Zm0-15.088H275.55v-7.528h4.607Zm0-15.072H275.55v-7.544h4.607Zm0-15.088H275.55v-7.528h4.607Zm0-15.072H275.55v-7.544h4.607Zm0-15.072H275.55v-7.544h4.607Zm0-15.088H275.55v-7.544h4.607Zm0-15.072H275.55V153.75h4.607Z" transform="translate(-5.549 -52.626)"/><rect class="d" width="4.607" height="3.836" transform="translate(270.001 251.846)"/><g class="f" transform="translate(47.4 29.374)"><rect class="g" width="4.607" height="3.836" transform="translate(278.251)"/><path class="g" d="M314.811,319.75H310.22v-7.544h4.591Zm0-15.088H310.22v-7.544h4.591Zm0-15.072H310.22v-7.544h4.591Zm0-15.088H310.22v-7.528h4.591Zm0-15.072H310.22v-7.544h4.591Zm0-15.088H310.22v-7.528h4.591Zm0-15.072H310.22v-7.544h4.591Zm0-15.072H310.22v-7.544h4.591Zm0-15.088H310.22v-7.544h4.591Zm0-15.072H310.22v-7.544h4.591Zm0-15.088H310.22v-7.528h4.591Zm0-15.072H310.22v-7.544h4.591Zm0-15.088H310.22v-7.528h4.591Zm0-15.072H310.22V116.17h4.591Z" transform="translate(-31.969 -104.741)"/><rect class="g" width="4.607" height="3.836" transform="translate(278.251 222.472)"/><path class="g" d="M141.477,245.844H136.87V238.3h4.607Z" transform="translate(-136.87 -30.836)"/><rect class="g" width="4.607" height="3.836" transform="translate(0 222.472)"/><path class="g" d="M176.147,262.9H171.54v-7.544h4.607Zm0-15.088H171.54v-7.544h4.607Zm0-15.072H171.54v-7.544h4.607Zm0-15.088H171.54V210.12h4.607Z" transform="translate(-115.89 -47.889)"/><rect class="g" width="4.607" height="3.836" transform="translate(55.65 222.472)"/><path class="g" d="M210.817,268.585H206.21v-7.544h4.607Zm0-15.088H206.21v-7.544h4.607Zm0-15.072H206.21v-7.544h4.607Zm0-15.088H206.21v-7.528h4.607Zm0-15.072H206.21V200.72h4.607Z" transform="translate(-94.91 -53.577)"/><rect class="g" width="4.607" height="3.836" transform="translate(111.3 222.472)"/><path class="g" d="M245.487,285.638H240.88v-7.544h4.607Zm0-15.088H240.88v-7.544h4.607Zm0-15.072H240.88v-7.544h4.607Zm0-15.088H240.88v-7.528h4.607Zm0-15.072H240.88v-7.544h4.607Zm0-15.088H240.88V202.7h4.607Zm0-15.072H240.88v-7.544h4.607Zm0-15.072H240.88V172.54h4.607Z" transform="translate(-73.929 -70.63)"/><rect class="g" width="4.607" height="3.836" transform="translate(166.951 222.472)"/><path class="g" d="M280.157,297.009H275.55v-7.544h4.607Zm0-15.088H275.55v-7.544h4.607Zm0-15.072H275.55V259.3h4.607Zm0-15.088H275.55v-7.528h4.607Zm0-15.072H275.55v-7.544h4.607Zm0-15.088H275.55v-7.528h4.607Zm0-15.072H275.55v-7.544h4.607Zm0-15.072H275.55v-7.544h4.607Zm0-15.088H275.55v-7.544h4.607Zm0-15.072H275.55V153.75h4.607Z" transform="translate(-52.949 -82)"/><rect class="g" width="4.607" height="3.836" transform="translate(222.601 222.472)"/></g><path class="d" d="M419.546,104.25a7.689,7.689,0,0,0-7,10.867l-45.923,48.571a7.673,7.673,0,0,0-10.465,7.159,5.955,5.955,0,0,0,0,.77l-43.21,23.146a7.592,7.592,0,0,0-4.815-1.782,7.7,7.7,0,0,0-7.689,7.689,7.912,7.912,0,0,0,.337,2.135l-44.607,35.538a7.56,7.56,0,0,0-3.724-1.011,7.689,7.689,0,0,0-7.608,6.774L202.8,255.631a7.657,7.657,0,0,0-13.74,4.687,7.333,7.333,0,0,0,.337,2.135l-44.607,35.618a7.512,7.512,0,0,0-3.724-1.011,7.7,7.7,0,1,0,7.689,7.689,7.912,7.912,0,0,0-.337-2.135l44.623-35.538a7.512,7.512,0,0,0,3.724,1.011,7.689,7.689,0,0,0,7.592-6.758L246.4,249.788a7.657,7.657,0,0,0,13.756-4.687,7.913,7.913,0,0,0-.337-2.135l44.607-35.538a7.56,7.56,0,0,0,3.724,1.011,7.7,7.7,0,0,0,7.7-7.689,2.624,2.624,0,0,0-.08-.787l43.21-23.13a7.657,7.657,0,0,0,11.862-9.069l45.939-48.588a7.5,7.5,0,0,0,2.761.546,7.7,7.7,0,0,0,0-15.393Z" transform="translate(-91.6 -82.581)"/><path class="d" d="M221.638,200.422a2.231,2.231,0,0,0-2.039,1.3H174.078a3,3,0,0,1-3-3V151H169.15v47.753a4.928,4.928,0,0,0,4.928,4.912H219.6a2.247,2.247,0,1,0,2.039-3.21Z" transform="translate(-69.936 -54.29)"/><rect class="d" width="61.75" height="23.419" rx="2.59" transform="translate(69.294 83.403)"/><g class="h" transform="translate(69.294 83.403)"><path class="g" d="M221.638,200.422a2.231,2.231,0,0,0-2.039,1.3H174.078a3,3,0,0,1-3-3V151H169.15v47.753a4.928,4.928,0,0,0,4.928,4.912H219.6a2.247,2.247,0,1,0,2.039-3.21Z" transform="translate(-139.23 -137.693)"/><rect class="g" width="61.75" height="23.419" rx="2.59"/></g><path class="d" d="M244.063,177.512V108.7h-1.91v68.812a2.263,2.263,0,1,0,1.91,0Z" transform="translate(-26.551 -79.888)"/><rect class="d" width="61.75" height="23.419" rx="2.59" transform="translate(185.683 17.095)"/><g class="h" transform="translate(185.683 17.095)"><path class="g" d="M244.063,177.512V108.7h-1.91v68.812a2.263,2.263,0,1,0,1.91,0Z" transform="translate(-212.233 -96.982)"/><rect class="g" width="61.75" height="23.419" rx="2.59"/></g><path class="d" d="M442.219,258.613H124.69a6.083,6.083,0,0,1,6.067-6.083H436.135A6.084,6.084,0,0,1,442.219,258.613Z" transform="translate(-96.841 7.149)"/><path class="i" d="M442.219,258.613H124.69a6.083,6.083,0,0,1,6.067-6.083H436.135A6.084,6.084,0,0,1,442.219,258.613Z" transform="translate(-96.841 7.149)"/><circle class="j" cx="5.506" cy="5.506" r="5.506" transform="translate(99.663 172.231)"/><circle class="i" cx="5.506" cy="5.506" r="5.506" transform="translate(155.362 156.951)"/><circle class="k" cx="5.506" cy="5.506" r="5.506" transform="translate(211.044 112.584)"/><circle class="l" cx="5.506" cy="5.506" r="5.506" transform="translate(266.742 82.761)"/><circle class="g" cx="5.506" cy="5.506" r="5.506" transform="translate(322.441 23.868)"/></g><g transform="translate(504.461 46.756)"><path class="m" d="M436.945,253l6.838,17.978s7.833,4.414,8.427,5.666,2.328,16.565,1.091,18.186-17.191-2.6-17.223-4.27-.786-15.345-.786-15.345l-9.181-19.647Z" transform="translate(-246.606 18.061)"/><path class="d" d="M417.188,164.63c11.894,7.127,13.162,71.862,15.072,77.913s25.425,72.713,25.425,72.713l-16.533,6.421s-23.515-49.519-28.588-63.531S404.09,212.4,404.09,212.4Z" transform="translate(-259.931 -35.415)"/><path class="n" d="M417.188,164.63c11.894,7.127,13.162,71.862,15.072,77.913s25.425,72.713,25.425,72.713l-16.533,6.421s-23.515-49.519-28.588-63.531S404.09,212.4,404.09,212.4Z" transform="translate(-259.931 -35.415)"/><path class="d" d="M436.415,162.367c-17.913-9.84-41.059-7.769-41.059-7.769L374.713,183.78,345.58,287.937l4.286,3.9,1.83-8.266,79.214,8.026,1.332,10.787,4.559-2.231,2.7-128.042Z" transform="translate(-295.337 -41.595)"/><path class="o" d="M436.415,162.367c-17.913-9.84-41.059-7.769-41.059-7.769L374.713,183.78,345.58,287.937l4.286,3.9,1.83-8.266,79.214,8.026,1.332,10.787,4.559-2.231,2.7-128.042Z" transform="translate(-295.337 -41.595)"/><path class="m" d="M343.077,128.978,337.363,109.6a78.66,78.66,0,0,0,1.011-12.36c-.337-3.531-8.636-10.289-11.236-12.665s-13.355,5.329-12.841,7,6.79,14.751,8.78,16.26l3.21,1.814,4.96,24.4Z" transform="translate(-314.279 -84.129)"/><path class="d" d="M394.206,187.381c-18.17-9.31-32.023-23.692-37.111-32.1s-20.064-52.408-20.064-52.408l-15.811,2.408s9.518,54.045,14.607,65.811,51.8,54.462,51.8,54.462Z" transform="translate(-310.079 -72.788)"/><path class="n" d="M394.206,187.381c-18.17-9.31-32.023-23.692-37.111-32.1s-20.064-52.408-20.064-52.408l-15.811,2.408s9.518,54.045,14.607,65.811,51.8,54.462,51.8,54.462Z" transform="translate(-310.079 -72.788)"/><path class="m" d="M365.163,419.14l-13.018,1.38-2.456-28.09,13.034-1.38Z" transform="translate(-292.85 101.601)"/><path class="m" d="M404.96,418.98H392.343L391.3,389.75h12.632Z" transform="translate(-267.67 100.814)"/><path class="p" d="M399.693,407.051h15.329a1.107,1.107,0,0,1,1.075.867l2.488,11.236a1.862,1.862,0,0,1-1.445,2.2,1.72,1.72,0,0,1-.4,0c-4.96-.08-8.571-.385-14.8-.385-3.836,0-15.409.4-20.706.4s-5.987-5.233-3.82-5.714c9.727-2.119,17.047-5.056,20.161-7.849a3.034,3.034,0,0,1,2.119-.754Z" transform="translate(-276.77 111.282)"/><path class="d" d="M389.417,409.641a3.788,3.788,0,0,1-2.424-.642,1.749,1.749,0,0,1-.626-1.605.883.883,0,0,1,.514-.835c1.4-.722,5.474,1.782,5.923,2.071a.289.289,0,0,1,.144.289.3.3,0,0,1-.225.257A15.491,15.491,0,0,1,389.417,409.641Zm-1.878-2.616a.626.626,0,0,0-.385.08c-.08,0-.177.112-.193.353a1.236,1.236,0,0,0,.4,1.076,6.132,6.132,0,0,0,4.494.225,12.038,12.038,0,0,0-4.318-1.734Z" transform="translate(-270.667 110.907)"/><path class="d" d="M391.675,410.267h-.144c-1.3-.706-3.82-3.483-3.563-4.815a.979.979,0,0,1,.963-.786,1.605,1.605,0,0,1,1.268.385c1.461,1.188,1.766,4.815,1.782,4.992a.353.353,0,0,1-.145.273A.273.273,0,0,1,391.675,410.267Zm-2.536-5.056h-.144c-.385,0-.417.225-.433.3-.161.819,1.445,2.921,2.745,3.9a7.079,7.079,0,0,0-1.493-3.949,1.076,1.076,0,0,0-.674-.257Z" transform="translate(-269.698 109.832)"/><path class="p" d="M359.193,406.8h15.329a1.108,1.108,0,0,1,1.076.867l2.488,11.236a1.862,1.862,0,0,1-1.445,2.2,1.72,1.72,0,0,1-.4,0c-4.96-.08-8.571-.385-14.8-.385-3.836,0-15.409.4-20.706.4s-5.987-5.233-3.82-5.714c9.727-2.119,17.047-5.056,20.161-7.849A3.034,3.034,0,0,1,359.193,406.8Z" transform="translate(-301.278 111.131)"/><path class="d" d="M348.917,409.391a3.788,3.788,0,0,1-2.424-.642,1.75,1.75,0,0,1-.626-1.605.883.883,0,0,1,.514-.835c1.4-.722,5.474,1.782,5.923,2.071a.289.289,0,0,1,.144.289.305.305,0,0,1-.225.257,15.494,15.494,0,0,1-3.307.465Zm-1.878-2.616a.627.627,0,0,0-.385.08c-.08,0-.177.112-.193.353a1.236,1.236,0,0,0,.4,1.075,6.132,6.132,0,0,0,4.494.225,12.04,12.04,0,0,0-4.318-1.734Z" transform="translate(-295.175 110.756)"/><path class="d" d="M351.175,410.017h-.144c-1.3-.706-3.82-3.483-3.563-4.815a.979.979,0,0,1,.963-.786,1.605,1.605,0,0,1,1.268.385c1.461,1.188,1.766,4.815,1.782,4.992a.353.353,0,0,1-.144.273A.272.272,0,0,1,351.175,410.017Zm-2.536-5.12h-.144c-.385,0-.417.225-.433.3-.161.819,1.445,2.921,2.745,3.9a7.079,7.079,0,0,0-1.493-3.949,1.075,1.075,0,0,0-.674-.257Z" transform="translate(-294.207 109.68)"/><path class="n" d="M362.724,391.05l-13.034,1.38,1.284,14.494,13.018-1.38Z" transform="translate(-292.85 101.601)"/><path class="n" d="M403.932,389.76H391.3l.546,15.072h12.632Z" transform="translate(-267.67 100.82)"/><path class="p" d="M427.6,230H360.635c-6.421,34.783-26.308,157.833-12.006,267.464l22.681-2.809s-2.1-145.522,17.9-199.326c2.311,28.8,5.04,59.39,7.416,75.747,5.827,40.128,18.3,127.817,18.3,127.817H438s-4.719-83.933-6.9-123.371C428.725,332.729,427.729,238.828,427.6,230Z" transform="translate(-296.556 4.143)"/><path class="n" d="M374.934,279.68a179.457,179.457,0,0,0-7.48,28.973c-1.878-25.682,5.618-52.793,5.618-52.793Z" transform="translate(-282.283 19.792)"/><path class="d" d="M345.86,404.442l28.058-4.173-.851-7.769-29.2,3.836Z" transform="translate(-296.372 102.478)"/><path class="k" d="M345.86,404.442l28.058-4.173-.851-7.769-29.2,3.836Z" transform="translate(-296.372 102.478)"/><path class="d" d="M386.687,400.908H413.91V392.77l-28.25-.53Z" transform="translate(-271.083 102.321)"/><path class="k" d="M386.687,400.908H413.91V392.77l-28.25-.53Z" transform="translate(-271.083 102.321)"/><path class="p" d="M354.177,230.52h67.416v8.026l-68.283-.819Z" transform="translate(-290.66 4.458)"/><path class="j" d="M354.177,230.52h67.416v8.026l-68.283-.819Z" transform="translate(-290.66 4.458)"/><rect class="p" width="2.408" height="14.254" transform="translate(106.856 231.366)"/><rect class="p" width="2.408" height="14.254" transform="translate(72.747 231.366)"/><path class="d" d="M374.442,155.52s42.536,2.97,73.13,14.623c0,0-22.135,68.427-26.276,108.347l-67.416-2.584S358.631,195.36,374.442,155.52Z" transform="translate(-290.315 -40.928)"/><path class="e" d="M447.56,170.131s-4.414,13.644-9.631,32.279c-1.942,6.934-4.013,14.559-6.019,22.472-4.655,18.395-8.989,38.154-10.594,53.628L353.9,275.926s4.815-80.546,20.61-120.385C374.43,155.508,416.966,158.477,447.56,170.131Z" transform="translate(-290.303 -40.916)"/><path class="m" d="M408.369,172.247c-6.758,4.815-21.477,1.027-21.477,1.027s-9.037-3.644-6.742-6.34c5.6-.257,8.571-2.52,10.064-5.666a16.276,16.276,0,0,0,1.284-6.228,32.765,32.765,0,0,0,0-3.547L411.547,140C408.064,148.716,403.152,164.992,408.369,172.247Z" transform="translate(-274.643 -50.319)"/><path class="n" d="M402.321,145.09c-2.023,11-11.509,13-16.051,13.1a16.277,16.277,0,0,0,1.284-6.228Z" transform="translate(-270.714 -47.239)"/><path class="p" d="M392.928,117.82s-11.573,13.242-7.384,23.836,21.589-16.693,21.589-16.693Z" transform="translate(-271.706 -63.741)"/><path class="m" d="M403.194,166.411a15.779,15.779,0,0,1-18.571-4.591,17.511,17.511,0,0,1-4.061-12.279,14.968,14.968,0,0,1,.193-1.862c1.878-11.4,10.642-27.849,23.868-27.689A17.111,17.111,0,0,1,419.807,144.9C414.221,156.122,411.509,162.976,403.194,166.411Z" transform="translate(-274.187 -62.429)"/><path class="p" d="M394.122,133.781c-.321.947-1.2,1.493-1.814,1.22s-.786-1.236-.4-2.167,1.22-1.477,1.83-1.22S394.523,132.818,394.122,133.781Z" transform="translate(-267.427 -55.433)"/><path class="p" d="M387.528,131c-.337.947-1.22,1.477-1.83,1.22s-.786-1.236-.4-2.167,1.22-1.477,1.83-1.22S387.9,130.1,387.528,131Z" transform="translate(-271.426 -57.115)"/><path class="q" d="M391.539,131.33a35.923,35.923,0,0,1-7.849,6.132,5.859,5.859,0,0,0,4.157,2.745Z" transform="translate(-272.276 -55.566)"/><path class="p" d="M397.516,133.516a.594.594,0,0,1-.433-.433,4.816,4.816,0,0,0-2.761-3.339.594.594,0,0,1-.369-.754.61.61,0,0,1,.754-.369h0a5.891,5.891,0,0,1,3.515,4.157.578.578,0,0,1-.4.738Z" transform="translate(-266.085 -57.223)"/><path class="p" d="M386.044,140.527h0a9.2,9.2,0,0,0,8.443.578.321.321,0,0,0-.257-.578h0a8.812,8.812,0,0,1-7.833-.578.305.305,0,0,0-.417.08h0a.321.321,0,0,0,.08.433Z" transform="translate(-270.921 -50.381)"/><path class="p" d="M384.922,127.645a.77.77,0,0,1-.337-.112.61.61,0,0,1,0-.851h0a5.859,5.859,0,0,1,5.265-1.429.594.594,0,0,1,.417.722h0a.61.61,0,0,1-.738.4h0a4.815,4.815,0,0,0-4.157,1.2.674.674,0,0,1-.45.064Z" transform="translate(-271.838 -59.328)"/><path class="p" d="M408.031,124.34l-2.986,4.687a4.093,4.093,0,0,1-.369,5.554c-3.6,3.419-4.318,11.043-2.36,15.153,0,0,.979-1.766,2.3-.61s-3.612,10.4-8.732,13.467c0,0,6.421-1.91,13.724-10.594,6.726-8.026,10.674-15.522,10.482-19.968Z" transform="translate(-264.899 -59.796)"/><path class="m" d="M410.3,146.294a11.83,11.83,0,0,1-8.62,2.889c-4.157-.3-4.815-4.366-2.488-7.56,2.1-2.825,6.822-6.164,10.417-4.238S413.189,143.709,410.3,146.294Z" transform="translate(-263.701 -52.247)"/><path class="p" d="M406.329,129.345s1.99-1.862,2.151,2.327,2.681,7.031,8.395,9.984,7.528,3.21,7.528,3.21,9.294-8.78-.417-18.78c0,0,.449-5.152-5.666-8.507-10.514-5.779-24.944-3.387-30.016,2.456a8.459,8.459,0,0,0-1.83,8.748S403.071,119.971,406.329,129.345Z" transform="translate(-270.902 -65.893)"/><path class="d" d="M409.6,155.73,391,161.637l-.289-6.517-6.774,1.525a5.377,5.377,0,0,0-4.189,5.185l-.1,7.095,7.4-2.986s-11.027,25.875-12.472,62.6c0,0,4.205-39.583,15.634-61.605l2.713,4.992,22.472-7.737Z" transform="translate(-277.788 -41.17)"/><path class="k" d="M409.6,155.73,391,161.637l-.289-6.517-6.774,1.525a5.377,5.377,0,0,0-4.189,5.185l-.1,7.095,7.4-2.986s-11.027,25.875-12.472,62.6c0,0,4.205-39.583,15.634-61.605l2.713,4.992,22.472-7.737Z" transform="translate(-277.788 -41.17)"/><rect class="d" width="12.472" height="8.989" transform="translate(81.768 233.581)"/><rect class="i" width="12.472" height="8.989" transform="translate(81.768 233.581)"/><path class="d" d="M391.875,156.788s-33.258,87.9-40.883,129.856L346,283.931s19.165-96.18,33.291-128.411Z" transform="translate(-295.083 -40.928)"/><path class="d" d="M406.941,161.78s-14.093,70.755-7.656,128.748l7.656-1.7s9.262-92.552,14.173-122.472Z" transform="translate(-263.857 -37.139)"/><path class="d" d="M372,168.655l1.3-11.557,6.1-2.568a16.292,16.292,0,0,1-7.4,14.125Z" transform="translate(-279.35 -41.527)"/><path class="n" d="M372,168.655l1.3-11.557,6.1-2.568a16.292,16.292,0,0,1-7.4,14.125Z" transform="translate(-279.35 -41.527)"/><path class="d" d="M402.7,174.619a21.236,21.236,0,0,1,0-15.249l5.7,5.056Z" transform="translate(-261.626 -38.598)"/><path class="n" d="M402.7,174.619a21.236,21.236,0,0,1,0-15.249l5.7,5.056Z" transform="translate(-261.626 -38.598)"/><rect class="p" width="42.392" height="62.344" rx="1.19" transform="translate(223.55 291.815) rotate(77.41)"/><rect class="j" width="42.392" height="62.344" rx="1.19" transform="translate(223.55 291.815) rotate(77.41)"/><path class="d" d="M451.66,334.069,428,312.271c3.21-33.371,37.159-44.061,37.159-44.061l8.026,36.051S445.512,306.765,451.66,334.069Z" transform="translate(-245.462 27.265)"/><path class="e" d="M451.66,334.069,428,312.271c3.21-33.371,37.159-44.061,37.159-44.061l8.026,36.051S445.512,306.765,451.66,334.069Z" transform="translate(-245.462 27.265)"/><path class="d" d="M453.25,289.969l-2.841-12.729a2.038,2.038,0,0,1,1.605-2.456L455.53,274a2.055,2.055,0,0,1,2.456,1.605l2.841,12.729a2.055,2.055,0,0,1-1.605,2.456l-3.515.787a2.055,2.055,0,0,1-2.456-1.605Zm3.21-14.093a.578.578,0,0,0-.69-.433l-3.515.786a.578.578,0,0,0-.449.69l2.841,12.729a.594.594,0,0,0,.69.433l3.531-.786a.578.578,0,0,0,.433-.69Z" transform="translate(-231.932 30.739)"/><g class="h" transform="translate(218.426 304.689)"><path class="g" d="M453.25,289.969l-2.841-12.729a2.038,2.038,0,0,1,1.605-2.456L455.53,274a2.055,2.055,0,0,1,2.456,1.605l2.841,12.729a2.055,2.055,0,0,1-1.605,2.456l-3.515.787a2.055,2.055,0,0,1-2.456-1.605Zm3.21-14.093a.578.578,0,0,0-.69-.433l-3.515.786a.578.578,0,0,0-.449.69l2.841,12.729a.594.594,0,0,0,.69.433l3.531-.786a.578.578,0,0,0,.433-.69Z" transform="translate(-450.358 -273.95)"/></g></g><g transform="translate(101.891 164.83)"><path class="r" d="M120.07,236.588H128.1s4.7,2.119,7.127,1.605,17.657-9.454,16.806-10.979-33.339,1.717-33.339,1.717Z" transform="translate(-30.067 -115.863)"/><path class="r" d="M137.506,288.844s-.8,11.958-2.456,30.5c-.594,6.774-1.3,14.446-2.135,22.7-3.6,35.827-9.374,83.323-17.544,121.7l-8.026-.128S101.39,405.666,111.358,367l-1.011-27.464-.706-18.925-1.172-31.83Z" transform="translate(-38 -78.36)"/><path class="r" d="M125.556,294.184s-2.536,10.482-6.886,26.95c-1.284,4.815-2.713,10.209-4.286,15.971-9.631,35.425-24.559,86.132-40.4,125.731l-7.913-1.493s4-58.122,20.4-94.527l4.35-32.327,1.605-12.055L96.9,289.24Z" transform="translate(-61.909 -78.082)"/><path class="n" d="M83.111,310.41l26.228-1.3c-1.284,4.815-2.713,10.209-4.286,15.971L81.49,322.465Z" transform="translate(-52.578 -66.058)"/><path class="n" d="M133.525,307.86c-.594,6.774-1.3,14.446-2.135,22.7l-22.584-2.5-.706-18.925Z" transform="translate(-36.475 -66.814)"/><path class="p" d="M80.949,200.09c-5.233,2.055-3.387,50.706,5.778,63.869s62.857-7,62.857-7L148.3,245.178l-47.865.144Z" transform="translate(-54.653 -132.03)"/><path class="p" d="M178.867,240.481,121.82,243.9l6.79-41.734a1.99,1.99,0,0,1,1.846-1.605l54.077-3.21a1.108,1.108,0,0,1,1.156,1.284Z" transform="translate(-28.173 -133.689)"/><path class="j" d="M178.867,240.481,121.82,243.9l6.79-41.734a1.99,1.99,0,0,1,1.846-1.605l54.077-3.21a1.108,1.108,0,0,1,1.156,1.284Z" transform="translate(-28.173 -133.689)"/><path class="p" d="M178.407,240.511,121.36,243.93l6.79-41.734A1.974,1.974,0,0,1,130,200.591l54.077-3.21a1.091,1.091,0,0,1,1.156,1.268Z" transform="translate(-28.451 -133.671)"/><path class="d" d="M176.055,238.77l-53.435,3.21,6.6-40.61,53.435-3.21Z" transform="translate(-27.688 -133.198)"/><path class="i" d="M176.055,238.77l-53.435,3.21,6.6-40.61,53.435-3.21Z" transform="translate(-27.688 -133.198)"/><path class="p" d="M189.523,224.25l.112,2.055a2.087,2.087,0,0,1-1.942,2.2l-82.376,4.976a2.071,2.071,0,0,1-2.2-1.942l-.128-2.039Z" transform="translate(-39.567 -117.41)"/><path class="j" d="M189.523,224.25l.112,2.055a2.087,2.087,0,0,1-1.942,2.2l-82.376,4.976a2.071,2.071,0,0,1-2.2-1.942l-.128-2.039Z" transform="translate(-39.567 -117.41)"/><path class="j" d="M171.411,224.25l.112,2.055a2.087,2.087,0,0,1-1.942,2.2l-34.318,2.055a2.071,2.071,0,0,1-2.215-1.894l-.128-2.055Z" transform="translate(-21.456 -117.41)"/><g class="h" transform="translate(101.802 75.01)"><path class="g" d="M129.083,222.213l-2.183.128.915-5.233L130,216.98Z" transform="translate(-126.9 -196.819)"/><path class="g" d="M131.679,223.275l-2.2.128,1.477-8.475,2.2-.128Z" transform="translate(-125.339 -198.139)"/><path class="g" d="M134.253,224.338l-2.183.128,2.039-11.718,2.183-.128Z" transform="translate(-123.771 -199.458)"/><path class="g" d="M136.849,224.789l-2.2.128,2.327-13.339,2.2-.128Z" transform="translate(-122.21 -200.166)"/><path class="g" d="M139.423,225.24l-2.183.128,2.6-14.96,2.2-.128Z" transform="translate(-120.643 -200.874)"/><path class="g" d="M142.019,226.308l-2.2.128,3.178-18.2,2.183-.144Z" transform="translate(-119.082 -202.199)"/><path class="g" d="M144.593,225.537l-2.183.128,2.889-16.581,2.183-.144Z" transform="translate(-117.514 -201.685)"/><path class="g" d="M147.189,224.766l-2.2.128,2.616-14.96,2.183-.144Z" transform="translate(-115.953 -201.17)"/><path class="g" d="M149.769,225.828l-2.2.128,3.178-18.2,2.2-.144Z" transform="translate(-114.392 -202.49)"/><path class="g" d="M152.359,227.5l-2.2.128,4.013-23.082,2.2-.128Z" transform="translate(-112.824 -204.42)"/></g><path class="d" d="M154.879,364.454c9.759-88.523-7.111-118.636-7.111-118.636L100.16,237.68a215.728,215.728,0,0,0-4,26.645s-4.575,16.372-6.035,20.867a236.454,236.454,0,0,0-10.514,79.214Z" transform="translate(-53.816 -109.283)"/><g class="s" transform="translate(25.588 128.509)"><path d="M154.894,364.411H79.629s-.385-5.666-.112-14.96a236.26,236.26,0,0,1,10.626-64.206c1.461-4.542,6.035-20.867,6.035-20.867q.177-1.605.337-3.21a192.748,192.748,0,0,1,3.66-23.419l47.592,8.026S164.653,275.888,154.894,364.411Z" transform="translate(-79.419 -237.75)"/></g><path class="n" d="M124.921,308.684S105.66,333.146,79.48,342.039a236.26,236.26,0,0,1,10.626-64.206c1.461-4.542,6.035-20.867,6.035-20.867q.177-1.605.337-3.21L145.564,250s-17.785,17.833-36.918,22.472C108.726,272.472,109.512,298.941,124.921,308.684Z" transform="translate(-53.794 -101.828)"/><path class="p" d="M108.13,174.7c0,1.011.53,1.83,1.2,1.83s1.2-.835,1.2-1.862-.562-1.83-1.22-1.83S108.13,173.707,108.13,174.7Z" transform="translate(-36.457 -148.52)"/><path class="p" d="M107,173.8a.61.61,0,0,0,.578-.241,4.815,4.815,0,0,1,3.8-2.022.61.61,0,0,0,.642-.562.594.594,0,0,0-.562-.626h0a5.923,5.923,0,0,0-4.815,2.488.594.594,0,0,0,.1.835h0Z" transform="translate(-37.431 -150.027)"/><path class="t" d="M108.789,175.58a25.521,25.521,0,0,0,2.969,6.228,4.061,4.061,0,0,1-3.419.417Z" transform="translate(-36.33 -146.862)"/><path class="r" d="M96.787,202.041a2.2,2.2,0,0,0,.385.289,17.448,17.448,0,0,0,6.148,3c6.5,1.509,10.947.61,13.852-2.327h0c4.061-4.414,5.072-12.231,4.494-21.669a35.313,35.313,0,0,0-2.055-11.011v-.177a2.515,2.515,0,0,0-.161-.4,12.841,12.841,0,0,0-9.47-7.849,25.987,25.987,0,0,0-5.57-.626C86,161.078,82.694,191.543,96.787,202.041Z" transform="translate(-48.598 -155.522)"/><path class="n" d="M93.91,187.909a17.078,17.078,0,0,0,6.212,2.584c6.533,1.332,10.947.112,13.772-2.953a18.251,18.251,0,0,1-11.685-.642A9.519,9.519,0,0,0,93.91,187.909Z" transform="translate(-45.062 -140.331)"/><path class="r" d="M93.663,205.4c-1.14,5.233,5.65,7.368,5.65,7.368,11.091-4.735,13.146-10.642,13.146-10.642-9.262-4.815-6.581-18.475-6.581-18.475l-1.878.931-13.21,2.584s3.66,7.031,4.141,8.636h0C97.435,204.228,93.663,205.4,93.663,205.4Z" transform="translate(-46.95 -141.979)"/><path class="p" d="M123.259,172s1.011,12.841-11.236,18.443c0,0-5.249,13.4-12.97,13.579-10.546.257-19.823-14.719-16.18-29.984C87.641,154.228,117.642,152.623,123.259,172Z" transform="translate(-52.228 -157.324)"/><path class="r" d="M107.458,177.874c0-2.006-1.605-5.393-4.815-4.928s-5.04,8.459,2.921,10.241C106.768,183.46,107.458,182.1,107.458,177.874Z" transform="translate(-41.435 -148.482)"/><path class="p" d="M100.8,158.654s12.311-3.114,19.1,1.846c8.026,5.779,10.963,11.75,1.605,21.027,0,0-20.658-6.693-27.528-5.281a73.626,73.626,0,0,0-11.782,3.419C80.7,166.021,93.927,155.861,100.8,158.654Z" transform="translate(-52.222 -157.689)"/><path class="u" d="M111.817,163.43s5.7,3.884,3.082,9.872-10.289,6.132-10.289,6.132" transform="translate(-38.587 -154.215)"/><path class="p" d="M120.547,183.826s-3.21,14.864,1.83,27.544c0,0-29.214,10.128-39.374,4.623s-.851-23.981-.417-34.639,5.056-26.4,20.514-22.873S120.547,183.826,120.547,183.826Z" transform="translate(-54.524 -157.516)"/><path class="p" d="M132.124,424.372a15.764,15.764,0,0,0-5.024-2.729h0s-5.474-5.441-8.026-21.782l-7.175-1.878a6.132,6.132,0,0,0-6.517,2.552,3.419,3.419,0,0,0-.449.947,41.944,41.944,0,0,0-.77,5.313,146.851,146.851,0,0,0-.1,17.945h1.284l.514-11.236c.193-3.836,3.21.658,3.965,4.815s2.616,8.507,11.011,8.7C130.535,427.149,134.6,426.763,132.124,424.372Z" transform="translate(-39.054 -12.379)"/><path class="p" d="M104.82,403.535c-.465-3.82-.61-10.465-.61-10.465l15.923,1.766s-1.926,7.56-.337,13.242C111.77,405.959,104.82,403.535,104.82,403.535Z" transform="translate(-38.829 -15.25)"/><path class="p" d="M91.764,424.372a15.764,15.764,0,0,0-5.024-2.729h0s-5.474-5.441-8.026-21.782l-7.175-1.878a6.132,6.132,0,0,0-6.517,2.552,3.418,3.418,0,0,0-.449.947,41.944,41.944,0,0,0-.77,5.313,146.849,146.849,0,0,0-.1,17.945H64.99L65.5,413.5c.193-3.836,3.21.658,3.965,4.815s2.616,8.507,11.011,8.7C90.175,427.149,94.236,426.763,91.764,424.372Z" transform="translate(-63.478 -12.379)"/><path class="p" d="M64.476,403.535c-.482-3.82-.626-10.465-.626-10.465l15.923,1.766s-1.926,7.56-.337,13.242C71.41,405.959,64.476,403.535,64.476,403.535Z" transform="translate(-63.252 -15.25)"/><path class="p" d="M80.051,204.264s10.161-3.981,19.262-6.421a153.971,153.971,0,0,1,21.605-3.756,143.856,143.856,0,0,1,20.706-.819c-.193,3.339-.337,6.421-.466,9.438-.177,3.9-.3,7.512-.385,10.867-.161,6.292-.144,11.685,0,16.469a160.7,160.7,0,0,0,3.772,31.011l10.273,24.928-61.589,7.849,3.483-24.543h0c-10.209-29.743-14.591-45.409-16.244-54.3C78.67,205.05,80.051,204.264,80.051,204.264Z" transform="translate(-53.755 -136.204)"/><path class="v" d="M80.051,204.264s10.161-3.981,19.262-6.421a153.971,153.971,0,0,1,21.605-3.756,143.856,143.856,0,0,1,20.706-.819c-.193,3.339-.337,6.421-.466,9.438-.177,3.9-.3,7.512-.385,10.867-.161,6.292-.144,11.685,0,16.469a160.7,160.7,0,0,0,3.772,31.011l10.273,24.928-61.589,7.849,3.483-24.543h0c-10.209-29.743-14.591-45.409-16.244-54.3C78.67,205.05,80.051,204.264,80.051,204.264Z" transform="translate(-53.755 -136.204)"/><path class="r" d="M157.6,234l13.965,4.157a28.346,28.346,0,0,1,5.088-1.059c1.477,0,14.173,4.815,15.875,6.421S184.5,253.679,183.97,254.1s-13.676-4.815-14.3-5.072-.851-2.231-.851-2.231l-15.457-3.917Z" transform="translate(-9.086 -111.51)"/><path class="p" d="M119.861,193.2c7.689,5.072,27.014,53.162,29.551,54.43s40.128,12.055,40.128,12.055L184.853,271.4s-41.156-7.335-45.281-10.209-20.562-32.745-20.562-32.745a76.2,76.2,0,0,1-3.467-20.016A26.565,26.565,0,0,1,119.861,193.2Z" transform="translate(-31.976 -136.2)"/></g><g transform="translate(250.361 345.105)"><rect class="d" width="11.429" height="60.899" transform="translate(169.287 173.451)"/><rect class="d" width="6.613" height="60.899" transform="translate(174.102 173.451)"/><rect class="n" width="6.613" height="60.899" transform="translate(174.102 173.451)"/><path class="n" d="M272.869,378.06v25.088l-6.613-2.247-4.815-1.637v-21.2Z" transform="translate(-92.153 -204.609)"/><rect class="d" width="11.429" height="60.899" transform="translate(217.441 173.451)"/><rect class="d" width="11.429" height="60.899" transform="translate(69.768 173.451)"/><rect class="n" width="11.429" height="60.899" transform="translate(69.768 173.451)"/><path class="d" d="M360.371,360.08v89.759h-8.539V394.446H246.005v55.393H230.339V394.446H204.512v55.393H199.44V360.08Z" transform="translate(-129.672 -215.489)"/><path class="p" d="M222.321,365.4H219.48V351.29h5.682Z" transform="translate(-117.545 -220.808)"/><path class="n" d="M346.1,360.08v89.759h-8.539V394.446H231.736v55.393H223.02V360.08Z" transform="translate(-115.402 -215.489)"/><path class="p" d="M316.737,346.048h.1l-27.673-6.693a6.787,6.787,0,0,0-1.91-.3H224.923a6.886,6.886,0,0,0-6.87,6.26L216.8,358.6a6.87,6.87,0,0,0,4.7,7.159h0l.433.112.53.128,27.014,6.6h0a6.74,6.74,0,0,0,1.734.241h62.231a6.9,6.9,0,0,0,6.87-6.26l1.252-13.291A6.9,6.9,0,0,0,316.737,346.048Z" transform="translate(-119.183 -228.215)"/><path class="j" d="M316.737,346.048h.1l-27.673-6.693a6.787,6.787,0,0,0-1.91-.3H224.923a6.886,6.886,0,0,0-6.87,6.26L216.8,358.6a6.87,6.87,0,0,0,4.7,7.159h0l.433.112.53.128,27.014,6.6h0a6.74,6.74,0,0,0,1.734.241h62.231a6.9,6.9,0,0,0,6.87-6.26l1.252-13.291A6.9,6.9,0,0,0,316.737,346.048Z" transform="translate(-119.183 -228.215)"/><path class="v" d="M303.092,370.295H240.8a6.918,6.918,0,0,1-6.886-7.544l1.252-13.291a6.9,6.9,0,0,1,6.87-6.26H304.36a6.918,6.918,0,0,1,6.886,7.544l-1.252,13.291A6.9,6.9,0,0,1,303.092,370.295Z" transform="translate(-108.829 -225.704)"/><g class="w" transform="translate(137.072 125.325)"><path class="g" d="M271.633,354.888a7.849,7.849,0,0,1-7.721,6.822,6.1,6.1,0,0,1-6.276-6.822,7.865,7.865,0,0,1,7.721-6.806,6.083,6.083,0,0,1,6.276,6.806Z" transform="translate(-231.553 -348.077)"/><path class="g" d="M281.81,355.714H271.65a.915.915,0,0,1-.947-1.027l.3-2.889a1.188,1.188,0,0,1,1.172-1.027H282.42a.915.915,0,0,1,.947,1.027l-.3,2.889A1.188,1.188,0,0,1,281.81,355.714Z" transform="translate(-223.624 -346.448)"/><path class="g" d="M244.982,358.759H241.37l.369-3.5h3.612Z" transform="translate(-241.37 -343.731)"/><path class="g" d="M248.066,358.759h-3.6l.369-3.5h3.6Z" transform="translate(-239.494 -343.731)"/></g><path class="d" d="M161.521,296.69a1.685,1.685,0,0,1-1.043-.369L156.545,293a1.606,1.606,0,0,1,2.071-2.456l3.933,3.323a1.605,1.605,0,0,1-1.027,2.825Z" transform="translate(-155.974 -257.798)"/><path class="d" d="M177.486,310.066a1.685,1.685,0,0,1-1.043-.369q-6.421-5.409-12.841-10.77a1.605,1.605,0,1,1,2.055-2.456q6.421,5.361,12.841,10.77a1.605,1.605,0,0,1-1.027,2.825Z" transform="translate(-151.762 -254.255)"/><path class="d" d="M185.482,316.9a1.605,1.605,0,0,1-1.043-.385l-7.624-6.42a1.611,1.611,0,1,1,2.087-2.456l7.608,6.421a1.612,1.612,0,0,1-1.027,2.841Z" transform="translate(-143.707 -247.458)"/><path class="d" d="M214.407,341.486a1.6,1.6,0,0,1-1.027-.369q-13.4-11.236-26.71-22.665l-.385-.337a1.6,1.6,0,1,1,2.071-2.44l.4.337q13.307,11.332,26.693,22.648a1.605,1.605,0,0,1-1.043,2.825Z" transform="translate(-137.978 -242.593)"/><path class="d" d="M217.181,343.625a1.605,1.605,0,0,1-1.027-.369l-7.689-6.421a1.6,1.6,0,0,1,2.055-2.456l7.689,6.421a1.591,1.591,0,0,1-1.027,2.825Z" transform="translate(-124.556 -231.266)"/><path class="d" d="M202.212,281.171a1.605,1.605,0,0,1-1.461-.931l-2.167-4.815a1.605,1.605,0,0,1,2.921-1.332l2.167,4.815a1.605,1.605,0,0,1-.787,2.119,1.462,1.462,0,0,1-.674.144Z" transform="translate(-130.276 -268.09)"/><path class="d" d="M213.868,305.945a1.605,1.605,0,0,1-1.461-.931c-3.4-7.48-6.421-13.965-9.374-19.807a1.612,1.612,0,0,1,2.889-1.429c2.921,5.891,5.987,12.392,9.406,19.9a1.608,1.608,0,0,1-1.461,2.263Z" transform="translate(-127.599 -262.205)"/><path class="d" d="M217.067,313.641a1.605,1.605,0,0,1-1.477-.947c-1.172-2.681-2.343-5.345-3.531-8.026A1.605,1.605,0,0,1,215,303.384q1.782,4,3.531,8.026a1.556,1.556,0,0,1-1.461,2.231Z" transform="translate(-122.098 -250.334)"/><path class="d" d="M232.874,348.1a1.605,1.605,0,0,1-1.445-.9c-5.265-10.642-10.177-21.605-14.687-31.878a1.606,1.606,0,1,1,2.937-1.3c4.494,10.241,9.39,21.172,14.623,31.75a1.605,1.605,0,0,1-1.429,2.327Z" transform="translate(-119.285 -243.94)"/><path class="d" d="M239.425,290.032a1.605,1.605,0,0,1-1.605-1.605V271.605a1.605,1.605,0,0,1,3.21,0v16.838A1.605,1.605,0,0,1,239.425,290.032Z" transform="translate(-106.446 -270)"/><path class="d" d="M239.521,298.877a1.605,1.605,0,0,1-1.605-1.605l-.1-8.427a1.605,1.605,0,0,1,3.21,0l.1,8.443a1.605,1.605,0,0,1-1.605,1.605Z" transform="translate(-106.446 -259.567)"/><path class="d" d="M239.535,335.928h0a1.605,1.605,0,0,1-1.605-1.605V300.085a1.605,1.605,0,0,1,1.605-1.605h0a1.605,1.605,0,0,1,1.605,1.605c0,11.557.08,23.082,0,34.27A1.605,1.605,0,0,1,239.535,335.928Z" transform="translate(-106.38 -252.766)"/><path class="d" d="M239.425,339.852h0a1.605,1.605,0,0,1-1.605-1.605c0-3.323.08-6.629.112-9.952a1.605,1.605,0,0,1,3.21,0c0,3.323,0,6.629-.112,9.952A1.605,1.605,0,0,1,239.425,339.852Z" transform="translate(-106.446 -235.695)"/><path class="d" d="M276.193,297.44a1.765,1.765,0,0,1-.9-.241,1.605,1.605,0,0,1-.546-2.215l4.815-7.929a1.605,1.605,0,1,1,2.745,1.605l-4.815,7.945a1.605,1.605,0,0,1-1.3.835Z" transform="translate(-84.242 -260.281)"/><path class="d" d="M262.405,327.386a1.605,1.605,0,0,1-1.38-2.424c4.591-7.8,10.706-18.042,17.207-28.01a1.6,1.6,0,1,1,2.681,1.766c-6.421,9.9-12.552,20.1-17.127,27.881A1.6,1.6,0,0,1,262.405,327.386Z" transform="translate(-92.54 -254.128)"/><path class="d" d="M255.965,331.009a1.7,1.7,0,0,1-.819-.225,1.605,1.605,0,0,1-.562-2.2l4.944-8.427a1.6,1.6,0,1,1,2.761,1.621l-4.944,8.443A1.6,1.6,0,0,1,255.965,331.009Z" transform="translate(-96.437 -240.126)"/><path class="d" d="M250.035,340.066a1.611,1.611,0,0,1-1.364-2.456q1.99-3.21,3.949-6.421a1.605,1.605,0,0,1,2.761,1.605c-1.316,2.167-2.632,4.334-3.981,6.5A1.605,1.605,0,0,1,250.035,340.066Z" transform="translate(-100.026 -233.372)"/><g class="f"><path class="g" d="M161.521,296.69a1.685,1.685,0,0,1-1.043-.369L156.545,293a1.606,1.606,0,0,1,2.071-2.456l3.933,3.323a1.605,1.605,0,0,1-1.027,2.825Z" transform="translate(-155.974 -257.798)"/><path class="g" d="M177.486,310.066a1.685,1.685,0,0,1-1.043-.369q-6.421-5.409-12.841-10.77a1.605,1.605,0,1,1,2.055-2.456q6.421,5.361,12.841,10.77a1.605,1.605,0,0,1-1.027,2.825Z" transform="translate(-151.762 -254.255)"/><path class="g" d="M185.482,316.9a1.605,1.605,0,0,1-1.043-.385l-7.624-6.42a1.611,1.611,0,1,1,2.087-2.456l7.608,6.421a1.612,1.612,0,0,1-1.027,2.841Z" transform="translate(-143.707 -247.458)"/><path class="g" d="M214.407,341.486a1.6,1.6,0,0,1-1.027-.369q-13.4-11.236-26.71-22.665l-.385-.337a1.6,1.6,0,1,1,2.071-2.44l.4.337q13.307,11.332,26.693,22.648a1.605,1.605,0,0,1-1.043,2.825Z" transform="translate(-137.978 -242.593)"/><path class="g" d="M217.181,343.625a1.605,1.605,0,0,1-1.027-.369l-7.689-6.421a1.6,1.6,0,0,1,2.055-2.456l7.689,6.421a1.591,1.591,0,0,1-1.027,2.825Z" transform="translate(-124.556 -231.266)"/><path class="g" d="M202.212,281.171a1.605,1.605,0,0,1-1.461-.931l-2.167-4.815a1.605,1.605,0,0,1,2.921-1.332l2.167,4.815a1.605,1.605,0,0,1-.787,2.119,1.462,1.462,0,0,1-.674.144Z" transform="translate(-130.276 -268.09)"/><path class="g" d="M213.868,305.945a1.605,1.605,0,0,1-1.461-.931c-3.4-7.48-6.421-13.965-9.374-19.807a1.612,1.612,0,0,1,2.889-1.429c2.921,5.891,5.987,12.392,9.406,19.9a1.608,1.608,0,0,1-1.461,2.263Z" transform="translate(-127.599 -262.205)"/><path class="g" d="M217.067,313.641a1.605,1.605,0,0,1-1.477-.947c-1.172-2.681-2.343-5.345-3.531-8.026A1.605,1.605,0,0,1,215,303.384q1.782,4,3.531,8.026a1.556,1.556,0,0,1-1.461,2.231Z" transform="translate(-122.098 -250.334)"/><path class="g" d="M232.874,348.1a1.605,1.605,0,0,1-1.445-.9c-5.265-10.642-10.177-21.605-14.687-31.878a1.606,1.606,0,1,1,2.937-1.3c4.494,10.241,9.39,21.172,14.623,31.75a1.605,1.605,0,0,1-1.429,2.327Z" transform="translate(-119.285 -243.94)"/><path class="g" d="M239.425,290.032a1.605,1.605,0,0,1-1.605-1.605V271.605a1.605,1.605,0,0,1,3.21,0v16.838A1.605,1.605,0,0,1,239.425,290.032Z" transform="translate(-106.446 -270)"/><path class="g" d="M239.521,298.877a1.605,1.605,0,0,1-1.605-1.605l-.1-8.427a1.605,1.605,0,0,1,3.21,0l.1,8.443a1.605,1.605,0,0,1-1.605,1.605Z" transform="translate(-106.446 -259.567)"/><path class="g" d="M239.535,335.928h0a1.605,1.605,0,0,1-1.605-1.605V300.085a1.605,1.605,0,0,1,1.605-1.605h0a1.605,1.605,0,0,1,1.605,1.605c0,11.557.08,23.082,0,34.27A1.605,1.605,0,0,1,239.535,335.928Z" transform="translate(-106.38 -252.766)"/><path class="g" d="M239.425,339.852h0a1.605,1.605,0,0,1-1.605-1.605c0-3.323.08-6.629.112-9.952a1.605,1.605,0,0,1,3.21,0c0,3.323,0,6.629-.112,9.952A1.605,1.605,0,0,1,239.425,339.852Z" transform="translate(-106.446 -235.695)"/><path class="g" d="M276.193,297.44a1.765,1.765,0,0,1-.9-.241,1.605,1.605,0,0,1-.546-2.215l4.815-7.929a1.605,1.605,0,1,1,2.745,1.605l-4.815,7.945a1.605,1.605,0,0,1-1.3.835Z" transform="translate(-84.242 -260.281)"/><path class="g" d="M262.405,327.386a1.605,1.605,0,0,1-1.38-2.424c4.591-7.8,10.706-18.042,17.207-28.01a1.6,1.6,0,1,1,2.681,1.766c-6.421,9.9-12.552,20.1-17.127,27.881A1.6,1.6,0,0,1,262.405,327.386Z" transform="translate(-92.54 -254.128)"/><path class="g" d="M255.965,331.009a1.7,1.7,0,0,1-.819-.225,1.605,1.605,0,0,1-.562-2.2l4.944-8.427a1.6,1.6,0,1,1,2.761,1.621l-4.944,8.443A1.6,1.6,0,0,1,255.965,331.009Z" transform="translate(-96.437 -240.126)"/><path class="g" d="M250.035,340.066a1.611,1.611,0,0,1-1.364-2.456q1.99-3.21,3.949-6.421a1.605,1.605,0,0,1,2.761,1.605c-1.316,2.167-2.632,4.334-3.981,6.5A1.605,1.605,0,0,1,250.035,340.066Z" transform="translate(-100.026 -233.372)"/></g></g></svg>