<svg xmlns="http://www.w3.org/2000/svg" width="802.57" height="598.011" viewBox="0 0 802.57 598.011"><defs><style>.a{fill:#ebebeb;}.b{fill:#f0f0f0;}.c{fill:#f5f5f5;}.d{fill:#fafafa;}.e{fill:#8cc739;}.f{opacity:0.7;}.g,.l,.s,.t{fill:#fff;}.h{opacity:0.25;}.i,.n,.s{opacity:0.1;}.j,.l,.m{opacity:0.2;}.k{opacity:0.3;}.o{fill:#263238;}.p{fill:#e2877b;}.q{fill:#2e353a;}.r{opacity:0.4;}.t,.w{opacity:0.8;}.u{fill:#dc5753;}.v{fill:#e4897b;}</style></defs><g transform="translate(0 -55)"><g transform="translate(0 55)"><rect class="a" width="802.57" height="0.401" transform="translate(0 525.523)"/><rect class="a" width="53.162" height="0.401" transform="translate(668.99 551.349)"/><rect class="a" width="13.949" height="0.401" transform="translate(517.706 555.715)"/><rect class="a" width="30.803" height="0.401" transform="translate(636.582 536.454)"/><rect class="a" width="69.326" height="0.401" transform="translate(84.206 539.15)"/><rect class="a" width="10.161" height="0.401" transform="translate(167.833 539.15)"/><rect class="a" width="150.369" height="0.401" transform="translate(211.028 545.924)"/><path class="a" d="M357.3,508.933H47.359a9.165,9.165,0,0,1-9.149-9.165V64.085A9.165,9.165,0,0,1,47.359,55H357.3a9.165,9.165,0,0,1,9.165,9.165v435.6A9.165,9.165,0,0,1,357.3,508.933ZM47.359,55.321a8.764,8.764,0,0,0-8.748,8.764V499.768a8.764,8.764,0,0,0,8.748,8.764H357.3a8.78,8.78,0,0,0,8.764-8.764V64.085a8.78,8.78,0,0,0-8.764-8.764Z" transform="translate(23.122 -55)"/><path class="a" d="M573.618,508.933H263.665a9.181,9.181,0,0,1-9.165-9.165V64.085A9.181,9.181,0,0,1,263.665,55H573.618a9.165,9.165,0,0,1,9.133,9.085V499.768A9.166,9.166,0,0,1,573.618,508.933ZM263.665,55.321a8.78,8.78,0,0,0-8.764,8.764V499.768a8.78,8.78,0,0,0,8.764,8.764H573.618a8.78,8.78,0,0,0,8.764-8.764V64.085a8.78,8.78,0,0,0-8.764-8.764Z" transform="translate(154.008 -55)"/><path class="b" d="M118.832,206.1a13.967,13.967,0,0,0,.177-2.039,12.986,12.986,0,0,0-15.12-12.841,14.848,14.848,0,0,0-27.031,3.628A9.325,9.325,0,0,0,74,194.413a9.631,9.631,0,0,0-9.631,9.631,9.439,9.439,0,0,0,.225,2.039Z" transform="translate(38.953 23.067)"/><rect class="c" width="41.284" height="229.583" transform="translate(182.761 270.562)"/><rect class="d" width="41.284" height="300.498" transform="translate(248.716 199.647)"/><rect class="b" width="41.284" height="267.866" transform="translate(578.524 232.28)"/><rect class="b" width="41.284" height="224.126" transform="translate(314.671 276.036)"/><rect class="d" width="41.284" height="263.837" transform="translate(512.553 236.309)"/><rect class="c" width="41.284" height="349.904" transform="translate(446.598 150.241)"/><rect class="d" width="41.284" height="174.912" transform="translate(116.806 323.548)"/><rect class="c" width="41.284" height="384.752" transform="translate(644.479 113.708)"/><rect class="d" width="41.284" height="286.453" transform="translate(380.643 213.692)"/><path class="c" d="M463.575,118.141a16.355,16.355,0,0,0,.257-2.825A18.106,18.106,0,0,0,445.726,97.21a17.659,17.659,0,0,0-2.937.257,20.642,20.642,0,0,0-37.592,5.04,13.179,13.179,0,0,0-4-.61,13.419,13.419,0,0,0-13.419,13.419,13.72,13.72,0,0,0,.3,2.825Z" transform="translate(234.661 -35.38)"/><path class="c" d="M297.3,116.885a24.077,24.077,0,0,0,.3-3.6,22.921,22.921,0,0,0-22.953-22.921,23.79,23.79,0,0,0-3.724.321,26.132,26.132,0,0,0-47.592,6.421,17.047,17.047,0,0,0-22.022,16.212,16.565,16.565,0,0,0,.4,3.6Z" transform="translate(121.821 -41.091)"/><path class="c" d="M205.872,136.751a14.35,14.35,0,0,0,.177-2.039,12.841,12.841,0,0,0-15.12-12.841,14.848,14.848,0,0,0-27.031,3.612,9.839,9.839,0,0,0-2.857-.433,9.631,9.631,0,0,0-9.631,9.631,9.44,9.44,0,0,0,.225,2.039Z" transform="translate(91.624 -18.902)"/></g><g transform="translate(86.95 616.67)"><ellipse class="c" cx="311.22" cy="18.17" rx="311.22" ry="18.17"/></g><g transform="translate(160.225 169.495)"><path class="e" d="M106.619,311.305,104.58,308.5,251.5,201.754l98.411,73.259,79.181-56.228,84.35,52.3L623.393,132.91l2.616,2.263-111.862,140.4-84.912-52.632-79.374,56.372-1.011-.754-97.368-72.5Z" transform="translate(-96.94 -122.348)"/><g class="f" transform="translate(7.64 10.562)"><path class="g" d="M106.619,311.305,104.58,308.5,251.5,201.754l98.411,73.259,79.181-56.228,84.35,52.3L623.393,132.91l2.616,2.263-111.862,140.4-84.912-52.632-79.374,56.372-1.011-.754-97.368-72.5Z" transform="translate(-104.58 -132.91)"/></g><circle class="e" cx="8.652" cy="8.652" r="8.652" transform="translate(0 178.893)"/><path class="e" d="M203.367,180.732a6.292,6.292,0,1,1-1.152-4.683A6.292,6.292,0,0,1,203.367,180.732Z" transform="translate(-44.731 -97.794)"/><circle class="e" cx="5.249" cy="5.249" r="5.249" transform="translate(326.999 94.575)"/><path class="e" d="M268.588,227.1a8.186,8.186,0,1,1-6.87-9.326A8.186,8.186,0,0,1,268.588,227.1Z" transform="translate(-7.544 -71.049)"/><path class="e" d="M367.941,223.677a6.164,6.164,0,1,1-1.126-4.587,6.164,6.164,0,0,1,1.126,4.587Z" transform="translate(55.013 -71.719)"/><path class="e" d="M445.469,126.33,413.43,147.357,432,162.2Z" transform="translate(89.958 -126.33)"/></g><g transform="translate(239.503 418.034)"><path class="e" d="M420.681,424.454h0V406.637h0l-1.605-1.605c-.514-.514-1.043-1.027-1.7-1.7H300.793l-1.525,1.605-1.878,1.846h0V424.6h0l1.878,1.83,1.525,1.605H417.31l1.605-1.605,1.766-1.734Z" transform="translate(-59.54 -207.246)"/><path class="e" d="M427.1,409.22h0V391.4h0L425.42,389.8l-1.685-1.8H307.217l-1.605,1.525-1.862,1.846h0v17.8h0l1.862,1.846,1.605,1.525H423.734l1.605-1.605,1.766-1.75Z" transform="translate(-55.692 -216.523)"/><path class="e" d="M420.681,393.988h0V376.107h0l-1.605-1.605-1.7-1.7H300.793l-1.525,1.525-1.878,1.846h0v17.817h0l1.878,1.846,1.525,1.525H417.31l1.605-1.605,1.766-1.75Z" transform="translate(-59.54 -225.721)"/><path class="e" d="M414.695,378.676h0V360.827h0l-1.7-1.605-1.7-1.7H294.807l-1.525,1.525-1.862,1.846h0v17.8h0l1.862,1.83,1.525,1.605H411.324l1.605-1.605c.53-.53,1.059-1.059,1.766-1.734Z" transform="translate(-63.153 -234.968)"/><path class="e" d="M429.675,363.394h0V345.577h0l-1.685-1.605-1.718-1.7H309.787l-1.605,1.525-1.862,1.846h0v17.8h0l1.862,1.846,1.605,1.525h116.5l1.605-1.605,1.766-1.75Z" transform="translate(-54.137 -244.196)"/><path class="e" d="M417.685,348.14h0V330.323h0l-1.605-1.605L414.314,327H297.8l-1.525,1.605-1.862,1.846h0v17.8h0l1.862,1.846,1.525,1.525H414.314l1.605-1.605,1.75-1.75Z" transform="translate(-61.344 -253.436)"/><path class="e" d="M424.481,332.88h0V315.031h0l-1.7-1.605-1.7-1.685H304.657l-1.605,1.509-1.862,1.846h0v17.769h0l1.862,1.83,1.605,1.605H421.174l1.605-1.605c.53-.53,1.059-1.059,1.766-1.734Z" transform="translate(-57.241 -262.671)"/><path class="e" d="M319.015,424.454h0V406.637h0l-1.685-1.605-1.7-1.7h-116.5l-1.525,1.605-1.862,1.846h0V424.6h0l1.862,1.83,1.525,1.605H315.644l1.605-1.605,1.766-1.734Z" transform="translate(-121.053 -207.246)"/><path class="e" d="M325.439,409.22h0V391.4h0l-1.605-1.605-1.766-1.8h-116.5l-1.605,1.525-1.862,1.846h0v17.8h0l1.862,1.846,1.605,1.525h116.5l1.605-1.605,1.766-1.75Z" transform="translate(-117.204 -216.523)"/><path class="e" d="M319.015,393.988h0V376.107h0l-1.685-1.605-1.7-1.7h-116.5l-1.525,1.525c-.578.562-1.14,1.108-1.862,1.846h0v17.817h0l1.862,1.846,1.525,1.525H315.644l1.605-1.605,1.766-1.75Z" transform="translate(-121.053 -225.721)"/><path class="e" d="M313.065,378.676h0V360.827h0l-1.7-1.605-1.7-1.7H193.177l-1.605,1.525-1.862,1.846h0v17.8h0l1.862,1.83,1.605,1.605H309.694l1.605-1.605,1.766-1.734Z" transform="translate(-124.702 -234.968)"/><path class="e" d="M328.015,363.394h0V345.577h0l-1.605-1.605-1.718-1.7H208.127l-1.605,1.525-1.862,1.846h0v17.8h0l1.862,1.846,1.605,1.525h116.5l1.605-1.605,1.766-1.75Z" transform="translate(-115.655 -244.196)"/><path class="e" d="M346.529,348.134h0V330.317h0l-1.685-1.605c-.514-.514-1.043-1.027-1.7-1.7H226.577l-1.605,1.605-1.862,1.846h0v17.8h0c.738.722,1.3,1.268,1.862,1.846l1.605,1.525H343.094l1.605-1.605,1.766-1.75Z" transform="translate(-104.49 -253.43)"/><path class="e" d="M353.259,332.868h0V315.051h0l-1.685-1.605-1.7-1.685h-116.5l-1.525,1.509L230,315.018h0v17.833h0l1.862,1.83,1.605,1.605H349.984l1.605-1.605,1.766-1.734Z" transform="translate(-100.321 -262.659)"/><g class="h" transform="translate(74.687 196.084)"><path d="M319.015,424.454h0V406.637h0l-1.685-1.605-1.7-1.7h-116.5l-1.525,1.605-1.862,1.846h0V424.6h0l1.862,1.83,1.525,1.605H315.644l1.605-1.605,1.766-1.734Z" transform="translate(-195.74 -403.33)"/></g><g class="h" transform="translate(84.896 171.477)"><path d="M325.439,409.22h0V391.4h0l-1.605-1.605-1.766-1.8h-116.5l-1.605,1.525-1.862,1.846h0v17.8h0l1.862,1.846,1.605,1.525h116.5l1.605-1.605,1.766-1.75Z" transform="translate(-202.1 -388)"/></g><g class="i" transform="translate(74.687 147.079)"><path d="M319.015,393.988h0V376.107h0l-1.685-1.605-1.7-1.7h-116.5l-1.525,1.525c-.578.562-1.14,1.108-1.862,1.846h0v17.817h0l1.862,1.846,1.525,1.525H315.644l1.605-1.605,1.766-1.75Z" transform="translate(-195.74 -372.8)"/></g><g class="h" transform="translate(65.008 122.552)"><path d="M313.065,378.676h0V360.827h0l-1.7-1.605-1.7-1.7H193.177l-1.605,1.525-1.862,1.846h0v17.8h0l1.862,1.83,1.605,1.605H309.694l1.605-1.605,1.766-1.734Z" transform="translate(-189.71 -357.52)"/></g><g class="i" transform="translate(89.005 98.074)"><path d="M328.015,363.394h0V345.577h0l-1.605-1.605-1.718-1.7H208.127l-1.605,1.525-1.862,1.846h0v17.8h0l1.862,1.846,1.605,1.525h116.5l1.605-1.605,1.766-1.75Z" transform="translate(-204.66 -342.27)"/></g><g class="h" transform="translate(118.62 73.58)"><path d="M346.529,348.134h0V330.317h0l-1.685-1.605c-.514-.514-1.043-1.027-1.7-1.7H226.577l-1.605,1.605-1.862,1.846h0v17.8h0c.738.722,1.3,1.268,1.862,1.846l1.605,1.525H343.094l1.605-1.605,1.766-1.75Z" transform="translate(-223.11 -327.01)"/></g><g class="i" transform="translate(129.679 49.101)"><path d="M353.259,332.868h0V315.051h0l-1.685-1.605-1.7-1.685h-116.5l-1.525,1.509L230,315.018h0v17.833h0l1.862,1.83,1.605,1.605H349.984l1.605-1.605,1.766-1.734Z" transform="translate(-230 -311.76)"/></g><g class="j" transform="translate(237.85 196.084)"><path d="M420.681,424.454h0V406.637h0l-1.605-1.605c-.514-.514-1.043-1.027-1.7-1.7H300.793l-1.525,1.605-1.878,1.846h0V424.6h0l1.878,1.83,1.525,1.605H417.31l1.605-1.605,1.766-1.734Z" transform="translate(-297.39 -403.33)"/></g><g class="j" transform="translate(248.058 171.477)"><path d="M427.1,409.22h0V391.4h0L425.42,389.8l-1.685-1.8H307.217l-1.605,1.525-1.862,1.846h0v17.8h0l1.862,1.846,1.605,1.525H423.734l1.605-1.605,1.766-1.75Z" transform="translate(-303.75 -388)"/></g><g class="k" transform="translate(237.85 147.079)"><path d="M420.681,393.988h0V376.107h0l-1.605-1.605-1.7-1.7H300.793l-1.525,1.525-1.878,1.846h0v17.817h0l1.878,1.846,1.525,1.525H417.31l1.605-1.605,1.766-1.75Z" transform="translate(-297.39 -372.8)"/></g><g class="j" transform="translate(228.267 122.552)"><path d="M414.695,378.676h0V360.827h0l-1.7-1.605-1.7-1.7H294.807l-1.525,1.525-1.862,1.846h0v17.8h0l1.862,1.83,1.525,1.605H411.324l1.605-1.605c.53-.53,1.059-1.059,1.766-1.734Z" transform="translate(-291.42 -357.52)"/></g><g class="k" transform="translate(252.183 98.074)"><path d="M429.675,363.394h0V345.577h0l-1.685-1.605-1.718-1.7H309.787l-1.605,1.525-1.862,1.846h0v17.8h0l1.862,1.846,1.605,1.525h116.5l1.605-1.605,1.766-1.75Z" transform="translate(-306.32 -342.27)"/></g><g class="j" transform="translate(233.066 73.564)"><path d="M417.685,348.14h0V330.323h0l-1.605-1.605L414.314,327H297.8l-1.525,1.605-1.862,1.846h0v17.8h0l1.862,1.846,1.525,1.525H414.314l1.605-1.605,1.75-1.75Z" transform="translate(-294.41 -327)"/></g><g class="k" transform="translate(243.949 49.069)"><path d="M424.481,332.88h0V315.031h0l-1.7-1.605-1.7-1.685H304.657l-1.605,1.509-1.862,1.846h0v17.769h0l1.862,1.83,1.605,1.605H421.174l1.605-1.605c.53-.53,1.059-1.059,1.766-1.734Z" transform="translate(-301.19 -311.74)"/></g><path class="e" d="M367.041,284.557v17.8l-3.387,3.387H247.137l-3.387-3.387v-17.8l3.387-3.387H363.654C364.986,282.5,365.741,283.225,367.041,284.557Z" transform="translate(-92 -281.17)"/><g class="k" transform="translate(151.75)"><path class="g" d="M367.041,284.557v17.8l-3.387,3.387H247.137l-3.387-3.387v-17.8l3.387-3.387H363.654C364.986,282.5,365.741,283.225,367.041,284.557Z" transform="translate(-243.75 -281.17)"/></g><g class="k" transform="translate(151.75 9.791)"><rect class="g" width="123.291" height="8.909"/></g><g class="i" transform="translate(151.75 21.204)"><path d="M247.153,297.751H363.638l3.419-3.371H243.75Z" transform="translate(-243.75 -294.38)"/></g><g class="k" transform="translate(151.75)"><path class="g" d="M363.638,281.17H247.153l-3.4,3.371H367.057Z" transform="translate(-243.75 -281.17)"/></g><g class="i" transform="translate(206.87)"><rect class="g" width="23.644" height="24.575"/></g><g class="i" transform="translate(240.931)"><rect class="g" width="11.814" height="24.575"/></g><path class="e" d="M380.275,299.817v17.8L376.888,321H260.371L257,317.618v-17.8c1.316-1.332,2.055-2.055,3.387-3.387H376.9C378.22,297.762,378.991,298.485,380.275,299.817Z" transform="translate(-83.982 -271.936)"/><g class="k" transform="translate(173.018 24.494)"><path class="g" d="M380.275,299.817v17.8L376.888,321H260.371L257,317.618v-17.8c1.316-1.332,2.055-2.055,3.387-3.387H376.9C378.22,297.762,378.991,298.485,380.275,299.817Z" transform="translate(-257 -296.43)"/></g><g class="k" transform="translate(173.002 34.286)"><rect class="g" width="123.291" height="8.909"/></g><g class="i" transform="translate(173.018 45.698)"><path d="M260.387,313.011H376.872l3.4-3.371H257Z" transform="translate(-257 -309.64)"/></g><g class="k" transform="translate(172.986 24.494)"><path class="g" d="M376.884,296.43H260.4L256.98,299.8H380.287Z" transform="translate(-256.98 -296.43)"/></g><g class="i" transform="translate(228.122 24.494)"><rect class="g" width="23.644" height="24.575"/></g><g class="i" transform="translate(262.167 24.494)"><rect class="g" width="11.814" height="24.575"/></g><path class="e" d="M375.149,315.077v17.817l-3.387,3.371H255.277l-3.387-3.387v-17.8l3.387-3.387H371.794Z" transform="translate(-87.074 -262.701)"/><g class="k" transform="translate(164.816 48.989)"><path class="g" d="M375.149,315.077v17.817l-3.387,3.371H255.277l-3.387-3.387v-17.8l3.387-3.387H371.794Z" transform="translate(-251.89 -311.69)"/></g><g class="k" transform="translate(164.784 58.78)"><rect class="g" width="123.291" height="8.909"/></g><g class="i" transform="translate(164.784 70.193)"><path d="M255.289,328.271H371.774l3.4-3.371H251.87Z" transform="translate(-251.87 -324.9)"/></g><g class="k" transform="translate(164.8 48.989)"><path class="g" d="M371.752,311.69H255.283l-3.4,3.371H375.171Z" transform="translate(-251.88 -311.69)"/></g><g class="i" transform="translate(219.904 48.989)"><rect class="g" width="23.644" height="24.575"/></g><g class="i" transform="translate(253.949 48.989)"><rect class="g" width="11.814" height="24.575"/></g><path class="e" d="M368.355,330.347v17.8l-3.387,3.387H248.451L245,348.148v-17.8l3.387-3.387H364.9Z" transform="translate(-91.244 -253.461)"/><g class="k" transform="translate(153.756 73.499)"><path class="g" d="M368.355,330.347v17.8l-3.387,3.387H248.451L245,348.148v-17.8l3.387-3.387H364.9Z" transform="translate(-245 -326.96)"/></g><g class="k" transform="translate(153.82 83.291)"><rect class="g" width="123.291" height="8.909"/></g><g class="i" transform="translate(153.756 94.703)"><path d="M248.467,343.541H364.952l3.4-3.371H245Z" transform="translate(-245 -340.17)"/></g><g class="k" transform="translate(153.756 73.564)"><path class="g" d="M364.952,327H248.467L245,330.291H368.307Z" transform="translate(-245 -327)"/></g><g class="i" transform="translate(208.941 73.499)"><rect class="g" width="23.644" height="24.575"/></g><g class="i" transform="translate(242.986 73.499)"><rect class="g" width="11.814" height="24.575"/></g><path class="e" d="M380.275,345.607v17.8l-3.387,3.387H260.371L257,363.408v-17.8l3.387-3.387H376.9Z" transform="translate(-83.982 -244.226)"/><g class="k" transform="translate(173.018 97.994)"><path class="g" d="M380.275,345.607v17.8l-3.387,3.387H260.371L257,363.408v-17.8l3.387-3.387H376.9Z" transform="translate(-257 -342.22)"/></g><g class="k" transform="translate(173.002 107.785)"><rect class="g" width="123.291" height="8.909"/></g><g class="i" transform="translate(173.018 119.198)"><path d="M260.387,358.8H376.872l3.4-3.371H257Z" transform="translate(-257 -355.43)"/></g><g class="k" transform="translate(172.986 97.994)"><path class="g" d="M376.884,342.22H260.4l-3.419,3.371H380.287Z" transform="translate(-256.98 -342.22)"/></g><g class="i" transform="translate(228.122 97.994)"><rect class="g" width="23.644" height="24.575"/></g><g class="i" transform="translate(262.167 97.994)"><rect class="g" width="11.814" height="24.575"/></g><path class="e" d="M365.341,360.867v17.8l-3.4,3.4h-116.5l-3.387-3.4v-17.8c1.3-1.332,2.055-2.055,3.387-3.387h116.5C363.27,358.812,363.96,359.535,365.341,360.867Z" transform="translate(-93.029 -234.992)"/><g class="k" transform="translate(149.021 122.488)"><path class="g" d="M365.341,360.867v17.8l-3.4,3.4h-116.5l-3.387-3.4v-17.8c1.3-1.332,2.055-2.055,3.387-3.387h116.5C363.27,358.812,363.96,359.535,365.341,360.867Z" transform="translate(-242.05 -357.48)"/></g><g class="k" transform="translate(149.021 132.279)"><rect class="g" width="123.291" height="8.909"/></g><g class="i" transform="translate(148.941 143.692)"><path d="M245.467,374.061h116.5l3.4-3.371H242Z" transform="translate(-242 -370.69)"/></g><g class="k" transform="translate(149.005 122.488)"><path class="g" d="M361.944,357.48h-116.5l-3.4,3.371H365.347Z" transform="translate(-242.04 -357.48)"/></g><g class="i" transform="translate(204.126 122.488)"><rect class="g" width="23.644" height="24.575"/></g><g class="i" transform="translate(238.187 122.488)"><rect class="g" width="11.814" height="24.575"/></g><path class="e" d="M371.323,376.137v17.881l-3.387,3.387H251.419L248,394.018V376.137c1.316-1.332,2.055-2.055,3.387-3.387H367.9C369.268,374.082,369.991,374.756,371.323,376.137Z" transform="translate(-89.428 -225.751)"/><g class="k" transform="translate(158.572 146.999)"><path class="g" d="M371.323,376.137v17.881l-3.387,3.387H251.419L248,394.018V376.137c1.316-1.332,2.055-2.055,3.387-3.387H367.9C369.268,374.082,369.991,374.756,371.323,376.137Z" transform="translate(-248 -372.75)"/></g><g class="k" transform="translate(158.604 156.79)"><rect class="g" width="123.291" height="8.909"/></g><g class="i" transform="translate(158.572 168.202)"><path d="M251.435,389.315H367.92l3.419-3.355H248Z" transform="translate(-248 -385.96)"/></g><g class="k" transform="translate(158.572 146.999)"><path class="g" d="M367.92,372.75H251.435L248,376.1H371.307Z" transform="translate(-248 -372.75)"/></g><g class="i" transform="translate(213.724 146.999)"><rect class="g" width="23.644" height="24.575"/></g><g class="i" transform="translate(247.785 146.999)"><rect class="g" width="11.814" height="24.575"/></g><path class="e" d="M388.493,391.4v17.8l-3.387,3.387H268.557L265.17,409.2V391.4l3.387-3.387H385.074Z" transform="translate(-79.038 -216.517)"/><g class="k" transform="translate(186.132 171.493)"><path class="g" d="M388.493,391.4v17.8l-3.387,3.387H268.557L265.17,409.2V391.4l3.387-3.387H385.074Z" transform="translate(-265.17 -388.01)"/></g><g class="k" transform="translate(186.132 181.284)"><rect class="g" width="123.291" height="8.909"/></g><g class="i" transform="translate(186.132 192.697)"><path d="M268.573,404.591H385.058l3.419-3.371H265.17Z" transform="translate(-265.17 -401.22)"/></g><g class="k" transform="translate(186.132 171.477)"><path class="g" d="M385.058,388H268.573l-3.4,3.371H388.493Z" transform="translate(-265.17 -388)"/></g><g class="i" transform="translate(241.252 171.493)"><rect class="g" width="23.644" height="24.575"/></g><g class="i" transform="translate(275.314 171.493)"><rect class="g" width="11.814" height="24.575"/></g><path class="e" d="M371.323,406.657v17.8l-3.387,3.387H251.419L248,424.458v-17.8c1.316-1.332,2.071-2.055,3.387-3.387H367.9C369.268,404.6,369.991,405.325,371.323,406.657Z" transform="translate(-89.428 -207.283)"/><g class="k" transform="translate(158.572 195.988)"><path class="g" d="M371.323,406.657v17.8l-3.387,3.387H251.419L248,424.458v-17.8c1.316-1.332,2.071-2.055,3.387-3.387H367.9C369.268,404.6,369.991,405.325,371.323,406.657Z" transform="translate(-248 -403.27)"/></g><g class="k" transform="translate(158.604 205.779)"><rect class="g" width="123.291" height="8.909"/></g><g class="i" transform="translate(158.572 217.191)"><path d="M251.435,419.851H367.92l3.419-3.371H248Z" transform="translate(-248 -416.48)"/></g><g class="k" transform="translate(158.604 195.987)"><path class="g" d="M367.908,403.27H251.423l-3.4,3.371H371.327Z" transform="translate(-248.02 -403.27)"/></g><g class="i" transform="translate(213.724 195.987)"><rect class="g" width="23.644" height="24.575"/></g><g class="i" transform="translate(247.785 195.987)"><rect class="g" width="11.814" height="24.575"/></g><path class="e" d="M277.791,360.867v17.8l-3.387,3.4H157.887l-3.387-3.4v-17.8l3.387-3.387H274.4Z" transform="translate(-146.009 -234.992)"/><g class="k" transform="translate(8.491 122.488)"><path class="g" d="M277.791,360.867v17.8l-3.387,3.4H157.887l-3.387-3.4v-17.8l3.387-3.387H274.4Z" transform="translate(-154.5 -357.48)"/></g><g class="k" transform="translate(8.491 132.279)"><rect class="g" width="123.291" height="8.909"/></g><g class="i" transform="translate(8.475 143.692)"><path d="M157.909,374.061H274.394l3.4-3.371H154.49Z" transform="translate(-154.49 -370.69)"/></g><g class="k" transform="translate(8.475 122.488)"><path class="g" d="M274.394,357.48H157.909l-3.419,3.371H277.8Z" transform="translate(-154.49 -357.48)"/></g><g class="i" transform="translate(63.612 122.488)"><rect class="g" width="23.644" height="24.575"/></g><g class="i" transform="translate(97.657 122.488)"><rect class="g" width="11.814" height="24.575"/></g><path class="e" d="M283.755,376.137v17.881l-3.387,3.387h-116.5l-3.387-3.387V376.137c1.3-1.332,2.055-2.055,3.387-3.387h116.5C281.7,374.082,282.455,374.756,283.755,376.137Z" transform="translate(-142.39 -225.751)"/><g class="k" transform="translate(18.09 146.999)"><path class="g" d="M283.755,376.137v17.881l-3.387,3.387h-116.5l-3.387-3.387V376.137c1.3-1.332,2.055-2.055,3.387-3.387h116.5C281.7,374.082,282.455,374.756,283.755,376.137Z" transform="translate(-160.48 -372.75)"/></g><g class="k" transform="translate(18.09 156.79)"><rect class="g" width="123.291" height="8.909"/></g><g class="i" transform="translate(18.074 168.202)"><path d="M163.873,389.315h116.5l3.4-3.355H160.47Z" transform="translate(-160.47 -385.96)"/></g><g class="k" transform="translate(18.074 146.999)"><path class="g" d="M280.374,372.75h-116.5l-3.4,3.355H283.777C282.445,374.756,281.706,374.066,280.374,372.75Z" transform="translate(-160.47 -372.75)"/></g><g class="i" transform="translate(73.194 146.999)"><rect class="g" width="23.644" height="24.575"/></g><g class="i" transform="translate(107.255 146.999)"><rect class="g" width="11.814" height="24.575"/></g><path class="e" d="M289.661,391.4v17.8l-3.387,3.387H169.757L166.37,409.2V391.4l3.387-3.387H286.274Z" transform="translate(-138.826 -216.517)"/><g class="k" transform="translate(27.544 171.493)"><path class="g" d="M289.661,391.4v17.8l-3.387,3.387H169.757L166.37,409.2V391.4l3.387-3.387H286.274Z" transform="translate(-166.37 -388.01)"/></g><g class="k" transform="translate(27.544 181.284)"><rect class="g" width="123.291" height="8.909"/></g><g class="i" transform="translate(27.528 192.697)"><path d="M169.779,404.591H286.264l3.4-3.371H166.36Z" transform="translate(-166.36 -401.22)"/></g><g class="k" transform="translate(27.528 171.477)"><path class="g" d="M286.264,388H169.779l-3.419,3.371H289.667Z" transform="translate(-166.36 -388)"/></g><g class="i" transform="translate(82.665 171.493)"><rect class="g" width="23.644" height="24.575"/></g><g class="i" transform="translate(116.71 171.493)"><rect class="g" width="11.814" height="24.575"/></g><path class="e" d="M272.463,406.657v17.8l-3.387,3.387H152.607l-3.387-3.387v-17.8l3.387-3.387H269.124Z" transform="translate(-149.204 -207.283)"/><g class="k" transform="translate(0.016 195.988)"><path class="g" d="M272.463,406.657v17.8l-3.387,3.387H152.607l-3.387-3.387v-17.8l3.387-3.387H269.124Z" transform="translate(-149.22 -403.27)"/></g><g class="k" transform="translate(0.016 205.779)"><rect class="g" width="123.291" height="8.909"/></g><g class="i" transform="translate(0 217.191)"><path d="M152.629,419.851H269.114l3.4-3.371H149.21Z" transform="translate(-149.21 -416.48)"/></g><g class="k" transform="translate(0 195.987)"><path class="g" d="M269.114,403.27H152.629l-3.419,3.371H272.469Z" transform="translate(-149.21 -403.27)"/></g><g class="i" transform="translate(55.137 195.987)"><rect class="g" width="23.644" height="24.575"/></g><g class="i" transform="translate(89.182 195.987)"><rect class="g" width="11.814" height="24.575"/></g><path class="e" d="M468.9,330.347v17.8l-3.387,3.387H349l-3.387-3.387v-17.8L349,326.96H465.514Z" transform="translate(-30.361 -253.461)"/><g class="k" transform="translate(315.249 73.499)"><path class="g" d="M468.9,330.347v17.8l-3.387,3.387H349l-3.387-3.387v-17.8L349,326.96H465.514Z" transform="translate(-345.61 -326.96)"/></g><g class="k" transform="translate(315.249 83.291)"><rect class="g" width="123.291" height="8.909"/></g><g class="i" transform="translate(315.249 94.703)"><path d="M349.013,343.541H465.5l3.4-3.371H345.61Z" transform="translate(-345.61 -340.17)"/></g><g class="k" transform="translate(315.249 73.564)"><path class="g" d="M465.5,327H349.013l-3.4,3.355H468.9Z" transform="translate(-345.61 -327)"/></g><g class="i" transform="translate(370.37 73.499)"><rect class="g" width="23.644" height="24.575"/></g><g class="i" transform="translate(404.415 73.499)"><rect class="g" width="11.814" height="24.575"/></g><path class="e" d="M480.851,345.607v17.8l-3.387,3.387H360.947l-3.387-3.387v-17.8l3.387-3.387H477.464Z" transform="translate(-23.129 -244.226)"/><g class="k" transform="translate(334.431 97.994)"><path class="g" d="M480.851,345.607v17.8l-3.387,3.387H360.947l-3.387-3.387v-17.8l3.387-3.387H477.464Z" transform="translate(-357.56 -342.22)"/></g><g class="k" transform="translate(334.431 107.785)"><rect class="g" width="123.291" height="8.909"/></g><g class="i" transform="translate(334.431 119.198)"><path d="M360.963,358.8H477.448l3.4-3.371H357.56Z" transform="translate(-357.56 -355.43)"/></g><g class="k" transform="translate(334.431 97.994)"><path class="g" d="M477.448,342.22H360.963l-3.4,3.371H480.851Z" transform="translate(-357.56 -342.22)"/></g><g class="i" transform="translate(389.551 97.994)"><rect class="g" width="23.644" height="24.575"/></g><g class="i" transform="translate(423.596 97.994)"><rect class="g" width="11.814" height="24.575"/></g><path class="e" d="M465.911,360.867v17.8l-3.4,3.4h-116.5l-3.387-3.4v-17.8c1.3-1.332,2.055-2.055,3.387-3.387h116.5C463.84,358.812,464.594,359.535,465.911,360.867Z" transform="translate(-32.17 -234.992)"/><g class="k" transform="translate(310.45 122.488)"><path class="g" d="M465.911,360.867v17.8l-3.4,3.4h-116.5l-3.387-3.4v-17.8c1.3-1.332,2.055-2.055,3.387-3.387h116.5C463.84,358.812,464.594,359.535,465.911,360.867Z" transform="translate(-342.62 -357.48)"/></g><g class="k" transform="translate(310.45 132.279)"><rect class="g" width="123.291" height="8.909"/></g><g class="i" transform="translate(310.434 143.692)"><path d="M346.013,374.061h116.5l3.4-3.371H342.61Z" transform="translate(-342.61 -370.69)"/></g><g class="k" transform="translate(310.434 122.488)"><path class="g" d="M462.514,357.48h-116.5l-3.4,3.371H465.917Z" transform="translate(-342.61 -357.48)"/></g><g class="i" transform="translate(365.554 122.488)"><rect class="g" width="23.644" height="24.575"/></g><g class="i" transform="translate(399.615 122.488)"><rect class="g" width="11.814" height="24.575"/></g><path class="e" d="M471.881,376.137v17.881l-3.387,3.387H351.977l-3.387-3.387V376.137l3.387-3.387H468.494C469.826,374.082,470.581,374.756,471.881,376.137Z" transform="translate(-28.557 -225.751)"/><g class="k" transform="translate(320.033 146.999)"><path class="g" d="M471.881,376.137v17.881l-3.387,3.387H351.977l-3.387-3.387V376.137l3.387-3.387H468.494C469.826,374.082,470.581,374.756,471.881,376.137Z" transform="translate(-348.59 -372.75)"/></g><g class="k" transform="translate(320.033 156.79)"><rect class="g" width="123.291" height="8.909"/></g><g class="i" transform="translate(320.033 168.202)"><path d="M351.993,389.315H468.478l3.419-3.355H348.59Z" transform="translate(-348.59 -385.96)"/></g><g class="k" transform="translate(320.033 146.999)"><path class="g" d="M468.478,372.75H351.993l-3.4,3.355H471.9Z" transform="translate(-348.59 -372.75)"/></g><g class="i" transform="translate(375.153 146.999)"><rect class="g" width="23.644" height="24.575"/></g><g class="i" transform="translate(409.214 146.999)"><rect class="g" width="11.814" height="24.575"/></g><path class="e" d="M478.371,391.4v17.8l-3.387,3.387h-116.5l-3.4-3.387V391.4c1.316-1.332,2.071-2.055,3.4-3.387h116.5C476.316,389.342,477.071,390.065,478.371,391.4Z" transform="translate(-24.63 -216.517)"/><g class="k" transform="translate(330.45 171.493)"><path class="g" d="M478.371,391.4v17.8l-3.387,3.387h-116.5l-3.4-3.387V391.4c1.316-1.332,2.071-2.055,3.4-3.387h116.5C476.316,389.342,477.071,390.065,478.371,391.4Z" transform="translate(-355.08 -388.01)"/></g><g class="k" transform="translate(330.45 181.284)"><rect class="g" width="123.291" height="8.909"/></g><g class="i" transform="translate(330.45 192.697)"><path d="M358.483,404.591H474.968l3.419-3.371H355.08Z" transform="translate(-355.08 -401.22)"/></g><g class="k" transform="translate(330.45 171.477)"><path class="g" d="M474.968,388H358.483l-3.4,3.371H478.387Z" transform="translate(-355.08 -388)"/></g><g class="i" transform="translate(385.571 171.493)"><rect class="g" width="23.644" height="24.575"/></g><g class="i" transform="translate(419.632 171.493)"><rect class="g" width="11.814" height="24.575"/></g><path class="e" d="M471.881,406.657v17.8l-3.387,3.387h-116.5l-3.4-3.387v-17.8c1.316-1.332,2.071-2.055,3.4-3.387h116.5C469.826,404.6,470.581,405.325,471.881,406.657Z" transform="translate(-28.557 -207.283)"/><g class="k" transform="translate(320.033 195.988)"><path class="g" d="M471.881,406.657v17.8l-3.387,3.387h-116.5l-3.4-3.387v-17.8c1.316-1.332,2.071-2.055,3.4-3.387h116.5C469.826,404.6,470.581,405.325,471.881,406.657Z" transform="translate(-348.59 -403.27)"/></g><g class="k" transform="translate(320.033 205.779)"><rect class="g" width="123.291" height="8.909"/></g><g class="i" transform="translate(320.033 217.191)"><path d="M351.993,419.851H468.478l3.419-3.371H348.59Z" transform="translate(-348.59 -416.48)"/></g><g class="k" transform="translate(320.033 195.987)"><path class="g" d="M468.478,403.27H351.993l-3.4,3.371H471.9Z" transform="translate(-348.59 -403.27)"/></g><g class="i" transform="translate(375.153 195.987)"><rect class="g" width="23.644" height="24.575"/></g><g class="i" transform="translate(409.214 195.987)"><rect class="g" width="11.814" height="24.575"/></g></g><g transform="translate(590.531 328.644)"><path class="e" d="M372.922,285.745s-4.061,7.271,2.44,17.175c3.836,5.843,9.085,7.512,12.279,5.425s3.8-7.56,0-13.419C381.237,284.975,372.922,285.745,372.922,285.745Z" transform="translate(-365.619 -189.02)"/><path class="l" d="M372.922,285.745s-4.061,7.271,2.44,17.175c3.836,5.843,9.085,7.512,12.279,5.425s3.8-7.56,0-13.419C381.237,284.975,372.922,285.745,372.922,285.745Z" transform="translate(-365.619 -189.02)"/><path class="e" d="M421,264.285s-14.077-3.114-27.287,12.536c-7.769,9.23-7.929,18.748-2.905,23.018s14.446,2.552,22.231-6.613C426.377,277.656,421,264.285,421,264.285Z" transform="translate(-356.104 -202.15)"/><path class="e" d="M398.433,225.48s-3.13.867-4.109,5.393c-.578,2.665.4,4.591,1.846,4.815s3.21-1.011,3.756-3.676A6.693,6.693,0,0,0,398.433,225.48Z" transform="translate(-352.012 -225.48)"/><path class="e" d="M382.25,364.73a67.285,67.285,0,0,1-2.5-19.7,77.771,77.771,0,0,1,2.809-19.085c.851-3.05,1.846-6.051,2.986-8.973.562-1.461,1.156-2.889,1.8-4.318.3-.722.642-1.413.963-2.119l.482-1.027.466-1c2.52-5.281,4.912-10.594,7.063-16.051a166.7,166.7,0,0,0,5.666-16.421,100.736,100.736,0,0,0,3.339-17,61.1,61.1,0,0,0-.546-17.271,43.21,43.21,0,0,0-6.421-16.2,44.415,44.415,0,0,1,8.411,15.714,64.447,64.447,0,0,1,2.552,17.929,105.023,105.023,0,0,1-1.493,18.09,169.387,169.387,0,0,1-3.965,17.657c-1.605,5.811-3.451,11.541-5.409,17.207l-.369,1.059-.177.53-.161.5c-.225.658-.466,1.332-.658,2.006-.417,1.332-.819,2.681-1.172,4.029-.706,2.681-1.284,5.393-1.717,8.106a64.843,64.843,0,0,0-.578,16.051,52.617,52.617,0,0,0,3.676,15.072Z" transform="translate(-360.741 -225.42)"/><path class="m" d="M382.25,364.73a67.285,67.285,0,0,1-2.5-19.7,77.771,77.771,0,0,1,2.809-19.085c.851-3.05,1.846-6.051,2.986-8.973.562-1.461,1.156-2.889,1.8-4.318.3-.722.642-1.413.963-2.119l.482-1.027.466-1c2.52-5.281,4.912-10.594,7.063-16.051a166.7,166.7,0,0,0,5.666-16.421,100.736,100.736,0,0,0,3.339-17,61.1,61.1,0,0,0-.546-17.271,43.21,43.21,0,0,0-6.421-16.2,44.415,44.415,0,0,1,8.411,15.714,64.447,64.447,0,0,1,2.552,17.929,105.023,105.023,0,0,1-1.493,18.09,169.387,169.387,0,0,1-3.965,17.657c-1.605,5.811-3.451,11.541-5.409,17.207l-.369,1.059-.177.53-.161.5c-.225.658-.466,1.332-.658,2.006-.417,1.332-.819,2.681-1.172,4.029-.706,2.681-1.284,5.393-1.717,8.106a64.843,64.843,0,0,0-.578,16.051,52.617,52.617,0,0,0,3.676,15.072Z" transform="translate(-360.741 -225.42)"/><path class="e" d="M417.668,302.67l-.449,4.928-2.857,32.1a2.215,2.215,0,0,1-2.183,1.99H375.79a2.183,2.183,0,0,1-2.183-1.99l-2.873-32.1-.433-4.928Z" transform="translate(-366.448 -178.769)"/><rect class="e" width="11.541" height="0.433" transform="translate(49.656 153.205) rotate(-84.89)"/><rect class="e" width="2.729" height="0.433" transform="translate(50.994 138.328) rotate(-84.89)"/><path class="e" d="M386.86,244.49s-5.682,7.576.112,19.711c3.419,7.159,9.069,9.823,12.986,8.026s5.441-7.913,2.071-15.1C396.314,244.907,386.86,244.49,386.86,244.49Z" transform="translate(-357.935 -213.976)"/><path class="m" d="M386.86,244.49s-5.682,7.576.112,19.711c3.419,7.159,9.069,9.823,12.986,8.026s5.441-7.913,2.071-15.1C396.314,244.907,386.86,244.49,386.86,244.49Z" transform="translate(-357.935 -213.976)"/><path class="m" d="M417.668,302.67l-.449,4.928H370.733l-.433-4.928Z" transform="translate(-366.448 -178.769)"/><rect class="e" width="55.056" height="8.539" rx="0.64" transform="translate(0 117.817)"/><circle class="e" cx="17.255" cy="17.255" r="17.255" transform="matrix(0.799, -0.601, 0.601, 0.799, 40.05, 29.779)"/><path class="n" d="M427.178,255.827a14.125,14.125,0,1,0-25.281,4.607,14.446,14.446,0,1,1,25.281-4.607Z" transform="translate(-349.136 -218.396)"/><path class="d" d="M415.964,251.849l-1.717,3.708a1.171,1.171,0,0,1-.674.594,1.091,1.091,0,0,1-.9,0l-3.21-1.509-1.22,2.568a1.2,1.2,0,0,1-2.215-.112,1.155,1.155,0,0,1,0-.9l1.22-2.6-3.21-1.493a1.14,1.14,0,0,1-.594-.658,1.156,1.156,0,0,1,0-.9,1.14,1.14,0,0,1,.658-.594,1.092,1.092,0,0,1,.9,0l7.448,3.515.722-1.525-7.432-3.5a1.172,1.172,0,0,1-.546-1.605l1.7-3.628a1.139,1.139,0,0,1,.674-.61,1.06,1.06,0,0,1,.883,0l3.21,1.493,1.22-2.568a1.091,1.091,0,0,1,.642-.61,1.172,1.172,0,0,1,.947,0,1.076,1.076,0,0,1,.578.658,1.059,1.059,0,0,1,0,.883l-1.2,2.584,3.21,1.605a1.22,1.22,0,0,1,.594,1.605,1.188,1.188,0,0,1-.69.61,1.156,1.156,0,0,1-.9,0l-7.448-3.531-.722,1.509,7.432,3.515a1.123,1.123,0,0,1,.61.658,1.156,1.156,0,0,1,.032.835Z" transform="translate(-346.446 -216.198)"/><circle class="e" cx="12.44" cy="12.44" r="12.44" transform="matrix(0.799, -0.601, 0.601, 0.799, 1.406, 78.176)"/><path class="n" d="M393.553,282.724a10.193,10.193,0,1,0-18.234,3.323,10.449,10.449,0,1,1,18.234-3.323Z" transform="translate(-364.741 -199.032)"/><path class="d" d="M385.4,279.842l-1.236,2.632a.786.786,0,0,1-.482.417.85.85,0,0,1-.658,0l-2.279-1.156-.883,1.862a.8.8,0,0,1-.482.433.883.883,0,0,1-.642,0,1.011,1.011,0,0,1-.45-.481.851.851,0,0,1,0-.658l.883-1.862-2.3-1.091a.873.873,0,0,1-.433-1.108.787.787,0,0,1,.482-.449.819.819,0,0,1,.642,0l5.377,2.536.514-1.108-5.361-2.52a.8.8,0,0,1-.433-.482.819.819,0,0,1,0-.642l1.236-2.616a.851.851,0,0,1,.482-.433.819.819,0,0,1,.642,0l2.279,1.075.883-1.862a.77.77,0,0,1,.466-.433A.811.811,0,0,1,384.711,273l-.867,1.862,2.327,1.108a.836.836,0,0,1-.064,1.557.787.787,0,0,1-.658,0l-5.377-2.536-.514,1.091,5.361,2.536a.8.8,0,0,1,.433.482.754.754,0,0,1,.048.738Z" transform="translate(-362.769 -197.434)"/></g><g transform="translate(417.201 214.326)"><path class="e" d="M268.937,226.242s-7.159,11.653,2.825,28.347c5.875,9.84,14.446,12.841,19.759,9.727s6.742-12.119.931-22.006C282.532,225.551,268.937,226.242,268.937,226.242Z" transform="translate(-255.96 -110.704)"/><path class="l" d="M268.937,226.242s-7.159,11.653,2.825,28.347c5.875,9.84,14.446,12.841,19.759,9.727s6.742-12.119.931-22.006C282.532,225.551,268.937,226.242,268.937,226.242Z" transform="translate(-255.96 -110.704)"/><path class="e" d="M326.86,207.117s-17.239-3.82-33.387,15.361c-9.535,11.316-9.727,22.986-3.563,28.218s17.657,3.21,27.287-8.122C333.457,223.489,326.86,207.117,326.86,207.117Z" transform="translate(-244.301 -122.462)"/><path class="e" d="M301.422,154.26s-5.441,1.509-7.143,9.358c-1,4.623.706,7.945,3.21,8.507s5.457-1.766,6.421-6.421C305.74,157.9,301.422,154.26,301.422,154.26Z" transform="translate(-239.296 -154.26)"/><path class="e" d="M279.988,327.63a82.761,82.761,0,0,1-3.082-24.077,95.314,95.314,0,0,1,3.451-23.4c1.027-3.74,2.263-7.416,3.644-11q1.043-2.681,2.215-5.3c.369-.883.786-1.734,1.172-2.6l.594-1.252.578-1.22c3.082-6.421,6-12.986,8.652-19.583a197.653,197.653,0,0,0,6.934-20.145,121.218,121.218,0,0,0,4.093-20.867,74.911,74.911,0,0,0-.642-21.172,52.858,52.858,0,0,0-8.026-19.839,54.237,54.237,0,0,1,10.305,19.262,78.65,78.65,0,0,1,3.13,21.958,129.77,129.77,0,0,1-1.83,22.167,207.235,207.235,0,0,1-4.815,21.669c-1.958,7.111-4.221,14.141-6.613,21.075l-.449,1.3-.225.642-.209.626c-.273.819-.562,1.605-.8,2.456-.514,1.605-1,3.21-1.429,4.928a94.7,94.7,0,0,0-2.1,9.952,79.342,79.342,0,0,0-.706,19.743,64.094,64.094,0,0,0,4.494,18.475Z" transform="translate(-249.644 -152.493)"/><path class="m" d="M279.988,327.63a82.761,82.761,0,0,1-3.082-24.077,95.314,95.314,0,0,1,3.451-23.4c1.027-3.74,2.263-7.416,3.644-11q1.043-2.681,2.215-5.3c.369-.883.786-1.734,1.172-2.6l.594-1.252.578-1.22c3.082-6.421,6-12.986,8.652-19.583a197.653,197.653,0,0,0,6.934-20.145,121.218,121.218,0,0,0,4.093-20.867,74.911,74.911,0,0,0-.642-21.172,52.858,52.858,0,0,0-8.026-19.839,54.237,54.237,0,0,1,10.305,19.262,78.65,78.65,0,0,1,3.13,21.958,129.77,129.77,0,0,1-1.83,22.167,207.235,207.235,0,0,1-4.815,21.669c-1.958,7.111-4.221,14.141-6.613,21.075l-.449,1.3-.225.642-.209.626c-.273.819-.562,1.605-.8,2.456-.514,1.605-1,3.21-1.429,4.928a94.7,94.7,0,0,0-2.1,9.952,79.342,79.342,0,0,0-.706,19.743,64.094,64.094,0,0,0,4.494,18.475Z" transform="translate(-249.644 -152.493)"/><path class="e" d="M323.388,251.61l-.546,6.035-3.467,39.262a2.681,2.681,0,0,1-2.665,2.44H272.072a2.681,2.681,0,0,1-2.681-2.44l-3.515-39.262-.546-6.035Z" transform="translate(-256.639 -95.35)"/><rect class="e" width="14.157" height="0.53" transform="translate(64.85 192.178) rotate(-84.89)"/><rect class="e" width="3.339" height="0.53" transform="translate(66.479 173.966) rotate(-84.89)"/><path class="e" d="M288.171,165.39s-5.811,7.721.112,20.112c3.483,7.319,9.262,10.048,13.258,8.154s5.554-8.026,2.119-15.425C297.818,165.807,288.171,165.39,288.171,165.39Z" transform="translate(-244.36 -147.525)"/><path class="m" d="M288.171,165.39s-5.811,7.721.112,20.112c3.483,7.319,9.262,10.048,13.258,8.154s5.554-8.026,2.119-15.425C297.818,165.807,288.171,165.39,288.171,165.39Z" transform="translate(-244.36 -147.525)"/><path class="m" d="M323.388,251.61l-.546,6.035H265.876l-.546-6.035Z" transform="translate(-256.639 -95.35)"/><rect class="e" width="67.48" height="10.482" rx="0.79" transform="translate(3.972 148.796)"/><circle class="e" cx="21.156" cy="21.156" r="21.156" transform="matrix(0.799, -0.601, 0.601, 0.799, 53.36, 46.016)"/><path class="n" d="M335.267,197.45a17.319,17.319,0,1,0-30.979,5.65,17.753,17.753,0,1,1,30.979-5.65Z" transform="translate(-235.324 -142.04)"/><path class="d" d="M321.453,192.531l-2.1,4.478a1.461,1.461,0,0,1-.819.722,1.444,1.444,0,0,1-1.124,0l-3.933-1.862L312,199.08a1.4,1.4,0,0,1-.819.722,1.364,1.364,0,0,1-1.091,0,1.4,1.4,0,0,1-.754-.819,1.3,1.3,0,0,1,0-1.091l1.493-3.21-3.9-1.846a1.429,1.429,0,0,1,.128-2.632,1.3,1.3,0,0,1,1.091,0l9.133,4.318.883-1.862-9.021-4.382a1.348,1.348,0,0,1-.738-.8,1.3,1.3,0,0,1,0-1.091l2.1-4.462a1.381,1.381,0,0,1,.819-.738,1.429,1.429,0,0,1,1.091,0l3.868,1.83,1.493-3.21a1.364,1.364,0,0,1,.786-.738,1.4,1.4,0,0,1,1.156.08,1.332,1.332,0,0,1,.722.8,1.429,1.429,0,0,1,0,1.091l-1.493,3.21,3.965,1.878a1.413,1.413,0,0,1,.754.819,1.364,1.364,0,0,1,0,1.091,1.412,1.412,0,0,1-.819.754,1.509,1.509,0,0,1-1.124,0l-9.133-4.318-.867,1.846,9.1,4.3a1.412,1.412,0,0,1,.754.819,1.364,1.364,0,0,1-.128,1.092Z" transform="translate(-231.96 -139.304)"/><circle class="e" cx="21.156" cy="21.156" r="21.156" transform="matrix(0.799, -0.601, 0.601, 0.799, 0, 73.717)"/><path class="n" d="M302.037,214.684a17.319,17.319,0,1,0-30.979,5.666,17.769,17.769,0,1,1,30.979-5.666Z" transform="translate(-255.449 -131.634)"/><path class="d" d="M288.226,209.8l-2.119,4.478a1.364,1.364,0,0,1-.819.722,1.4,1.4,0,0,1-1.107,0l-3.933-1.846-1.493,3.21a1.413,1.413,0,0,1-1.894.674,1.316,1.316,0,0,1-.755-.819,1.3,1.3,0,0,1,0-1.091l1.493-3.21-3.9-1.846a1.4,1.4,0,0,1-.738-.8,1.429,1.429,0,0,1,0-1.091,1.445,1.445,0,0,1,1.91-.69L284,211.81l.867-1.862-9-4.446a1.4,1.4,0,0,1-.738-.8,1.364,1.364,0,0,1,0-1.092l2.1-4.462a1.413,1.413,0,0,1,1.91-.674l3.868,1.814,1.493-3.21a1.364,1.364,0,0,1,.786-.738,1.412,1.412,0,0,1,1.156,0,1.428,1.428,0,0,1,.722.8,1.364,1.364,0,0,1,0,1.091l-1.477,3.21,3.965,1.878a1.429,1.429,0,0,1,.738.819,1.349,1.349,0,0,1,0,1.091,1.4,1.4,0,0,1-.835.754,1.461,1.461,0,0,1-1.108,0l-9.133-4.318-.867,1.846,9.1,4.3a1.332,1.332,0,0,1,.738.819,1.365,1.365,0,0,1-.064,1.172Z" transform="translate(-252.087 -128.873)"/></g><g transform="translate(285.618 411.79)"><path class="e" d="M189.976,320.3s-5.955,4.815-3.74,15.586c1.3,6.324,5.249,9.535,8.7,8.844s5.843-5.2,4.575-11.541C197.392,322.451,189.976,320.3,189.976,320.3Z" transform="translate(-173.219 -251.247)"/><path class="l" d="M189.976,320.3s-5.955,4.815-3.74,15.586c1.3,6.324,5.249,9.535,8.7,8.844s5.843-5.2,4.575-11.541C197.392,322.451,189.976,320.3,189.976,320.3Z" transform="translate(-173.219 -251.247)"/><path class="e" d="M220.42,306.938s-9.984-2.215-19.262,8.892c-5.506,6.549-5.618,13.291-2.055,16.308s10.193,1.814,15.746-4.687C224.224,316.424,220.42,306.938,220.42,306.938Z" transform="translate(-166.599 -259.442)"/><path class="e" d="M206.523,280.39s-3.323.915-4.366,5.714c-.61,2.841.433,4.815,1.974,5.217s3.339-1.075,3.965-3.9C209.171,282.621,206.523,280.39,206.523,280.39Z" transform="translate(-163.393 -275.398)"/><path class="e" d="M191.5,385.643a52.875,52.875,0,0,1-1.958-15.345,60.387,60.387,0,0,1,2.2-14.88,72.559,72.559,0,0,1,2.311-6.982q.674-1.718,1.4-3.371c.241-.562.514-1.108.754-1.605l.385-.8.369-.771c1.942-4.109,3.8-8.25,5.49-12.456a125.412,125.412,0,0,0,4.414-12.841,77.9,77.9,0,0,0,2.6-13.242,47.255,47.255,0,0,0-.417-13.451,33.612,33.612,0,0,0-5.056-12.616,34.35,34.35,0,0,1,6.549,12.247,49.934,49.934,0,0,1,1.99,13.965,81.313,81.313,0,0,1-1.156,14.093,134.12,134.12,0,0,1-3.1,13.756c-1.252,4.526-2.681,8.989-4.206,13.4l-.289.835-.144.4-.128.4c-.161.514-.353,1.027-.514,1.605-.321,1.043-.626,2.087-.9,3.13a63.454,63.454,0,0,0-1.348,6.324,50.065,50.065,0,0,0-.433,12.552,40.514,40.514,0,0,0,2.857,11.75Z" transform="translate(-170.924 -277.28)"/><path class="m" d="M191.5,385.643a52.875,52.875,0,0,1-1.958-15.345,60.387,60.387,0,0,1,2.2-14.88,72.559,72.559,0,0,1,2.311-6.982q.674-1.718,1.4-3.371c.241-.562.514-1.108.754-1.605l.385-.8.369-.771c1.942-4.109,3.8-8.25,5.49-12.456a125.412,125.412,0,0,0,4.414-12.841,77.9,77.9,0,0,0,2.6-13.242,47.255,47.255,0,0,0-.417-13.451,33.612,33.612,0,0,0-5.056-12.616,34.35,34.35,0,0,1,6.549,12.247,49.934,49.934,0,0,1,1.99,13.965,81.313,81.313,0,0,1-1.156,14.093,134.12,134.12,0,0,1-3.1,13.756c-1.252,4.526-2.681,8.989-4.206,13.4l-.289.835-.144.4-.128.4c-.161.514-.353,1.027-.514,1.605-.321,1.043-.626,2.087-.9,3.13a63.454,63.454,0,0,0-1.348,6.324,50.065,50.065,0,0,0-.433,12.552,40.514,40.514,0,0,0,2.857,11.75Z" transform="translate(-170.924 -277.28)"/><path class="e" d="M227.708,333.19l-.433,4.928-2.873,32.1a2.183,2.183,0,0,1-2.183,1.99H185.83a2.215,2.215,0,0,1-2.183-1.99l-2.857-32.1-.449-4.928Z" transform="translate(-176.488 -243.447)"/><rect class="e" width="11.541" height="0.433" transform="translate(49.672 119.039) rotate(-84.89)"/><rect class="e" width="2.729" height="0.433" transform="translate(51.008 104.179) rotate(-84.89)"/><path class="e" d="M194.238,286.33s-5.136,6.854.112,17.849c3.1,6.421,8.218,8.909,11.75,7.223s4.928-7.159,1.878-13.676C202.81,286.7,194.238,286.33,194.238,286.33Z" transform="translate(-169.439 -271.803)"/><path class="m" d="M194.238,286.33s-5.136,6.854.112,17.849c3.1,6.421,8.218,8.909,11.75,7.223s4.928-7.159,1.878-13.676C202.81,286.7,194.238,286.33,194.238,286.33Z" transform="translate(-169.439 -271.803)"/><path class="m" d="M227.708,333.19l-.433,4.928H180.789l-.449-4.928Z" transform="translate(-176.488 -243.447)"/><rect class="e" width="55.056" height="8.539" rx="0.64" transform="translate(0 83.66)"/><circle class="e" cx="7.737" cy="7.737" r="7.737" transform="translate(40.385 23.628)"/><path class="n" d="M216.539,301.082a6.34,6.34,0,1,0-11.332,2.071,6.421,6.421,0,1,1,11.332-2.071Z" transform="translate(-162.205 -267.824)"/><path class="d" d="M211.526,299.372l-.77,1.605a.583.583,0,0,1-.706.257l-1.445-.674-.546,1.14a.556.556,0,0,1-.69.273.5.5,0,0,1-.289-.3.578.578,0,0,1,0-.4l.578-1.124-1.429-.674a.53.53,0,0,1-.273-.289.5.5,0,0,1,0-.4.556.556,0,0,1,.69-.273L210,300.11l.321-.674-3.339-1.605a.53.53,0,0,1-.273-.289.5.5,0,0,1,0-.4l.77-1.605a.481.481,0,0,1,.289-.273.5.5,0,0,1,.4,0l1.413.658.546-1.156a.562.562,0,0,1,.289-.257.482.482,0,0,1,.417,0,.514.514,0,0,1,.273.3.578.578,0,0,1,0,.4l-.546,1.14,1.445.69a.514.514,0,0,1,.273.3.5.5,0,0,1,0,.4.562.562,0,0,1-.3.273.578.578,0,0,1-.4,0l-3.339-1.605-.321.674,3.323,1.605a.465.465,0,0,1,.273.3A.5.5,0,0,1,211.526,299.372Z" transform="translate(-161.012 -266.884)"/><circle class="e" cx="7.737" cy="7.737" r="7.737" transform="translate(14.944 46.982)"/><path class="n" d="M200.679,315.652a6.34,6.34,0,1,0-11.332,2.071,6.421,6.421,0,1,1,11.332-2.071Z" transform="translate(-171.802 -259.007)"/><path class="d" d="M195.668,313.922l-.77,1.605a.514.514,0,0,1-.305.273.5.5,0,0,1-.4,0l-1.445-.674-.546,1.156a.481.481,0,0,1-.289.273.578.578,0,0,1-.4,0,.53.53,0,0,1-.273-.289.5.5,0,0,1,0-.4l.546-1.172-1.429-.674a.5.5,0,0,1-.257-.289.433.433,0,0,1,0-.4.53.53,0,0,1,.289-.273.579.579,0,0,1,.4,0l3.339,1.605.321-.69-3.323-1.605a.53.53,0,0,1-.273-.289.5.5,0,0,1,0-.4l.77-1.605a.5.5,0,0,1,.3-.257.466.466,0,0,1,.385,0l1.429.674.546-1.156a.449.449,0,0,1,.289-.273.482.482,0,0,1,.417,0,.466.466,0,0,1,.257.289.5.5,0,0,1,0,.4l-.546,1.156,1.461.674a.562.562,0,0,1,.273.3.5.5,0,0,1,0,.4.514.514,0,0,1-.3.273.546.546,0,0,1-.417,0l-3.339-1.605-.3.674,3.323,1.605a.482.482,0,0,1,.273.289A.5.5,0,0,1,195.668,313.922Z" transform="translate(-170.612 -258.079)"/></g><g transform="translate(88.54 143.891)"><path class="o" d="M108.049,158.64c18.074,2.761,54,65.137,46.822,80.434-6.18,13.162-19.262,17.528-36.18-20.193S108.049,158.64,108.049,158.64Z" transform="translate(-23.844 -81.175)"/><g class="j" transform="translate(83.067 77.465)"><path d="M108.049,158.64c18.074,2.761,54,65.137,46.822,80.434-6.18,13.162-19.262,17.528-36.18-20.193S108.049,158.64,108.049,158.64Z" transform="translate(-106.911 -158.64)"/></g><path class="p" d="M112.77,419.87l13.034,1.38,2.44-28.09-13.018-1.38Z" transform="translate(-20.298 59.907)"/><path class="p" d="M72.29,419.71H84.906l1.043-29.23H73.317Z" transform="translate(-44.794 59.121)"/><path class="q" d="M88.377,407.781H73.048a1.091,1.091,0,0,0-1.075.867l-2.488,11.236a1.862,1.862,0,0,0,1.445,2.2,1.72,1.72,0,0,0,.4,0c4.96-.08,8.571-.385,14.8-.385,3.836,0,15.409.4,20.706.4s5.987-5.233,3.82-5.714c-9.727-2.119-17.047-5.056-20.161-7.849A3.034,3.034,0,0,0,88.377,407.781Z" transform="translate(-46.515 69.589)"/><path class="e" d="M81.866,409.905a.305.305,0,0,1-.225-.257.289.289,0,0,1,.144-.289c.449-.289,4.526-2.793,5.923-2.071a.883.883,0,0,1,.514.835,1.718,1.718,0,0,1-.626,1.605,3.788,3.788,0,0,1-2.424.642,15.487,15.487,0,0,1-3.307-.466Zm.867-.417a6.131,6.131,0,0,0,4.494-.225,1.2,1.2,0,0,0,.4-1.075c0-.241-.112-.353-.193-.353a.626.626,0,0,0-.385-.08,12.151,12.151,0,0,0-4.318,1.734Z" transform="translate(-39.137 69.214)"/><path class="e" d="M81.784,411.045a.353.353,0,0,1-.144-.273c0-.177.321-3.8,1.782-4.992a1.605,1.605,0,0,1,1.268-.385.947.947,0,0,1,.963.786c.257,1.332-2.263,4.109-3.563,4.815h-.144a.273.273,0,0,1-.161.048Zm2.039-4.912a7.207,7.207,0,0,0-1.493,3.949c1.3-.979,2.905-3.082,2.745-3.9,0-.08,0-.3-.433-.3H84.5a1.075,1.075,0,0,0-.674.257Z" transform="translate(-39.136 68.138)"/><path class="q" d="M128.877,407.531H113.548a1.092,1.092,0,0,0-1.075.867l-2.488,11.236a1.862,1.862,0,0,0,1.445,2.2,1.72,1.72,0,0,0,.4,0c4.96-.08,8.571-.385,14.8-.385,3.836,0,15.409.4,20.706.4s5.987-5.233,3.82-5.714c-9.727-2.119-17.047-5.056-20.161-7.849A3.034,3.034,0,0,0,128.877,407.531Z" transform="translate(-22.007 69.438)"/><path class="e" d="M122.366,409.655a.3.3,0,0,1-.225-.257.289.289,0,0,1,.144-.289c.449-.289,4.526-2.793,5.923-2.071a.883.883,0,0,1,.514.835,1.717,1.717,0,0,1-.626,1.605,3.788,3.788,0,0,1-2.424.642,15.5,15.5,0,0,1-3.307-.466Zm.867-.417a6.131,6.131,0,0,0,4.494-.225,1.2,1.2,0,0,0,.4-1.075c0-.241-.112-.353-.193-.353a.626.626,0,0,0-.385-.08A12.151,12.151,0,0,0,123.232,409.238Z" transform="translate(-14.629 69.063)"/><path class="e" d="M122.284,410.8a.353.353,0,0,1-.144-.273c0-.177.321-3.8,1.782-4.992a1.606,1.606,0,0,1,1.268-.385.947.947,0,0,1,.963.786c.257,1.332-2.263,4.109-3.563,4.815h-.144a.274.274,0,0,1-.161.048Zm2.022-4.912a7.207,7.207,0,0,0-1.493,3.949c1.3-.979,2.905-3.082,2.745-3.9,0-.08,0-.3-.433-.3h-.144a1.076,1.076,0,0,0-.674.257Z" transform="translate(-14.628 67.987)"/><path class="m" d="M73.136,390.49H85.768l-.546,15.072H72.59Z" transform="translate(-44.613 59.127)"/><path class="o" d="M80.307,230.75h66.966C153.694,265.533,172.7,402.371,158.4,512l-22.665-1.2s2.969-160.867-17.047-214.752c-2.3,28.8-5.04,59.39-7.416,75.747-5.827,40.129-19.133,140.931-19.133,140.931l-22.777-.947s5.249-96.035,7.448-135.538C79.183,333.415,80.211,239.546,80.307,230.75Z" transform="translate(-46.567 -37.538)"/><g class="k" transform="translate(22.793 193.212)"><path d="M80.307,230.75h66.966C153.694,265.533,172.7,402.371,158.4,512l-22.665-1.2s2.969-160.867-17.047-214.752c-2.3,28.8-5.04,59.39-7.416,75.747-5.827,40.129-19.133,140.931-19.133,140.931l-22.777-.947s5.249-96.035,7.448-135.538C79.183,333.415,80.211,239.546,80.307,230.75Z" transform="translate(-69.36 -230.75)"/></g><path class="r" d="M132.209,244.866s-19.727,4.575-33.5,0l1.236-10.706h32.1Z" transform="translate(-28.807 -35.475)"/><path class="s" d="M118.183,246.417a79.455,79.455,0,0,1-12.713.353v-12.6h12.713Z" transform="translate(-24.716 -35.469)"/><path class="m" d="M100.09,280.41a179.455,179.455,0,0,1,7.48,28.973c1.878-25.682-5.618-52.793-5.618-52.793Z" transform="translate(-27.971 -21.901)"/><path class="q" d="M81.68,136.068s.5,12.3,10.08,9.406S90.219,131.751,81.68,136.068Z" transform="translate(-39.112 -95.441)"/><path class="p" d="M108.406,165.19a12.841,12.841,0,0,1-4.4-13.5L86.672,137.71s2.247,17.175-1.942,26.244c0,0,10.449,10.61,18.443,8.186S108.406,165.19,108.406,165.19Z" transform="translate(-37.266 -93.84)"/><path class="m" d="M88.36,142.93l6.87.289,6.581,5.313a13.884,13.884,0,0,0,.08,7.127C91.394,153.957,88.36,142.93,88.36,142.93Z" transform="translate(-35.07 -90.681)"/><path class="e" d="M88.64,164.6l14.446-5.441,12.039.9s12.841,29.053,17.48,59.053a481.215,481.215,0,0,1,4.815,63.018c-.449-.1-17.657,3.676-33.628-1.75,0,0,10.626-44.944,4.815-65.538S88.784,164.6,88.784,164.6" transform="translate(-34.9 -80.86)"/><path class="t" d="M88.64,164.6l14.446-5.441,12.039.9s12.841,29.053,17.48,59.053a481.215,481.215,0,0,1,4.815,63.018c-.449-.1-17.657,3.676-33.628-1.75,0,0,10.626-44.944,4.815-65.538S88.784,164.6,88.784,164.6" transform="translate(-34.9 -80.86)"/><path class="r" d="M105.1,159.547l-.867,7.9s10.658,20.754,14.446,34.639,6.886,55.987,6.886,55.987l-6.661,11.557-6.132-11.477s1.605-33.708-3.307-56.437-7.608-32.937-7.608-32.937l-7.4-5.345,5.024-4.222Z" transform="translate(-31.378 -80.83)"/><path class="g" d="M108.406,155.3l-4.928,4.912L84.73,154.06l13.965,20.674,6.934-11.092,11.268,3.194Z" transform="translate(-37.266 -83.946)"/><path class="o" d="M99.48,154.83s25.795,5.634,31.316,28.893,8.732,124.816,9.535,133-15.345,9.2-15.345,9.2.867-52.536-.465-66.485c-.482-5.04-1.2-22.055-3.5-35.313C116.992,200.689,109.945,170.5,99.48,154.83Z" transform="translate(-28.341 -83.48)"/><path class="o" d="M104.819,156.708c3.515,3.082,11.862,9.631,16.051,16.565l-6.517,3.435,8.909,5.666s-.738,25.024-2.905,38.138c-4.125-22.825-10.931-50.787-20.867-65.682C99.474,154.83,101.609,155.424,104.819,156.708Z" transform="translate(-28.335 -83.48)"/><path class="s" d="M104.819,156.708c3.515,3.082,11.862,9.631,16.051,16.565l-6.517,3.435,8.909,5.666s-.738,25.024-2.905,38.138c-4.125-22.825-10.931-50.787-20.867-65.682C99.474,154.83,101.609,155.424,104.819,156.708Z" transform="translate(-28.335 -83.48)"/><path class="q" d="M113.771,119.58s2.2,12.151-5.185,14.254c0,0-4.96-11.236.128-12.151S113.771,119.58,113.771,119.58Z" transform="translate(-24.141 -104.811)"/><path class="p" d="M121.17,150.565c-1.156,6.677-6.164,20.674-20.337,16.4S86.049,151.528,85.824,148.3s2.761-28.283,11.83-30.674,20.064.562,23.515,5.746S121.17,150.565,121.17,150.565Z" transform="translate(-36.611 -106.502)"/><path class="q" d="M89.751,143.291c-.225.3,8.395,3.21,8.026-16.661,0,0,28.636,5.923,35.7-3.355,8.652-11.348,4.815-13.451-5.827-10.177,0,0-36.693-3.788-41.429,2.279-5.65,7.239-5.57,26.9-5.57,26.9Z" transform="translate(-39.735 -109.582)"/><path class="q" d="M115.035,117.684s15.714-15.425-15.265-1.445Z" transform="translate(-28.165 -110.379)"/><path class="p" d="M93.433,134.966S90.9,128,84.428,128c-5.217,0-5.955,6.421-3.6,11,1.83,3.451,7.769,7.769,11.557,3.21S93.433,134.966,93.433,134.966Z" transform="translate(-40.399 -99.716)"/><path class="q" d="M97.686,132.06a1.605,1.605,0,0,0,.883,2.022c.674.112,1.332-.626,1.509-1.605s-.241-1.91-.883-2.022S97.863,131.048,97.686,132.06Z" transform="translate(-29.484 -98.238)"/><path class="q" d="M104.654,133.269c-.241.979.225,1.894.883,2.006s1.316-.61,1.493-1.605-.225-1.894-.883-2.006S104.815,132.306,104.654,133.269Z" transform="translate(-25.248 -97.506)"/><path class="u" d="M103.043,132.58a36.919,36.919,0,0,0,3.323,9.406,5.859,5.859,0,0,1-4.976,0Z" transform="translate(-27.185 -96.945)"/><path class="q" d="M96.335,128.139a.69.69,0,0,0,.594.225,4.816,4.816,0,0,1,4.157,1.14.594.594,0,1,0,.867-.8h0a5.955,5.955,0,0,0-5.233-1.509.594.594,0,0,0-.5.674h0a1.4,1.4,0,0,0,.112.273Z" transform="translate(-30.316 -100.273)"/><path class="q" d="M102.639,143.256h0a9.181,9.181,0,0,1-7.432-4.093.321.321,0,0,1,.53-.337h0a8.748,8.748,0,0,0,6.918,3.724.305.305,0,0,1,.3.305h0a.321.321,0,0,1-.3.3Z" transform="translate(-30.938 -93.223)"/><path class="q" d="M110.252,129.413a.626.626,0,0,0,.273-.225.578.578,0,0,0-.321-.77h0a5.939,5.939,0,0,0-5.441.417.626.626,0,0,0-.144.835h0a.626.626,0,0,0,.835.144h0a4.815,4.815,0,0,1,4.318-.273.61.61,0,0,0,.482-.128Z" transform="translate(-25.292 -99.748)"/><path class="o" d="M96.173,154.06S78.212,162.6,70.138,167.832s4.591,64.9,4.912,75.442-9.23,82.986-9.23,82.986,27.287,7.111,49.631,1.814c0,0,15.795-60.257,13.852-91.846C127.425,205.826,118.308,175.89,96.173,154.06Z" transform="translate(-48.71 -83.946)"/><path class="o" d="M76.98,244.214s18.379-2.793,29.631-9.214c0,0,0,20.867-3.515,32.44,0,0-17.464,2.44-28.716.61C74.38,268.082,75.086,257.3,76.98,244.214Z" transform="translate(-43.53 -34.966)"/><path class="n" d="M76.332,244.214S94.71,241.421,105.962,235c0,0,0,3.082-.177,7.528-.321,7.127-31.043,14.334-30.321,8.154C75.705,248.644,76.01,246.461,76.332,244.214Z" transform="translate(-42.881 -34.966)"/><path class="o" d="M80.35,158.1c4.077-2.279,7.031-4.045,7.031-4.045,21.413,21.124,30.626,49.759,32.905,79.149-9.294-22.648-30.9-43.339-30.9-43.339l6.661-9.775-12.231-.963A81.766,81.766,0,0,0,80.35,158.1Z" transform="translate(-39.917 -83.946)"/><path class="s" d="M80.35,158.1c4.077-2.279,7.031-4.045,7.031-4.045,21.413,21.124,30.626,49.759,32.905,79.149-9.294-22.648-30.9-43.339-30.9-43.339l6.661-9.775-12.231-.963A81.766,81.766,0,0,0,80.35,158.1Z" transform="translate(-39.917 -83.946)"/><path class="o" d="M119.032,235l9.631,1.605-1.22,7.4S117.957,243.86,119.032,235Z" transform="translate(-16.56 -34.966)"/><path class="n" d="M119.032,235l9.631,1.605-1.22,7.4S117.957,243.86,119.032,235Z" transform="translate(-16.56 -34.966)"/><path class="v" d="M126.98,205.369,108.97,182.8a10.69,10.69,0,0,1-6.661-3.21c-2.713-2.97-5.714-15.441-4.7-16.148s12.841-.77,13.82.69,4.912,14.109,4.912,14.109l19.775,18.106Z" transform="translate(-29.596 -78.562)"/><path class="e" d="M121.158,175.393l-4.334-3.4-12.665,9.679,3.692,5.506Z" transform="translate(-25.509 -73.096)"/><g class="w" transform="translate(78.651 98.894)"><path class="g" d="M121.158,175.393l-4.334-3.4-12.665,9.679,3.692,5.506Z" transform="translate(-104.16 -171.99)"/></g><path class="o" d="M151.731,211.063c-8.828-11.236-30.5-37.753-30.5-37.753L104.7,186.456s23.291,43.965,32.472,51.445C149.227,247.692,164.154,226.841,151.731,211.063Z" transform="translate(-25.182 -72.297)"/><g class="i" transform="translate(79.518 101.013)"><path d="M151.731,211.063c-8.828-11.236-30.5-37.753-30.5-37.753L104.7,186.456s23.291,43.965,32.472,51.445C149.227,247.692,164.154,226.841,151.731,211.063Z" transform="translate(-104.7 -173.31)"/></g><path class="e" d="M118.135,281.087a29.519,29.519,0,1,1,29.5-29.535,28.6,28.6,0,0,1-.5,5.361,29.567,29.567,0,0,1-29,24.173Zm0-52.97a23.467,23.467,0,1,0,4.286.385h0a24.769,24.769,0,0,0-4.35-.385Z" transform="translate(-34.925 -42.803)"/><path class="p" d="M73.32,234.158l24.832,4.559a10.1,10.1,0,0,0,6.613,3.21c4.478.5,10.337-.193,11-1.413.947-1.734,2.761-10.193.787-10.048s-14.9-1.268-14.9-1.268L77.188,218.46Z" transform="translate(-44.171 -44.975)"/><path class="e" d="M90.824,220,97,222.681l-7.368,21.252-8.106-3.724Z" transform="translate(-39.203 -44.043)"/><path class="t" d="M90.824,220,97,222.681l-7.368,21.252-8.106-3.724Z" transform="translate(-39.203 -44.043)"/><path class="o" d="M75.85,163.07s-15.281,23.5-19.92,50.4A45.827,45.827,0,0,0,58.258,238.4c10.8,27.159,42.7,39.856,42.7,39.856l9.936-23.8s-24.43-11.589-28.026-29.214c-.835-4.061-2.231-6.148-.482-11.942C88.21,194,97.295,169.137,75.85,163.07Z" transform="translate(-55.16 -78.494)"/><path class="n" d="M75.85,163.07s-15.281,23.5-19.92,50.4A45.827,45.827,0,0,0,58.258,238.4c10.8,27.159,42.7,39.856,42.7,39.856l9.936-23.8s-24.43-11.589-28.026-29.214c-.835-4.061-2.231-6.148-.482-11.942C88.21,194,97.295,169.137,75.85,163.07Z" transform="translate(-55.16 -78.494)"/><path class="p" d="M96.783,230.709c3.21-.369,10.5-4.976,10.915-7.335.225-1.284-5.249.514-7.079.706-5.088.578-8.86,1.108-10.241,3.307S91.6,231.415,96.783,230.709Z" transform="translate(-34.07 -42.28)"/><path class="e" d="M184.962,269.259l-5.522-11.605a1.624,1.624,0,0,0-3.05.369l-1.605,7.544-15.795,7.945a5.153,5.153,0,0,1-6.934-2.279,5.072,5.072,0,0,1-.465-3.323l3.628-18.331a3.836,3.836,0,0,0-2.488-4.366l-30.273-10.738a3.852,3.852,0,0,0-4.687,1.782L99.745,270.64a3.852,3.852,0,0,0,1.605,5.185c.161,0,.3.144.465.193l44.478,15.875a3.82,3.82,0,0,0,3.788-.658l26.437-22.761,6.212,2.986a1.646,1.646,0,0,0,2.231-2.2Z" transform="translate(-28.445 -35.421)"/><path class="e" d="M235.966,380.812h0a.148.148,0,0,1-.144-.161v-3.612a.153.153,0,1,1,.305,0h0v3.628a.145.145,0,0,1-.144.144Zm.112-7.3a.144.144,0,0,1-.161-.112v-3.724a.161.161,0,0,1,.161-.144h0a.144.144,0,0,1,.144.144v3.74a.145.145,0,0,1-.128.1Zm0-7.335a.193.193,0,0,1-.16-.16v-3.74a.161.161,0,0,1,.161-.145h0a.177.177,0,0,1,.16.144v3.74A.177.177,0,0,1,236.079,366.173Zm0-7.368a.16.16,0,0,1-.161-.144v-3.74a.144.144,0,0,1,.145-.144h0a.144.144,0,0,1,.144.144c0,1.252,0,2.488,0,3.676a.144.144,0,0,1-.161.161h0Zm-.144-7.352a.144.144,0,0,1-.144-.144c0-1.252,0-2.5-.1-3.74a.128.128,0,0,1,.128-.161h0a.177.177,0,0,1,.161.144c0,1.252,0,2.488.1,3.74a.144.144,0,0,1-.16.144Zm-.225-7.352a.177.177,0,0,1-.16-.144c0-1.252-.08-2.488-.144-3.676a.128.128,0,0,1,.128-.161h0a.161.161,0,0,1,.161.144l.161,3.676a.161.161,0,0,1-.144.177Zm-.337-7.352a.16.16,0,0,1-.144-.144c0-1.236-.128-2.488-.193-3.676a.112.112,0,0,1,.1-.144h0a.144.144,0,0,1,.144.144c0,1.236.144,2.488.209,3.676a.144.144,0,0,1-.112.16Zm-.433-7.336a.144.144,0,0,1-.144-.144l-.257-3.676a.128.128,0,0,1,.128-.161h0a.144.144,0,0,1,.177.112h0l.257,3.676a.177.177,0,0,1-.144.176Zm-.546-7.352a.144.144,0,0,1-.144-.144c-.1-1.252-.209-2.488-.321-3.66a.144.144,0,0,1,.112-.177h0a.16.16,0,0,1,.161.145c.112,1.236.225,2.488.321,3.66,0,.08,0,.161-.1.161h0Zm-.674-7.336a.144.144,0,0,1-.161-.128c-.128-1.252-.241-2.488-.385-3.644a.16.16,0,0,1,.128-.176h0a.128.128,0,0,1,.16.128c.128,1.252.273,2.488.4,3.66a.144.144,0,0,1-.144.161h0Zm-.819-7.287a.128.128,0,0,1-.144-.128c-.161-1.236-.321-2.488-.482-3.644a.177.177,0,0,1,.209-.112.193.193,0,0,1,.112.112c.16,1.236.3,2.424.449,3.644a.128.128,0,0,1-.1.161h0Zm-.963-7.287a.145.145,0,0,1-.161-.112h0c-.177-1.236-.369-2.488-.562-3.628a.16.16,0,0,1,.128-.176h0a.161.161,0,0,1,.177.128h0c.193,1.236.385,2.408.562,3.628a.16.16,0,0,1-.128.176h0Zm-1.172-7.271a.144.144,0,0,1-.144-.128c-.209-1.236-.433-2.488-.658-3.6a.16.16,0,0,1,.128-.193.184.184,0,0,1,.177.128c.225,1.236.433,2.408.658,3.612a.16.16,0,0,1-.128.177h0Zm-1.364-7.223a.145.145,0,0,1-.144-.112c-.257-1.252-.514-2.424-.77-3.6a.144.144,0,1,1,.289,0c.273,1.172.53,2.376.77,3.6a.128.128,0,0,1-.1.177h0ZM227.8,278.5a.144.144,0,0,1-.144-.128c-.3-1.252-.61-2.408-.915-3.547a.177.177,0,0,1,.1-.209.144.144,0,0,1,.177.08h0c.3,1.156.626,2.376.915,3.563a.177.177,0,0,1-.112.193Zm-1.91-7.111a.161.161,0,0,1-.144-.112c-.353-1.188-.706-2.376-1.075-3.515a.144.144,0,0,1,.1-.193h0a.144.144,0,0,1,.193.1h0c.369,1.124.722,2.327,1.091,3.5a.177.177,0,0,1-.112.209Zm-2.263-7a.16.16,0,0,1-.144-.1c-.417-1.172-.851-2.327-1.252-3.451a.128.128,0,0,1,0-.177h0a.16.16,0,0,1,.193.1c.433,1.108.867,2.263,1.252,3.435a.177.177,0,0,1-.112.209Zm-72.905-4.976h0a.16.16,0,0,1,0-.225c.61-.979,1.316-2.006,2.055-3.05a.144.144,0,0,1,.209,0h0a.161.161,0,0,1,0,.209h0c-.738,1.027-1.429,2.055-2.039,3.034a.177.177,0,0,1-.144,0Zm70.193-1.894a.161.161,0,0,1-.128-.1c-.5-1.14-1.043-2.263-1.605-3.323a.144.144,0,0,1,0-.193h0a.176.176,0,0,1,.209,0c.53,1.059,1.059,2.183,1.605,3.339a.145.145,0,0,1-.08.193ZM155.1,253.444h0a.16.16,0,0,1,0-.225c.754-.947,1.605-1.91,2.36-2.809a.161.161,0,0,1,.225,0,.144.144,0,0,1,0,.209h0c-.8.915-1.605,1.846-2.36,2.809a.16.16,0,0,1-.289.016Zm62.6-2.488a.177.177,0,0,1-.144-.08c-.61-1.091-1.236-2.135-1.894-3.13a.148.148,0,1,1,.209-.209c.642,1,1.236,2.055,1.91,3.21a.144.144,0,0,1,0,.209Zm-57.785-3.034a.1.1,0,0,1-.1,0,.144.144,0,0,1,0-.193h0c.867-.883,1.75-1.734,2.648-2.568a.145.145,0,0,1,.209,0h0a.161.161,0,0,1,0,.225c-.883.819-1.766,1.605-2.632,2.552a.128.128,0,0,1-.161,0h0Zm53.772-3.114a.145.145,0,0,1-.112,0c-.77-1-1.605-1.942-2.344-2.809a.161.161,0,0,1,0-.225.144.144,0,0,1,.209,0h0a34.874,34.874,0,0,1,2.36,2.825.145.145,0,0,1,0,.209h0a.112.112,0,0,1-.161.08Zm-48.379-1.814H165.2a.145.145,0,0,1,0-.209h0c.963-.787,1.942-1.605,2.921-2.263a.145.145,0,0,1,.209,0h0a.161.161,0,0,1,0,.209h0c-.979.706-1.958,1.477-2.905,2.263a.144.144,0,0,1-.177,0Zm43.339-3.5h-.1a29.493,29.493,0,0,0-2.873-2.247.144.144,0,0,1,0-.209h0a.161.161,0,0,1,.209,0,28.007,28.007,0,0,1,2.889,2.263.144.144,0,0,1,0,.209h0a.128.128,0,0,1-.193,0h0Zm-37.5-.787a.192.192,0,0,1-.128,0,.16.16,0,0,1,0-.209c1.059-.674,2.135-1.252,3.21-1.862a.177.177,0,0,1,.241.241h-.08c-1.059.562-2.135,1.172-3.21,1.83Zm31.413-3.21h0l-.61-.273a29.427,29.427,0,0,0-2.777-1.108.144.144,0,0,1-.1-.193h0a.144.144,0,0,1,.177-.112h0a30,30,0,0,1,2.809,1.108l.61.289a.177.177,0,0,1,0,.209.16.16,0,0,1-.16,0Zm-24.912-.161a.128.128,0,0,1-.144-.08.161.161,0,0,1,0-.193,34.4,34.4,0,0,1,3.467-1.252.128.128,0,0,1,.177.08h0a.176.176,0,0,1-.1.193h0c-1.14.353-2.3.787-3.451,1.236Zm7.014-2.167a.144.144,0,0,1,0-.289,27.83,27.83,0,0,1,3.66-.482.144.144,0,0,1,.161.128h0a.177.177,0,0,1-.144.161,30.5,30.5,0,0,0-3.612.465Zm10.947,0h0a30.715,30.715,0,0,0-3.628-.465.144.144,0,0,1-.144-.144h0a.144.144,0,0,1,.161-.144,28.2,28.2,0,0,1,3.66.482.145.145,0,0,1,.128.161h0a.144.144,0,0,1-.193.1h0Z" transform="translate(2.637 -36.54)"/><path class="e" d="M230.292,378.758h0a.161.161,0,0,1-.144-.161h0c0-1.236.1-2.424.144-3.676a.128.128,0,0,1,.128-.144h0a.144.144,0,0,1,.144.144h0a34.552,34.552,0,0,1-.128,3.676.145.145,0,0,1-.144.144Zm.241-7.336h0a.177.177,0,0,1-.144-.161v-3.676c0-.1.08-.144.177-.161a.177.177,0,0,1,.144.161c0,1.252,0,2.5-.1,3.676a.177.177,0,0,1-.161.16Zm.161-7.368h0s-.128,0-.144-.112v-3.708a.144.144,0,0,1,.144-.144h0a.161.161,0,0,1,.161.144v3.676A.16.16,0,0,1,230.693,364.055Zm0-7.335h0a.161.161,0,0,1-.144-.161v-3.724a.176.176,0,0,1,.144-.161h0a.161.161,0,0,1,.161.161h0v3.676a.16.16,0,0,1-.144.161Zm0-7.352a.177.177,0,0,1-.161-.161h0v-3.676a.144.144,0,0,1,.161-.144h0a.144.144,0,0,1,.144.144v3.676a.177.177,0,0,1-.144.16Zm-.112-7.352a.209.209,0,0,1-.16-.161c0-1.236,0-2.488-.1-3.676a.161.161,0,0,1,.112-.193.144.144,0,0,1,.193.112v.08c0,1.252,0,2.5.1,3.676A.16.16,0,0,1,230.581,342.016Zm-.225-7.368a.161.161,0,0,1-.16-.128c0-1.252-.08-2.5-.144-3.74a.144.144,0,0,1,.128-.161h0a.128.128,0,0,1,.16.128h0l.161,3.74a.144.144,0,0,1-.161.144Zm-.337-7.336a.161.161,0,0,1-.144-.161c0-1.236-.128-2.488-.209-3.676a.161.161,0,0,1,.128-.161h0a.177.177,0,0,1,.161.144c0,1.236.128,2.488.209,3.74a.177.177,0,0,1-.144.161h0Zm-.433-7.368a.16.16,0,0,1-.161-.128l-.257-3.676a.128.128,0,0,1,.161-.112.161.161,0,0,1,.161.144c.1,1.252.193,2.488.273,3.66a.128.128,0,0,1-.128.16h0Zm-.578-7.319a.144.144,0,0,1-.144-.144l-.337-3.66a.144.144,0,0,1,.128-.161h0a.16.16,0,0,1,.161.112h0c.128,1.236.241,2.488.353,3.644a.177.177,0,0,1-.144.177Zm-.706-7.3a.161.161,0,0,1-.161-.144c-.128-1.22-.273-2.44-.417-3.66a.144.144,0,0,1,.128-.161.128.128,0,0,1,.16.128h0c.144,1.236.273,2.424.417,3.644a.16.16,0,0,1-.128.177ZM227.419,298a.145.145,0,0,1-.161-.112h0c-.161-1.252-.337-2.488-.514-3.66a.145.145,0,0,1,.128-.161h0a.144.144,0,0,1,.177.112h0c.177,1.252.353,2.424.514,3.644a.144.144,0,0,1-.128.161Zm-1.075-7.271a.128.128,0,0,1-.144-.128c-.209-1.252-.417-2.488-.626-3.628a.144.144,0,0,1,.112-.176h0a.144.144,0,0,1,.161.128h0c.225,1.252.433,2.408.626,3.628a.144.144,0,0,1-.112.177h0Zm-1.252-7.239a.144.144,0,0,1-.144-.128c-.241-1.236-.482-2.488-.738-3.6a.128.128,0,0,1,.1-.161h0a.177.177,0,0,1,.193.112h0c.241,1.172.5,2.392.738,3.612a.16.16,0,0,1-.112.177Zm-1.605-7.191s-.128,0-.144-.112c-.3-1.252-.594-2.424-.9-3.563a.161.161,0,0,1,.3,0c.289,1.156.594,2.359.883,3.579a.144.144,0,0,1-.112.176h0Zm-1.878-7.111a.177.177,0,0,1-.144-.1c-.337-1.252-.706-2.392-1.075-3.515a.155.155,0,1,1,.289-.112h0c.353,1.14.722,2.327,1.059,3.515a.145.145,0,0,1-.1.193h0Zm-2.311-7a.161.161,0,0,1-.128-.1c-.417-1.172-.867-2.327-1.316-3.435a.161.161,0,0,1,.08-.193.176.176,0,0,1,.209,0c.433,1.108.883,2.263,1.316,3.435a.177.177,0,0,1-.1.209Zm-68.01-1.91h0a.144.144,0,0,1,0-.209c.626-.979,1.332-2.006,2.1-3.018a.148.148,0,1,1,.209.209h0c-.754,1.027-1.445,2.055-2.1,3.018a.112.112,0,0,1-.177,0Zm65.377-4.9a.177.177,0,0,1-.144,0c-.53-1.14-1.075-2.247-1.605-3.29a.161.161,0,0,1,0-.209.128.128,0,0,1,.193,0c.562,1.043,1.108,2.167,1.605,3.291a.177.177,0,0,1-.08.225Zm-60.883-1.027h-.112a.16.16,0,0,1,0-.209h0c.77-.947,1.605-1.894,2.392-2.809a.144.144,0,0,1,.209,0h0a.144.144,0,0,1,0,.209h0c-.819.915-1.605,1.862-2.392,2.793a.144.144,0,0,1-.144,0Zm57.432-5.457h-.128c-.658-1.059-1.348-2.087-2.039-3.05a.148.148,0,1,1,.209-.209h0c.722.947,1.4,1.974,2.071,3.05a.161.161,0,0,1,0,.209.1.1,0,0,1-.112,0Zm-52.552,0h-.1a.16.16,0,0,1,0-.209h0c.867-.883,1.766-1.75,2.648-2.568a.193.193,0,0,1,.225,0h0a.161.161,0,0,1,0,.209h0c-.883.835-1.782,1.605-2.648,2.552a.161.161,0,0,1-.144,0Zm5.441-4.976h-.112a.144.144,0,0,1,0-.209h0a33.068,33.068,0,0,1,2.921-2.247.161.161,0,0,1,.225.225c-.979.69-1.958,1.445-2.921,2.231a.128.128,0,0,1-.144,0Zm42.745-.9a.128.128,0,0,1-.112,0,32.522,32.522,0,0,0-2.6-2.552.16.16,0,0,1,0-.225h0a.193.193,0,0,1,.225,0,33.325,33.325,0,0,1,2.616,2.6.161.161,0,0,1,0,.225h-.08Zm-36.726-3.371a.193.193,0,0,1-.144-.08.161.161,0,0,1,0-.209c1.075-.658,2.167-1.236,3.21-1.8a.144.144,0,0,1,.193,0h0a.176.176,0,0,1,0,.209c-1.059.53-2.135,1.14-3.21,1.8Zm31.124-1.429h0a20.869,20.869,0,0,0-2.745-1.509l-.466-.209a.177.177,0,0,1,0-.209h0a.144.144,0,0,1,.193,0h0l.465.193a26.109,26.109,0,0,1,2.793,1.605.193.193,0,0,1,0,.225Zm-24.623-1.878a.152.152,0,0,1,0-.289,33.062,33.062,0,0,1,3.5-1.156.161.161,0,0,1,.193.112.145.145,0,0,1-.112.177h0a32.769,32.769,0,0,0-3.483,1.156Zm17.994-1.108h0a26.327,26.327,0,0,0-3.547-.77.161.161,0,0,1-.144-.161h0a.144.144,0,0,1,.177-.112h0a23.345,23.345,0,0,1,3.612.77.144.144,0,0,1,.112.177.177.177,0,0,1-.209.112Zm-10.915-.77a.177.177,0,0,1-.144-.128.144.144,0,0,1,.112-.177h0a29.039,29.039,0,0,1,3.724-.257h0a.144.144,0,0,1,.161.144h0a.144.144,0,0,1-.128.144h0a27.555,27.555,0,0,0-3.628.257Z" transform="translate(2.983 -35.626)"/><path class="e" d="M224.278,383.1h0a.161.161,0,0,1-.144-.161c.08-.979.144-1.974.209-2.986a.161.161,0,1,1,.321,0h0c-.08,1.027-.144,2.022-.225,2.986A.161.161,0,0,1,224.278,383.1Zm.449-6.645h0a.144.144,0,0,1-.144-.144h0c.08-1.252.144-2.424.209-3.676a.16.16,0,0,1,.161-.144h0a.16.16,0,0,1,.144.161h0c0,1.252-.128,2.5-.209,3.66a.16.16,0,0,1-.193.144Zm.385-7.352h0a.144.144,0,0,1-.128-.128h0c0-1.252.1-2.488.144-3.676a.144.144,0,0,1,.144-.144h0a.16.16,0,0,1,.161.144h0c0,1.236-.112,2.488-.161,3.676a.176.176,0,0,1-.193.128Zm.289-7.336h0a.16.16,0,0,1-.144-.161c0-1.236,0-2.488.1-3.676a.176.176,0,0,1,.161-.144.144.144,0,0,1,.144.144c0,1.252,0,2.5-.112,3.74a.144.144,0,0,1-.177.1Zm.193-7.352a.177.177,0,0,1-.161-.144v-3.74a.177.177,0,0,1,.161-.144h0a.161.161,0,0,1,.161.161h0v3.676a.129.129,0,0,1-.1.177Zm.1-7.352h0a.144.144,0,0,1-.144-.144h0v-3.676a.144.144,0,1,1,.289,0v3.772a.16.16,0,0,1-.144.1Zm0-7.352a.144.144,0,0,1-.144-.144V335.89a.16.16,0,0,1,.144-.161h0a.144.144,0,0,1,.144.161v3.676a.144.144,0,0,1-.177.144Zm-.112-7.352a.144.144,0,0,1-.144-.144c0-1.252,0-2.488-.112-3.676a.177.177,0,0,1,.144-.161h0a.144.144,0,0,1,.144.144c0,1.252,0,2.488.1,3.676a.145.145,0,0,1-.16.161h0Zm-.209-7.352a.16.16,0,0,1-.161-.144c0-1.252-.112-2.5-.161-3.74a.161.161,0,0,1,.161-.161.144.144,0,0,1,.144.144c0,1.252.112,2.488.161,3.74a.177.177,0,0,1-.177.16Zm-.353-7.368a.144.144,0,0,1-.144-.144c0-1.236-.144-2.488-.225-3.74a.158.158,0,1,1,.3-.08h0c0,1.252.144,2.5.209,3.676a.128.128,0,0,1-.128.161h0Zm-.465-7.319a.16.16,0,0,1-.161-.161c-.08-1.236-.177-2.488-.289-3.644a.16.16,0,0,1,.112-.161h0a.128.128,0,0,1,.161.128h0c.1,1.252.193,2.44.289,3.66a.128.128,0,0,1-.128.16ZM223.925,303a.193.193,0,0,1-.161-.144c-.112-1.22-.241-2.44-.369-3.66a.128.128,0,0,1,.112-.161h0a.112.112,0,0,1,.144.08h0c.128,1.236.257,2.488.369,3.724a.128.128,0,0,1-.128.161h0Zm-.787-7.319a.161.161,0,0,1-.161-.128c-.144-1.252-.3-2.488-.465-3.66a.144.144,0,0,1,.144-.144.16.16,0,0,1,.161.145h0c.161,1.252.321,2.5.465,3.66a.128.128,0,0,1-.112.161h0Zm-1-7.287a.144.144,0,0,1-.144-.128c-.193-1.252-.4-2.488-.578-3.644a.128.128,0,0,1,.112-.16h0a.145.145,0,0,1,.161.112c.209,1.188.4,2.408.578,3.644a.144.144,0,0,1-.112.177h0Zm-1.252-7.255a.144.144,0,0,1-.144-.128c-.225-1.236-.466-2.424-.706-3.6a.145.145,0,0,1,.112-.177.128.128,0,0,1,.177.1h0c.257,1.172.5,2.392.722,3.612a.144.144,0,0,1-.112.177h0Zm-1.461-7.207a.16.16,0,0,1-.161-.128c-.273-1.236-.578-2.408-.883-3.547a.16.16,0,0,1,.112-.193.128.128,0,0,1,.177.08h0c.3,1.156.594,2.36.883,3.6a.128.128,0,0,1-.112.16h0Zm-1.894-7.175a.161.161,0,0,1-.144-.112c-.353-1.188-.706-2.36-1.091-3.5a.177.177,0,0,1,.112-.193h0a.161.161,0,0,1,.193.1c.353,1.124.738,2.311,1.075,3.515a.128.128,0,0,1,0,.177h0Zm-65.49-5.746h-.08a.144.144,0,0,1,0-.209c.674-.979,1.4-1.99,2.167-2.986a.144.144,0,0,1,.209,0h0a.144.144,0,0,1,0,.209h0c-.754,1-1.477,1.99-2.151,2.969a.161.161,0,0,1-.144,0Zm63.242-1.188a.144.144,0,0,1-.145-.1c-.433-1.188-.9-2.327-1.348-3.4a.144.144,0,0,1,0-.209h0a.145.145,0,0,1,.193,0h0c.465,1.075.915,2.215,1.364,3.4a.177.177,0,0,1-.08.209Zm-58.8-4.671h-.1a.161.161,0,0,1,0-.225c.786-.947,1.605-1.894,2.408-2.793a.145.145,0,0,1,.209,0h0a.144.144,0,0,1,0,.193h0c-.8.9-1.605,1.83-2.392,2.777a.128.128,0,0,1-.128,0Zm55.907-2.087a.128.128,0,0,1-.144,0c-.562-1.14-1.14-2.231-1.734-3.21a.193.193,0,0,1,0-.225.161.161,0,0,1,.209,0q.954,1.561,1.75,3.21a.145.145,0,0,1,0,.193h0Zm-50.979-3.371h-.1a.193.193,0,0,1,0-.225c.883-.883,1.782-1.734,2.665-2.488a.16.16,0,0,1,.225,0,.144.144,0,0,1,0,.209h0c-.883.8-1.782,1.605-2.648,2.488a.241.241,0,0,1-.144,0Zm47.239-2.937a.16.16,0,0,1-.128,0,35.309,35.309,0,0,0-2.263-2.857.144.144,0,0,1,0-.209h0a.161.161,0,0,1,.225,0,36.223,36.223,0,0,1,2.279,2.889.145.145,0,0,1,0,.209h0a.128.128,0,0,1-.112,0Zm-41.734-1.99a.193.193,0,0,1-.128,0,.161.161,0,0,1,0-.209h0a32.019,32.019,0,0,1,2.937-2.215.145.145,0,0,1,.209,0h0a.145.145,0,0,1,0,.209h0c-.963.69-1.942,1.429-2.921,2.2a.144.144,0,0,1-.1.1Zm36.918-3.467a.1.1,0,0,1-.1,0,21.107,21.107,0,0,0-2.953-2.119.193.193,0,0,1,0-.225.177.177,0,0,1,.209,0h0a22.137,22.137,0,0,1,2.986,2.167.145.145,0,0,1,0,.209h0a.161.161,0,0,1-.144,0Zm-30.931-.738a.128.128,0,0,1-.128-.08.144.144,0,0,1,0-.209h0a32.1,32.1,0,0,1,3.21-1.734.144.144,0,0,1,.193.08h0a.112.112,0,0,1,0,.177h0c-1.075.514-2.151,1.091-3.21,1.717Zm24.623-3h0a26.468,26.468,0,0,0-3.483-1.075.177.177,0,0,1-.273-.225.161.161,0,0,1,.177-.128,27.284,27.284,0,0,1,3.531,1.107.161.161,0,0,1,0,.193.128.128,0,0,1-.128.1Zm-17.978-.128a.144.144,0,0,1-.144-.1.177.177,0,0,1,.1-.209,29.781,29.781,0,0,1,3.547-1,.144.144,0,0,1,.177.112h0a.161.161,0,0,1-.112.193,29.271,29.271,0,0,0-3.515,1Zm10.835-1.509h0a23.021,23.021,0,0,0-3.644,0c-.08,0-.161,0-.177-.128a.144.144,0,0,1,.144-.16h0a28.893,28.893,0,0,1,3.724,0,.209.209,0,0,1,.16.177.177.177,0,0,1-.177.144Z" transform="translate(3.394 -34.62)"/><path class="e" d="M218.64,381.372h0a.126.126,0,0,1-.128-.128h0q.177-1.782.337-3.66a.128.128,0,0,1,.161-.128h0a.128.128,0,0,1,.128.161h0c-.112,1.236-.225,2.488-.337,3.66a.144.144,0,0,1-.144.144Zm.658-7.319h0a.161.161,0,0,1-.144-.161h0c.1-1.236.193-2.408.289-3.66,0-.08.1-.128.161-.144a.193.193,0,0,1,.144.177c-.1,1.236-.193,2.488-.273,3.66a.161.161,0,0,1-.161.128Zm.53-7.319h0c-.08,0-.128,0-.144-.144,0-1.236.144-2.424.209-3.66a.177.177,0,0,1,.161-.144.161.161,0,0,1,.144.161c0,1.252-.144,2.488-.225,3.676a.16.16,0,0,1-.1.144Zm.417-7.336h0a.16.16,0,0,1-.161-.161h0c0-1.252.128-2.5.177-3.74,0-.1,0-.144.161-.144s.144,0,.144.161h0c0,1.236-.1,2.488-.161,3.66a.16.16,0,0,1-.112.209h0Zm.321-7.352h0a.144.144,0,0,1-.144-.144h0c0-1.252,0-2.488.112-3.676a.177.177,0,0,1,.161-.144h0a.128.128,0,0,1,.128.161h0c0,1.236,0,2.488-.112,3.676a.144.144,0,0,1-.128.144Zm.209-7.352h0a.144.144,0,0,1-.144-.16v-3.66a.161.161,0,0,1,.161-.161h0a.144.144,0,0,1,.145.16V344.6a.144.144,0,0,1-.193.1Zm.1-7.352h0a.144.144,0,0,1-.144-.144v-3.66a.144.144,0,0,1,.144-.144h0a.144.144,0,0,1,.144.144v3.676a.128.128,0,0,1-.128.144Zm0-7.352a.177.177,0,0,1-.161-.144v-3.74a.177.177,0,0,1,.144-.161h0a.193.193,0,0,1,.161.161v3.724a.144.144,0,0,1-.144.176Zm-.112-7.368a.145.145,0,0,1-.161-.144c0-1.252,0-2.488-.1-3.676a.144.144,0,0,1,.144-.161h0a.16.16,0,0,1,.161.144c0,1.252,0,2.488.112,3.676a.161.161,0,0,1-.144.161Zm-.241-7.352a.144.144,0,0,1-.144-.144c0-1.236-.112-2.488-.177-3.724,0-.08,0-.161.112-.161h0a.16.16,0,0,1,.161.144h0c0,1.236.128,2.488.177,3.724a.144.144,0,0,1-.144.161Zm-.369-7.336a.176.176,0,0,1-.161-.144c0-1.236-.144-2.488-.241-3.66a.176.176,0,0,1,.144-.177.16.16,0,0,1,.161.144h0c.1,1.236.177,2.488.257,3.66a.177.177,0,0,1-.144.161Zm-.53-7.335a.144.144,0,0,1-.144-.128c-.112-1.252-.225-2.5-.337-3.66a.161.161,0,0,1,.128-.177.177.177,0,0,1,.177.144c.112,1.252.225,2.488.321,3.66a.128.128,0,0,1-.112.161h0Zm-.706-7.319a.177.177,0,0,1-.161-.144c-.128-1.236-.273-2.488-.417-3.644a.144.144,0,0,1,.144-.144.161.161,0,0,1,.161.144h0c.144,1.252.289,2.424.417,3.66a.128.128,0,0,1-.128.161Zm-.915-7.3s-.128,0-.144-.112c-.177-1.252-.369-2.488-.546-3.644a.144.144,0,0,1,.112-.177h0a.144.144,0,0,1,.177.128h0c.209,1.252.385,2.424.546,3.644a.128.128,0,0,1-.112.161h0Zm-1.156-7.255a.128.128,0,0,1-.144-.112c-.225-1.252-.449-2.5-.706-3.612a.168.168,0,1,1,.321-.1v.1c.225,1.156.449,2.376.674,3.612a.145.145,0,0,1-.112.177Zm-1.477-7.207a.144.144,0,0,1-.144-.128c-.273-1.236-.578-2.392-.867-3.547a.161.161,0,0,1,.112-.193.128.128,0,0,1,.177,0h0c.3,1.156.61,2.36.883,3.579a.16.16,0,0,1-.112.177h0Zm-1.846-7.127a.128.128,0,0,1-.144-.1c-.353-1.236-.722-2.376-1.108-3.5a.152.152,0,1,1,.289-.1c.369,1.124.754,2.311,1.108,3.515a.128.128,0,0,1-.1.177h0Zm-60.851-2.632h-.1a.176.176,0,0,1,0-.209c.754-1.027,1.493-1.974,2.231-2.937a.145.145,0,0,1,.209,0h0a.145.145,0,0,1,0,.209h0c-.738.931-1.461,1.894-2.215,2.921Zm58.507-4.35a.161.161,0,0,1-.144-.112q-.69-1.766-1.445-3.371a.161.161,0,0,1,.128-.177.193.193,0,0,1,.16,0c.5,1.075.979,2.215,1.445,3.387a.193.193,0,0,1-.1.209Zm-54-1.445h-.1a.193.193,0,0,1,0-.225c.8-.947,1.605-1.878,2.424-2.761a.144.144,0,0,1,.209,0,.161.161,0,0,1,0,.225h0c-.8.883-1.605,1.814-2.408,2.761A.144.144,0,0,1,157.18,255.962Zm50.883-5.217a.224.224,0,0,1-.128,0,34.23,34.23,0,0,0-1.926-3.114.177.177,0,0,1,0-.209h0a.161.161,0,0,1,.225,0,29.767,29.767,0,0,1,1.926,3.21.161.161,0,0,1,0,.209.112.112,0,0,1,0,.112Zm-45.907-.193a.128.128,0,0,1-.112,0,.16.16,0,0,1,0-.225c.883-.883,1.782-1.734,2.665-2.488a.193.193,0,0,1,.225,0,.177.177,0,0,1,0,.209h0c-.9.8-1.782,1.605-2.665,2.488Zm5.457-4.976h-.128a.193.193,0,0,1,0-.225,34.39,34.39,0,0,1,2.97-2.2.148.148,0,1,1,.209.209h0c-.979.674-1.974,1.4-2.953,2.183Zm36.292-.9a.144.144,0,0,1-.112,0,22.474,22.474,0,0,0-2.616-2.488.16.16,0,0,1,0-.209h0a.161.161,0,0,1,.225,0,22.22,22.22,0,0,1,2.648,2.568.161.161,0,0,1,0,.209h0a.128.128,0,0,1-.144,0Zm-30.225-3.21a.193.193,0,0,1-.128,0,.161.161,0,0,1,0-.225h0a35.33,35.33,0,0,1,3.307-1.605.116.116,0,1,1,.112.193h0c-1.075.5-2.183,1.043-3.21,1.605Zm24.543-1.348h0c-.241-.144-.5-.257-.722-.369a26.5,26.5,0,0,0-2.632-1.059.144.144,0,0,1-.112-.177h0a.144.144,0,0,1,.193-.1h0a26.783,26.783,0,0,1,2.648,1.059l.754.385a.177.177,0,0,1,0,.209.144.144,0,0,1-.128.144h0Zm-17.833-1.605a.153.153,0,0,1,0-.3h0a25.474,25.474,0,0,1,3.612-.8.145.145,0,0,1,.161.128.128.128,0,0,1-.112.16h0a24.823,24.823,0,0,0-3.563.8Zm10.9-.754h0a21.173,21.173,0,0,0-3.628-.321.161.161,0,0,1-.161-.144h0a.161.161,0,0,1,.161-.145h0a22.3,22.3,0,0,1,3.724.321.161.161,0,0,1,.128.177h0a.177.177,0,0,1-.273.209h0Z" transform="translate(3.767 -33.665)"/><path class="e" d="M212.484,385.292h0a.128.128,0,0,1-.128-.161h0c.128-.915.273-1.862.4-2.841a.128.128,0,0,1,.161-.128h0a.144.144,0,0,1,.112.177h0c-.112.979-.257,1.926-.385,2.841a.161.161,0,0,1-.161.112Zm.867-6.5h0a.161.161,0,0,1-.144-.161h0c.144-1.172.289-2.408.433-3.66a.144.144,0,0,1,.161-.128.128.128,0,0,1,.128.161h0c-.128,1.268-.257,2.488-.4,3.676a.16.16,0,0,1-.177.112Zm.8-7.3h0a.144.144,0,0,1-.144-.161h0c.128-1.252.241-2.424.353-3.66a.161.161,0,0,1,.161-.144h0a.144.144,0,0,1,.128.144h0c-.112,1.252-.225,2.5-.337,3.66a.144.144,0,0,1-.1.177h0Zm.658-7.319h0a.161.161,0,0,1-.144-.161h0c.1-1.252.209-2.424.289-3.676a.161.161,0,0,1,.3,0h0l-.289,3.724a.144.144,0,0,1-.161.112Zm.546-7.336h0a.144.144,0,0,1-.144-.128h0c0-1.252.161-2.424.225-3.676a.145.145,0,0,1,.161-.128h0a.161.161,0,0,1,.161.144h0c0,1.236-.161,2.488-.241,3.676a.16.16,0,0,1-.16.128Zm.433-7.335h0a.177.177,0,0,1-.145-.161l.177-3.676a.153.153,0,0,1,.3,0h0c0,1.252-.112,2.488-.177,3.676a.161.161,0,0,1-.177.145h0Zm.321-7.336h0a.144.144,0,0,1-.128-.16h0c0-1.236.08-2.488.112-3.66a.177.177,0,0,1,.161-.161.144.144,0,0,1,.144.161h0a36.239,36.239,0,0,1-.128,3.74.177.177,0,0,1-.161.1Zm.209-7.368h0a.144.144,0,0,1-.144-.144v-3.676a.128.128,0,0,1,.128-.161h0a.161.161,0,0,1,.144.161v3.676a.144.144,0,0,1-.144.144Zm.112-7.335h0a.177.177,0,0,1-.144-.177v-3.66a.144.144,0,0,1,.144-.161h0a.161.161,0,0,1,.161.161v3.724a.192.192,0,0,1-.16.112Zm0-7.368a.144.144,0,0,1-.144-.144v-3.676a.128.128,0,0,1,.128-.161h0a.145.145,0,0,1,.161.144v3.74a.144.144,0,0,1-.144.144Zm-.128-7.352a.177.177,0,0,1-.161-.144l-.112-3.676a.177.177,0,0,1,.144-.161h0a.16.16,0,0,1,.161.144h0c0,1.236.08,2.488.128,3.66a.144.144,0,0,1-.161.161Zm-.273-7.335a.144.144,0,0,1-.161-.144c0-1.252-.112-2.5-.193-3.74a.161.161,0,0,1,.145-.161h0a.145.145,0,0,1,.161.144c0,1.252.144,2.488.193,3.676a.144.144,0,0,1-.144.161h0Zm-.449-7.352a.144.144,0,0,1-.144-.128c-.08-1.252-.177-2.488-.289-3.66a.161.161,0,0,1,.128-.177h0a.128.128,0,0,1,.161.128h0l.289,3.74a.128.128,0,0,1-.112.16h0Zm-.61-7.319a.176.176,0,0,1-.161-.128c-.112-1.252-.257-2.5-.385-3.66a.144.144,0,0,1,.128-.177.161.161,0,0,1,.177.128c.144,1.252.257,2.424.385,3.66a.16.16,0,0,1-.128.177Zm-.851-7.3a.144.144,0,0,1-.144-.144c-.161-1.236-.337-2.488-.514-3.628a.144.144,0,0,1,.112-.177h0a.144.144,0,0,1,.161.128c.177,1.236.353,2.408.53,3.644a.16.16,0,0,1-.128.177Zm-1.108-7.271a.128.128,0,0,1-.144-.128c-.225-1.236-.449-2.488-.674-3.612a.148.148,0,1,1,.289-.064h0c.241,1.172.465,2.392.674,3.612a.144.144,0,0,1-.1.193h0Zm-1.445-7.207a.16.16,0,0,1-.144-.128c-.273-1.252-.578-2.408-.883-3.563a.144.144,0,0,1,.112-.177.128.128,0,0,1,.177.1h0c.321,1.124.594,2.327.883,3.563,0,.08,0,.144-.1.177h0Zm-58.138-6.517-.128-.08-.112-.112c.674-.851,1.429-1.83,2.279-2.857a.148.148,0,1,1,.209.209Zm56.18-.594a.16.16,0,0,1-.144-.1c-.385-1.252-.77-2.376-1.156-3.5a.181.181,0,0,1,.273-.193h0c.4,1.108.8,2.279,1.172,3.483a.161.161,0,0,1-.1.209Zm-51.75-5.04h-.112a.161.161,0,0,1,0-.209h0c.835-.963,1.605-1.894,2.5-2.777a.161.161,0,0,1,.225.209c-.8.867-1.605,1.8-2.44,2.761a.161.161,0,0,1-.193,0Zm49.23-1.862a.128.128,0,0,1-.128-.1c-.514-1.156-1.043-2.279-1.605-3.307a.177.177,0,0,1,0-.209.161.161,0,0,1,.209,0c.562,1.043,1.075,2.151,1.605,3.323a.177.177,0,0,1-.08.225Zm-44.254-3.563a.145.145,0,0,1-.112,0,.128.128,0,0,1,0-.193h0c.9-.9,1.8-1.75,2.681-2.488a.145.145,0,0,1,.209,0h0a.128.128,0,0,1,0,.193h0c-.867.787-1.766,1.605-2.648,2.488a.112.112,0,0,1-.144,0Zm40.819-2.921a.161.161,0,0,1-.144,0,27.759,27.759,0,0,0-2.151-2.97.144.144,0,0,1,0-.209h0a.193.193,0,0,1,.225,0,30.869,30.869,0,0,1,2.247,2.937.16.16,0,0,1,0,.209H203.7Zm-35.313-1.974h-.128a.193.193,0,0,1,0-.225c1.027-.787,2.022-1.509,3-2.167a.161.161,0,0,1,.209.1.193.193,0,0,1,0,.161c-.979.642-1.974,1.364-2.97,2.151Zm30.5-3.435h-.112a15.281,15.281,0,0,0-2.761-1.718l-.337-.144a.161.161,0,0,1,0-.209.144.144,0,0,1,.193-.08h0l.321.161a14.444,14.444,0,0,1,2.841,1.75.144.144,0,0,1,0,.209h-.1Zm-24.318-.626a.185.185,0,0,1-.144-.289,31.8,31.8,0,0,1,3.355-1.605.144.144,0,0,1,.193.08h0a.16.16,0,0,1,0,.193,29.553,29.553,0,0,0-3.307,1.605Zm17.657-2.488h0a22.683,22.683,0,0,0-3.579-.674.144.144,0,0,1-.144-.145h0a.177.177,0,0,1,.161-.145h0a21.585,21.585,0,0,1,3.628.69.144.144,0,0,1,.128.145h0a.161.161,0,0,1-.193,0Zm-10.9-.144a.144.144,0,0,1-.144-.128.16.16,0,0,1,.112-.177h0a23.472,23.472,0,0,1,3.66-.578.161.161,0,1,1,0,.3h0a24.98,24.98,0,0,0-3.6.562Z" transform="translate(4.161 -32.609)"/><path class="e" d="M207.152,383.4h0a.177.177,0,0,1-.112-.193c.193-1.14.385-2.36.594-3.612a.144.144,0,0,1,.177-.128h0a.16.16,0,0,1,.128.161h0c-.209,1.236-.4,2.488-.594,3.612a.161.161,0,0,1-.177.145Zm1.108-7.271h0a.128.128,0,0,1-.128-.161h0c.161-1.188.321-2.392.482-3.644a.161.161,0,0,1,.177-.128h0a.193.193,0,0,1,.144.177c-.177,1.236-.337,2.488-.5,3.628,0,.08-.08.08-.177.08Zm.947-7.3h0a.144.144,0,0,1-.144-.161h0c.144-1.188.273-2.408.417-3.66a.128.128,0,0,1,.128-.128h0a.128.128,0,0,1,.128.161h0c-.128,1.236-.273,2.488-.4,3.644a.192.192,0,0,1-.177.144h0Zm.77-7.3h0a.144.144,0,0,1-.128-.161h0c.112-1.252.241-2.488.353-3.66a.144.144,0,1,1,.289,0h0c-.112,1.252-.225,2.488-.337,3.66a.16.16,0,0,1-.144.161Zm.674-7.319h0a.144.144,0,0,1-.144-.161h0l.289-3.66a.144.144,0,0,1,.144-.144.177.177,0,0,1,.16.144c-.1,1.252-.193,2.488-.289,3.66a.161.161,0,0,1-.128.177Zm.546-7.335h0a.16.16,0,0,1-.144-.161h0l.225-3.676a.163.163,0,0,1,.321.016h0c0,1.236-.161,2.488-.241,3.66a.16.16,0,0,1-.161.128Zm.433-7.352h0a.144.144,0,0,1-.144-.16h0c0-1.236.128-2.488.177-3.66a.177.177,0,0,1,.161-.144h0a.144.144,0,0,1,.144.144h0l-.193,3.676a.128.128,0,0,1-.128.128h0Zm.321-7.335h0a.144.144,0,0,1-.144-.144h0c0-1.252.08-2.488.112-3.676a.161.161,0,0,1,.161-.144.144.144,0,0,1,.144.144h0l-.112,3.724A.177.177,0,0,1,211.951,332.179Zm.209-7.368h0a.144.144,0,0,1-.144-.144c0-1.236,0-2.488,0-3.74,0-.08,0-.128.144-.144h0a.161.161,0,0,1,.161.161h0v3.676a.144.144,0,0,1-.08.193Zm.1-7.336h0a.177.177,0,0,1-.161-.161h0V313.64a.161.161,0,0,1,.161-.144h0a.144.144,0,0,1,.161.128h0v3.74a.193.193,0,0,1-.16.1Zm0-7.352a.161.161,0,0,1-.144-.161V306.3a.161.161,0,0,1,.144-.161h0a.161.161,0,0,1,.161.128h0l.08,3.676a.209.209,0,0,1-.16.161Zm-.161-7.336a.209.209,0,0,1-.177-.161c0-1.236-.08-2.488-.144-3.724a.145.145,0,0,1,.144-.161h0a.161.161,0,0,1,.161.161c0,1.236.112,2.488.16,3.676a.177.177,0,0,1-.144.161Zm-.369-7.352a.144.144,0,0,1-.144-.144c-.08-1.252-.161-2.488-.257-3.66a.161.161,0,0,1,.321-.032c.08,1.252.177,2.488.241,3.74a.177.177,0,0,1-.144.16Zm-.546-7.336a.144.144,0,0,1-.144-.144c-.112-1.252-.225-2.488-.369-3.644a.177.177,0,0,1,.144-.177.128.128,0,0,1,.16.112h0c.112,1.252.241,2.424.353,3.66a.177.177,0,0,1-.144.177Zm-.77-7.319a.129.129,0,0,1-.145-.128h0c-.177-1.236-.337-2.488-.5-3.644a.144.144,0,0,1,.112-.177h0a.161.161,0,0,1,.177.128h0c.177,1.236.337,2.392.5,3.628a.145.145,0,0,1-.112.176h0Zm-1.075-7.271a.16.16,0,0,1-.161-.128c-.209-1.236-.433-2.488-.658-3.612a.144.144,0,0,1,.144-.144.161.161,0,0,1,.161.144h0c.225,1.156.449,2.376.658,3.628a.145.145,0,0,1-.112.176Zm-1.461-7.207a.16.16,0,0,1-.144-.112c-.289-1.252-.594-2.424-.915-3.563a.177.177,0,0,1,.112-.193h0a.176.176,0,0,1,.193.112c.3,1.14.626,2.344.915,3.563a.177.177,0,0,1-.112.193Zm-53.9-3.066a.1.1,0,0,1-.1,0,.161.161,0,0,1,0-.225l1.734-2.071.61-.738a.16.16,0,0,1,.225,0,.144.144,0,0,1,0,.209h0l-.61.738c-.626.754-1.236,1.461-1.734,2.087a.177.177,0,0,1-.177,0Zm51.926-4.013a.16.16,0,0,1-.144-.112c-.4-1.236-.819-2.36-1.252-3.435a.194.194,0,0,1,.289-.193h0c.433,1.075.867,2.247,1.252,3.451a.193.193,0,0,1-.112.209Zm-47.207-1.605h-.1a.161.161,0,0,1,0-.225c.851-1,1.605-1.894,2.488-2.761a.163.163,0,1,1,.273.177h0c-.787.835-1.605,1.734-2.5,2.729a.144.144,0,0,1-.177,0Zm44.446-5.137a.177.177,0,0,1-.144-.08,31.172,31.172,0,0,0-1.814-3.21.16.16,0,0,1,0-.209.145.145,0,0,1,.209,0,31.549,31.549,0,0,1,1.83,3.21.144.144,0,0,1,0,.209Zm-39.5-.193h-.112a.161.161,0,0,1,0-.225c.9-.9,1.782-1.75,2.681-2.488a.145.145,0,0,1,.209,0,.177.177,0,0,1,0,.225h0c-.867.77-1.766,1.605-2.665,2.488Zm5.49-4.815a.192.192,0,0,1-.128,0,.145.145,0,0,1,0-.209h0c1.011-.787,2.022-1.509,3.018-2.151a.161.161,0,0,1,.209,0,.144.144,0,0,1,0,.209h0c-.979.642-1.99,1.348-2.986,2.119h0Zm29.872-1h-.112a15.505,15.505,0,0,0-2.713-2.408.176.176,0,0,1,0-.209.16.16,0,0,1,.225,0,16.256,16.256,0,0,1,2.761,2.488.16.16,0,0,1,0,.209h0a.112.112,0,0,1-.112-.112h0Zm-23.724-2.97a.185.185,0,0,1-.144-.289,24.415,24.415,0,0,1,3.419-1.429.128.128,0,0,1,.177,0h0a.177.177,0,0,1-.1.209,25.8,25.8,0,0,0-3.371,1.413Zm17.753-1.14h0a20.273,20.273,0,0,0-3.612-1.124.161.161,0,0,1-.128-.177.177.177,0,0,1,.193-.112,19.44,19.44,0,0,1,3.531,1.059.144.144,0,1,1,0,.289h0Zm-10.819-1.188a.128.128,0,0,1-.144-.128.145.145,0,0,1,.112-.177,19.583,19.583,0,0,1,3.355-.289h.337a.16.16,0,0,1,.144.161.144.144,0,0,1-.144.144h-.337a18.718,18.718,0,0,0-3.291.289Z" transform="translate(4.55 -31.584)"/></g></g></svg>