<svg xmlns="http://www.w3.org/2000/svg" width="798.05" height="512.551" viewBox="0 0 798.05 512.551"><defs><style>.a{fill:#e0e0e0;}.b{fill:#fafafa;}.c{fill:#ebebeb;}.d{fill:#263238;}.e{fill:#455a64;}.f{fill:#8cc739;}.g{opacity:0.79;}.h{fill:#fff;}.i{opacity:0.3;}.j{opacity:0.6;}.k{opacity:0.4;}.l{opacity:0.2;}.m{fill:#ffbe9d;}.n{fill:#eb996e;}</style></defs><g transform="translate(-19.93 -27.23)"><g transform="translate(19.93 35.916)"><rect class="a" width="21.817" height="87.155" transform="translate(659.415)"/><rect class="a" width="21.817" height="68.139" transform="translate(691.506 19.016)"/><rect class="a" width="21.817" height="52.581" transform="translate(724.073 34.574)"/><rect class="a" width="21.817" height="31.218" transform="translate(754.236 55.938)"/><path class="a" d="M43.776,388.486A31.751,31.751,0,0,0,30.169,383.8c-2.268-.238-4.649-.17-6.441,1.134a1.315,1.315,0,0,0-.658,1.134,1.452,1.452,0,0,0,.624.805,19.481,19.481,0,0,0,20.094,1.52" transform="translate(-19.509 11.833)"/><path class="a" d="M42.712,390.1a66.413,66.413,0,0,1-8.788-7.734A22.248,22.248,0,0,1,28.4,372.162a4.15,4.15,0,0,1,.442-3.4c7.008,5.477,12.473,12.564,13.868,21.352" transform="translate(-18.82 9.832)"/><path class="a" d="M41.324,390.359a31.592,31.592,0,0,1,.159-11.544,15.591,15.591,0,0,1,6.157-9.525c1.2,2.823.68,6.089-.17,9.072a43.952,43.952,0,0,1-6.1,12.836" transform="translate(-17.125 9.903)"/><path class="a" d="M49.358,398.73a20.105,20.105,0,0,0-10.92,5.534A20.627,20.627,0,0,0,32.19,414.98c4.094-.249,7.563-3.141,10.081-6.373s4.264-6.8,7.03-9.809" transform="translate(-18.288 13.846)"/><path class="a" d="M48.861,403.48A26.931,26.931,0,0,1,51.979,378c2.37,8.459,1.5,18.007-3.118,25.48" transform="translate(-16.305 11.07)"/><path class="a" d="M58.881,410a19.481,19.481,0,0,0-18.619,10.727,1.463,1.463,0,0,0-.125,1.463,1.429,1.429,0,0,0,1.236.363c3.663-.238,6.917-2.449,9.6-4.967s5.023-5.42,7.938-7.6" transform="translate(-17.242 15.352)"/><path class="a" d="M56.585,412.537a34.665,34.665,0,0,1-.352-19.379c.68-2.495,1.826-5.114,4.139-6.293a.84.84,0,0,1,.635-.1.828.828,0,0,1,.4.454,11.827,11.827,0,0,1,.975,5.568,35.154,35.154,0,0,1-.873,5.67c-.726,3.4-1.134,7.133-3,10.1a20.761,20.761,0,0,0-1.236,2.166c-.363.76-.363,1.021-.692,1.622" transform="translate(-15.23 12.24)"/><path class="a" d="M77.664,415.16a24.947,24.947,0,0,1,4.377-20.536c.317-.408.737-.85,1.247-.794.794.068,1,1.134.953,1.905a36.99,36.99,0,0,1-6.577,19.425" transform="translate(-12.28 13.19)"/><path class="a" d="M79.5,414.839a29.868,29.868,0,0,0,24.516-4.989,19.81,19.81,0,0,0-13.267-1.622c-4.434,1.009-8.482,2.994-11.249,6.611" transform="translate(-11.951 15.053)"/><path class="a" d="M81.12,411.519a28.349,28.349,0,0,1,22.248-12.859,13.732,13.732,0,0,1-7.28,8.04,40.822,40.822,0,0,1-10.682,3.13c-1.417.272-3.4.578-4.286,1.69" transform="translate(-11.734 13.837)"/><path class="a" d="M78.378,393.732A64.434,64.434,0,0,0,81.224,380.7a21.738,21.738,0,0,0-2.6-12.893,28.349,28.349,0,0,0-.386,26.376" transform="translate(-12.53 9.705)"/><path class="a" d="M90.78,386.276c5.035-9.151,15.308-16.454,25.707-17.486-4.014,9.99-14.945,17.7-25.707,17.486" transform="translate(-10.44 9.836)"/><path class="a" d="M88,385.967c7.507,1.134,13.9,5.942,20.921,8.845a9.3,9.3,0,0,0,4.729.907,3.7,3.7,0,0,0,2.268-6.543,10.138,10.138,0,0,0-3.4-2.086c-7.643-3.186-15.875-3.266-23.881-1.338" transform="translate(-10.812 11.936)"/><path class="a" d="M84.165,390.483c1.69.488,2.268,1.361,3.617,2.506a39.212,39.212,0,0,0,15.875,8.153c.6.147,1.395.215,1.7-.34s-.068-1.055-.42-1.474a21.7,21.7,0,0,0-9.616-6.509c-3.663-1.361-6.8-3-11.2-2.653" transform="translate(-11.332 12.693)"/><path class="a" d="M79.83,362.486a30.05,30.05,0,0,0,23.019,7.824,1.553,1.553,0,0,0,1.055-.374c.578-.624-.125-1.6-.794-2.132-6.8-5.273-14.968-7.461-23.28-5.318" transform="translate(-11.906 8.882)"/><path class="a" d="M85,361.248a32.057,32.057,0,0,1,28.723-4.74,22.815,22.815,0,0,1-13.687,6.01A43.384,43.384,0,0,1,85,361.248" transform="translate(-11.214 7.989)"/><path class="a" d="M83.378,350.02c-.669-6.8-.238-12.088-.7-18.88,0-.533-.147-1.191-.658-1.383-.714-.272-1.293.59-1.531,1.315a21.67,21.67,0,0,0,2.88,18.8" transform="translate(-11.95 4.601)"/><path class="a" d="M82.49,350.789a39.756,39.756,0,0,0,11.192-10.875c2.268-3.028,4.071-6.656,3.572-10.364a10.727,10.727,0,0,0-8.074,4.014,22.532,22.532,0,0,0-4.116,8.278c-.9,2.971-1.519,6.021-2.574,8.947" transform="translate(-11.55 4.58)"/><path class="a" d="M92.207,347.578A89.922,89.922,0,0,0,119.74,331.34c-3.288-1.315-7.053-.533-10.342.805A32.59,32.59,0,0,0,92.06,347.51" transform="translate(-10.268 4.729)"/><path class="a" d="M85.22,352.478a55.665,55.665,0,0,0,15.286.068,64.546,64.546,0,0,0,14.276-4.74,1.655,1.655,0,0,0,.975-.737,1.134,1.134,0,0,0-.352-1.225,3.062,3.062,0,0,0-1.213-.567,26.511,26.511,0,0,0-15.433.918,71.94,71.94,0,0,0-13.539,6.282" transform="translate(-11.184 6.588)"/><path class="a" d="M59.921,365.234a27.045,27.045,0,0,1-.249-22.384c2.109,3.209,2.37,7.3,1.984,11.124s-1.554,7.768-1.633,11.612" transform="translate(-14.915 6.361)"/><path class="a" d="M50.141,356.43a31.218,31.218,0,0,0-23.2,9.877,21.681,21.681,0,0,0,12.7-2.347,64.633,64.633,0,0,0,10.886-7.291" transform="translate(-18.991 8.18)"/><path class="a" d="M41.759,353.728c-4.23-.34-8.312-.873-12.383.374a14.923,14.923,0,0,0-9.446,8.006,22.305,22.305,0,0,0,11.612-2.189,66.073,66.073,0,0,0,10.206-6.191" transform="translate(-19.93 7.764)"/><path class="a" d="M54.285,354.567c-3.81-2.495-7.734-5.035-12.167-6.067s-9.582-.272-12.678,3.073c3.595,2.109,7.938,2.359,12.122,2.347s9.264,0,13.2,1.349" transform="translate(-18.656 7.061)"/><path class="a" d="M52.244,357.146c-6.52-6.4-8.992-17.894-6.373-26.636a40.618,40.618,0,0,1,6.373,26.636" transform="translate(-16.593 4.708)"/><path class="a" d="M67.17,340.483c1.225-2.858,2.086-5.863,3.186-8.765a25.514,25.514,0,0,1,4.536-8.085,12,12,0,0,1,8.074-4.173,32.533,32.533,0,0,1-15.637,21.023" transform="translate(-13.602 3.228)"/><path class="a" d="M66.3,342.68c-2.041-2.8-4.388-6.6-7.144-8.686a11.906,11.906,0,0,0-9.718-2.551A22.679,22.679,0,0,0,66.3,342.68" transform="translate(-15.977 4.808)"/><path class="a" d="M65.3,340.682a48.306,48.306,0,0,1-3.266-10.432,16.3,16.3,0,0,1,1.633-10.58c3.583,6.8,4.729,14.016,1.769,21.069" transform="translate(-14.326 3.256)"/><path class="a" d="M67.205,321.381c2.018-6.7,8.153-11.634,14.741-13.9a5.477,5.477,0,0,1,2.585-.386,2.268,2.268,0,0,1,1.916,1.588c.238,1.134-.7,2.166-1.588,2.926a50.427,50.427,0,0,1-17.7,9.775" transform="translate(-13.604 1.568)"/><path class="a" d="M67.272,317.51c.261-4.32.522-8.7,1.928-12.791s4.116-7.938,8.062-9.729c.669,4.366-1.259,8.709-3.583,12.473s-5.114,7.3-6.509,11.487" transform="translate(-13.602 -0.05)"/><path class="a" d="M68.648,320.249c-1.678-4.887-1.848-11.09-4.729-15.286-2.052-2.982-5.318-5-7.087-8.153a12.405,12.405,0,0,0,.42,9.253,26.875,26.875,0,0,0,5.409,7.745c2.166,2.268,4.014,4.048,6.033,6.5" transform="translate(-15.081 0.194)"/><path class="a" d="M67.231,461.523c-.136,0-.249-32.59-.261-72.766s.091-72.777.227-72.777.238,32.567.249,72.777S67.356,461.523,67.231,461.523Z" transform="translate(-13.629 2.762)"/><path class="a" d="M95.682,358.25a7.531,7.531,0,0,1-1.225.465l-3.4,1.134c-2.835.975-6.8,2.37-10.988,4.1s-8.153,3.266-10.41,5.216a7.654,7.654,0,0,0-2.086,2.767c-.317.771-.386,1.236-.42,1.225s0-.113,0-.34a4.694,4.694,0,0,1,.238-.941,7.382,7.382,0,0,1,2.041-2.96,18.222,18.222,0,0,1,4.536-2.8c1.814-.839,3.81-1.724,5.942-2.6,4.252-1.746,8.187-3.1,11.056-3.992,1.44-.442,2.608-.771,3.4-1a9.339,9.339,0,0,1,1.315-.284Z" transform="translate(-13.607 8.424)"/><path class="a" d="M104.745,338a2.27,2.27,0,0,1-.352.363l-1.043.987-3.9,3.538-13,11.566c-5.069,4.536-9.446,8.833-12.473,12.077-1.519,1.622-2.721,2.971-3.538,3.9l-.941,1.134a2.585,2.585,0,0,1-.352.352,4.6,4.6,0,0,1,.272-.42c.193-.272.488-.646.884-1.134.771-.975,1.928-2.359,3.4-4.014a165.843,165.843,0,0,1,12.473-12.2c5.08-4.536,9.718-8.55,13.086-11.464l4-3.4,1.134-.907a1.872,1.872,0,0,1,.34-.374Z" transform="translate(-13.337 5.712)"/><path class="a" d="M79.591,357.931c-.136-.057.918-2.506,1.973-5.6s1.565-5.67,1.7-5.67a18.982,18.982,0,0,1-1.247,5.84,40.009,40.009,0,0,1-1.576,3.912A6.361,6.361,0,0,1,79.591,357.931Z" transform="translate(-11.94 6.872)"/><path class="a" d="M69.449,376.812a5.148,5.148,0,0,1-.782-.907c-.533-.68-1.2-1.531-2-2.563-1.69-2.177-4.014-5.171-6.611-8.459s-5.012-6.214-6.736-8.369l-2.041-2.54a5.886,5.886,0,0,1-.7-.964,6.2,6.2,0,0,1,.839.85c.522.567,1.259,1.395,2.166,2.438,1.8,2.075,4.241,4.989,6.8,8.278s4.9,6.327,6.509,8.55c.805,1.134,1.451,2.03,1.882,2.665A7.032,7.032,0,0,1,69.449,376.812Z" transform="translate(-15.824 7.722)"/><path class="a" d="M62.1,368.1a11.453,11.453,0,0,1-2.619-4.9,13.947,13.947,0,0,1-.59-4.944h.2c-.091.374-.159.578-.2.567s0-.215,0-.6h.2a22.872,22.872,0,0,0,.839,4.808A35.585,35.585,0,0,0,62.1,368.1Z" transform="translate(-14.714 8.42)"/><path class="a" d="M56.276,358.24a9.358,9.358,0,0,0-1.826-1.055,12.191,12.191,0,0,0-5.069-.408,31.252,31.252,0,0,0-5.114.828,14.655,14.655,0,0,1-2.1.5,7.937,7.937,0,0,1,2.007-.816,22.85,22.85,0,0,1,5.159-.975,10.932,10.932,0,0,1,5.239.567,3.4,3.4,0,0,1,1.7,1.361Z" transform="translate(-16.951 8.151)"/><path class="a" d="M55.263,356.168c0,.068-1.066-.431-2.79-1.021A28.122,28.122,0,0,0,38.344,354.1c-1.8.329-2.892.658-2.914.578a2.95,2.95,0,0,1,.737-.306,17.5,17.5,0,0,1,2.109-.6,25.049,25.049,0,0,1,14.288,1.134,18.207,18.207,0,0,1,2,.907C55.036,355.987,55.285,356.134,55.263,356.168Z" transform="translate(-17.854 7.75)"/><path class="a" d="M67.6,348.338a57.333,57.333,0,0,1-2.041-7.087,56.753,56.753,0,0,1-1.588-7.2,57.332,57.332,0,0,1,2.041,7.087,59.745,59.745,0,0,1,1.588,7.2Z" transform="translate(-14.031 5.183)"/><path class="a" d="M67.942,347.553a33.373,33.373,0,0,0-2.268-4.241,18.972,18.972,0,0,0-3.334-3.4,3.153,3.153,0,0,1,1.281.669,10.2,10.2,0,0,1,2.438,2.495A9.457,9.457,0,0,1,67.942,347.553Z" transform="translate(-14.249 5.968)"/><path class="a" d="M70.727,434.621s-.147-.782-.522-2.166a30.843,30.843,0,0,0-2.177-5.67,78.016,78.016,0,0,0-11.555-16.272c-2.574-2.948-5.08-5.67-7.2-8.391a57.036,57.036,0,0,1-5.148-7.427,35.888,35.888,0,0,1-2.608-5.511c-.238-.68-.408-1.213-.51-1.576a3.709,3.709,0,0,1-.136-.567s.283.748.816,2.075a41.957,41.957,0,0,0,2.721,5.409,61.731,61.731,0,0,0,5.2,7.325c2.132,2.642,4.638,5.4,7.223,8.357a74.035,74.035,0,0,1,11.5,16.476,27.8,27.8,0,0,1,2.052,5.738,16.11,16.11,0,0,1,.283,1.633,4.309,4.309,0,0,1,.057.567Z" transform="translate(-17.125 12.281)"/><path class="a" d="M92.923,403.38a12.717,12.717,0,0,1-1.349.76,29.09,29.09,0,0,0-3.5,2.268,40.59,40.59,0,0,0-4.536,4.184c-1.61,1.7-3.266,3.685-4.967,5.806-3.4,4.252-6.554,8.017-8.459,11.011-.964,1.5-1.667,2.755-2.12,3.629a12.861,12.861,0,0,1-.737,1.361.98.98,0,0,1,.125-.386,10.723,10.723,0,0,1,.454-1.055,34.263,34.263,0,0,1,2-3.719A121.04,121.04,0,0,1,78.2,416.1c1.69-2.132,3.4-4.1,5.023-5.806a36.794,36.794,0,0,1,4.706-4.162,23.464,23.464,0,0,1,3.606-2.2c.454-.227.816-.363,1.055-.476a1.78,1.78,0,0,1,.329-.079Z" transform="translate(-13.591 14.469)"/><path class="a" d="M92.43,411.709a20.622,20.622,0,0,1-2.846.408,37.863,37.863,0,0,0-6.8,1.327,20.412,20.412,0,0,0-6.01,3.141c-1.395,1.077-2.052,1.962-2.12,1.916a2.1,2.1,0,0,1,.42-.658,11.135,11.135,0,0,1,1.485-1.519,18.381,18.381,0,0,1,6.123-3.4,30.219,30.219,0,0,1,6.872-1.213,14.051,14.051,0,0,1,2.88,0Z" transform="translate(-12.6 15.575)"/><path class="a" d="M75.381,417.95c-.147-.079,1.134-2.041,2.132-4.683s1.134-5,1.327-4.967a4.728,4.728,0,0,1,0,1.531A16.249,16.249,0,0,1,78,413.426a16.907,16.907,0,0,1-1.644,3.311C75.8,417.53,75.438,417.984,75.381,417.95Z" transform="translate(-12.504 15.128)"/><path class="a" d="M101.26,381.06a2.482,2.482,0,0,1-.465.238l-1.338.612c-.59.249-1.293.567-2.1,1s-1.746.839-2.721,1.429l-1.554.884c-.544.306-1.134.68-1.644,1.032-1.134.692-2.268,1.553-3.527,2.427a66.387,66.387,0,0,0-7.348,6.464,65.29,65.29,0,0,0-6.2,7.563,42.069,42.069,0,0,0-2.268,3.606c-.34.578-.692,1.134-.987,1.667s-.556,1.077-.828,1.588c-.556,1-.941,1.95-1.338,2.767s-.692,1.542-.918,2.143-.408,1-.567,1.349-.2.476-.227.465a2.37,2.37,0,0,1,.147-.488l.476-1.395a22.616,22.616,0,0,1,.85-2.177c.363-.828.748-1.8,1.281-2.812l.805-1.61c.283-.556.635-1.134.964-1.7.646-1.134,1.451-2.381,2.268-3.651a63.96,63.96,0,0,1,6.237-7.643,62.239,62.239,0,0,1,7.427-6.486c1.236-.873,2.4-1.724,3.572-2.4.567-.352,1.134-.714,1.656-1.021l1.588-.862c.987-.567,1.95-.987,2.767-1.372a22.4,22.4,0,0,1,2.143-.93l1.372-.533A2.133,2.133,0,0,1,101.26,381.06Z" transform="translate(-13.594 11.48)"/><path class="a" d="M79.28,393.492a3.266,3.266,0,0,1,1.134-1.667,7.144,7.144,0,0,1,4.536-1.735,12.575,12.575,0,0,1,4.751.93,6.806,6.806,0,0,1,1.792.873,11.143,11.143,0,0,1-1.905-.556,14.515,14.515,0,0,0-4.615-.771,7.371,7.371,0,0,0-4.309,1.508,12.226,12.226,0,0,0-1.383,1.417Z" transform="translate(-11.98 12.689)"/><path class="a" d="M76.59,396.866a16.658,16.658,0,0,0,1.281-4.173,16.941,16.941,0,0,0-.283-4.343,2.881,2.881,0,0,1,.533,1.213,8.72,8.72,0,0,1-.737,6.248C76.987,396.526,76.635,396.9,76.59,396.866Z" transform="translate(-12.34 12.456)"/><path class="a" d="M47.35,433.13c.7,12.473,4.456,25.117,10.206,37.919H82.673c5.511-12.678,9-25.321,9.616-37.919Z" transform="translate(-16.257 18.454)"/><path class="b" d="M87.761,450.928c0,.125-8.266.227-18.461.227s-18.461-.1-18.461-.227,8.266-.238,18.461-.238S87.761,450.792,87.761,450.928Z" transform="translate(-15.79 20.807)"/><path class="b" d="M86.987,454.908c0,.125-7.745.227-17.3.227s-17.293-.1-17.293-.227,7.745-.238,17.293-.238S86.987,454.772,86.987,454.908Z" transform="translate(-15.582 21.34)"/><path class="b" d="M56.747,440.34a70.2,70.2,0,0,1,0,11.555A73.708,73.708,0,0,1,56.747,440.34Z" transform="translate(-15.029 19.42)"/><path class="b" d="M68.607,440.34a75.387,75.387,0,0,1,0,11.974A79.151,79.151,0,0,1,68.607,440.34Z" transform="translate(-13.44 19.42)"/><path class="b" d="M79.748,440.25a82.324,82.324,0,0,1,0,12.213A78.414,78.414,0,0,1,79.748,440.25Z" transform="translate(-11.949 19.408)"/><path class="b" d="M91.394,440.368c0,.125-9.7.238-21.647.238s-21.647-.113-21.647-.238,9.7-.238,21.647-.238S91.394,440.232,91.394,440.368Z" transform="translate(-16.157 19.392)"/><rect class="b" width="208.08" height="128.783" transform="translate(53.114 0.907)"/><path class="c" d="M222.035,124.321c-14.435-5.466-31.025,9.661-45.177,3.493-8.221-3.595-11.952-12.9-15.989-20.921S149.893,90.4,140.958,91.335s-16.295,11.34-24.947,8.856c-5.488-1.588-8.221-7.666-9.593-13.211s-2.336-11.657-6.52-15.546S87,68.588,86.29,74.257v68.275H249.012S226.991,126.215,222.035,124.321Z" transform="translate(-11.041 -30.306)"/><path class="a" d="M254.411,133.891c0,.147-39.439.261-88.074.261s-88.1-.113-88.1-.261,39.439-.261,88.1-.261S254.411,133.743,254.411,133.891Z" transform="translate(-12.119 -21.664)"/><path class="a" d="M254.411,107.591c0,.147-39.439.272-88.074.272s-88.1-.125-88.1-.272,39.439-.261,88.1-.261S254.411,107.443,254.411,107.591Z" transform="translate(-12.119 -25.187)"/><path class="a" d="M254.411,81.295c0,.147-39.439.272-88.074.272s-88.1-.125-88.1-.272S117.656,81,166.337,81,254.411,81.159,254.411,81.295Z" transform="translate(-12.119 -28.714)"/><path class="a" d="M254.411,56.306c0,.147-39.439.272-88.074.272s-88.1-.125-88.1-.272S117.656,56,166.337,56,254.411,56.159,254.411,56.306Z" transform="translate(-12.119 -32.062)"/></g><g transform="translate(33.526 525.125)"><path class="d" d="M808.211,466.6c0,.159-173.789.295-388.129.295S31.92,466.764,31.92,466.6s173.755-.295,388.163-.295S808.211,466.435,808.211,466.6Z" transform="translate(-31.92 -466.31)"/></g><g transform="translate(183.015 27.23)"><path class="d" d="M666.68,78.51H178.968A15.218,15.218,0,0,0,163.75,93.728V438.21a15.218,15.218,0,0,0,15.218,15.229H366.149s11.918,46.061-25,65.111H516.182s-41.684-23.529-30.968-65.111H666.646a15.229,15.229,0,0,0,15.229-15.229V93.728A15.218,15.218,0,0,0,666.68,78.51Z" transform="translate(-163.75 -20.361)"/><path class="e" d="M399.907,377.544c6.634,9.48-3.753,19.867-13.233,13.233a3.491,3.491,0,0,1-.816-.816c-6.622-9.48,3.753-19.855,13.233-13.233A3.493,3.493,0,0,1,399.907,377.544Z" transform="translate(-134.279 19.305)"/><rect class="b" width="503.1" height="305.577" transform="translate(8.391 64.476)"/><rect class="f" width="14.775" height="20.343" transform="translate(437.852 299.771)"/><g class="g" transform="translate(437.852 299.771)"><rect class="h" width="14.775" height="20.343"/></g><rect class="f" width="14.775" height="32.318" transform="translate(406.657 287.797)"/><g class="g" transform="translate(406.657 287.797)"><rect class="h" width="14.775" height="32.318"/></g><rect class="f" width="14.775" height="41.514" transform="translate(373.002 278.067)"/><g class="g" transform="translate(373.002 278.067)"><rect class="h" width="14.775" height="41.514"/></g><rect class="f" width="14.775" height="28.054" transform="translate(60.904 291.527)"/><g class="g" transform="translate(60.904 291.527)"><rect class="h" width="14.775" height="28.054"/></g><rect class="f" width="14.775" height="16.578" transform="translate(92.973 303.003)"/><g class="g" transform="translate(92.973 303.003)"><rect class="h" width="14.775" height="16.578"/></g><rect class="f" width="14.775" height="38.044" transform="translate(122.773 282.059)"/><g class="g" transform="translate(122.773 282.059)"><rect class="h" width="14.775" height="38.044"/></g><rect class="f" width="14.775" height="19.81" transform="translate(153.968 299.771)"/><g class="g" transform="translate(153.968 299.771)"><rect class="h" width="14.775" height="19.81"/></g><rect class="f" width="14.775" height="37.511" transform="translate(184.641 282.059)"/><rect class="f" width="14.775" height="85.489" transform="translate(215.02 234.093)"/><rect class="f" width="14.775" height="120.562" transform="translate(246.68 199.008)"/><rect class="f" width="14.775" height="71.099" transform="translate(278.215 248.471)"/><g class="g" transform="translate(215.02 234.093)"><rect class="h" width="14.775" height="85.489"/></g><g class="g" transform="translate(278.215 248.471)"><rect class="h" width="14.775" height="71.099"/></g><rect class="e" width="14.775" height="82.812" transform="translate(340.015 236.757)"/><rect class="f" width="14.775" height="108.009" transform="translate(309.682 211.572)"/><path class="d" d="M208.9,189.954H206.63V188.82h5.885v1.134h-2.268v5.874h-1.293Z" transform="translate(-158.006 -5.585)"/><path class="d" d="M211.68,193a2.824,2.824,0,1,1,2.824,2.71A2.665,2.665,0,0,1,211.68,193Zm4.4,0a1.576,1.576,0,1,0-1.576,1.656A1.542,1.542,0,0,0,216.08,193Z" transform="translate(-157.33 -5.419)"/><path class="d" d="M222.947,188.49v7.382h-1.191v-.68a2.188,2.188,0,0,1-1.746.748,2.71,2.71,0,1,1,0-5.42,2.166,2.166,0,0,1,1.7.714v-2.721Zm-1.213,4.717a1.576,1.576,0,1,0-1.576,1.656,1.554,1.554,0,0,0,1.576-1.656Z" transform="translate(-156.577 -5.629)"/><path class="d" d="M228.194,192.5v3.13H227.06v-.646a1.871,1.871,0,0,1-1.667.714c-1.213,0-1.973-.658-1.973-1.588s.59-1.576,2.2-1.576h1.361v-.079c0-.714-.431-1.134-1.315-1.134a2.6,2.6,0,0,0-1.6.522l-.488-.9a3.674,3.674,0,0,1,2.268-.658A2.025,2.025,0,0,1,228.194,192.5Zm-1.247,1.451v-.59h-1.27c-.85,0-1.077.318-1.077.7s.386.737,1.009.737A1.349,1.349,0,0,0,226.947,193.953Z" transform="translate(-155.757 -5.388)"/><path class="d" d="M234.011,190.31l-2.472,5.726A2.052,2.052,0,0,1,229.5,197.6a2.166,2.166,0,0,1-1.417-.488l.488-.907a1.361,1.361,0,0,0,.918.363c.431,0,.692-.2.93-.737l.091-.2-2.268-5.318h1.293l1.667,3.923,1.667-3.923Z" transform="translate(-155.133 -5.385)"/><path class="a" d="M207.8,330.14v3.538h-.363v-3.22H206.6v-.318Z" transform="translate(-158.01 13.345)"/><path class="a" d="M224.815,333.391v.329h-2.483v-.329l1.474-1.44c.4-.4.476-.635.476-.873,0-.408-.283-.669-.828-.669a1.134,1.134,0,0,0-.964.4l-.261-.215a1.576,1.576,0,0,1,1.259-.51c.714,0,1.134.363,1.134.953a1.451,1.451,0,0,1-.578,1.134l-1.2,1.134Z" transform="translate(-155.917 13.337)"/><path class="a" d="M240.8,332.657c0,.59-.431,1.043-1.281,1.043a1.8,1.8,0,0,1-1.27-.454l.17-.284a1.542,1.542,0,0,0,1.134.408c.59,0,.907-.272.907-.714s-.295-.7-.952-.7h-.249v-.272l.975-1.225h-1.8v-.318H240.7v.249l-1,1.259C240.427,331.694,240.8,332.09,240.8,332.657Z" transform="translate(-153.771 13.345)"/><path class="a" d="M257.12,332.748h-.646v.93h-.329v-.93H254.33v-.272l1.7-2.336h.374l-1.644,2.268h1.395v-.816h.318v.816h.646Z" transform="translate(-151.617 13.345)"/><path class="a" d="M272.941,332.635c0,.6-.42,1.066-1.281,1.066a1.825,1.825,0,0,1-1.27-.454l.181-.284a1.531,1.531,0,0,0,1.134.408c.6,0,.918-.295.918-.726s-.283-.737-1.134-.737h-.76l.181-1.769h1.939v.318h-1.622l-.113,1.134h.454C272.545,331.591,272.941,332,272.941,332.635Z" transform="translate(-149.466 13.345)"/><path class="a" d="M289.133,332.611a1.134,1.134,0,0,1-1.2,1.134c-.941,0-1.451-.646-1.451-1.769a1.625,1.625,0,0,1,1.61-1.826,1.587,1.587,0,0,1,.839.193l-.136.295a1.236,1.236,0,0,0-.692-.17c-.76,0-1.259.488-1.259,1.451q-.007.142,0,.284a1.134,1.134,0,0,1,1.077-.6,1.066,1.066,0,0,1,1.213,1.009Zm-.352,0c0-.465-.352-.76-.9-.76a.772.772,0,1,0,.9.771Z" transform="translate(-147.31 13.346)"/><path class="a" d="M305.077,330.141v.249l-1.474,3.288h-.4l1.451-3.22h-1.814v.658h-.363v-.987Z" transform="translate(-145.167 13.344)"/><path class="d" d="M207.8,207.81v3.538h-.363v-3.209H206.6v-.329Z" transform="translate(-158.01 -3.041)"/><path class="d" d="M208.4,209.582c0-1.134.6-1.792,1.417-1.792s1.406.669,1.406,1.792-.59,1.8-1.406,1.8S208.4,210.716,208.4,209.582Zm2.461,0c0-.941-.431-1.463-1.043-1.463s-1.043.522-1.043,1.463.42,1.474,1.043,1.474S210.861,210.534,210.861,209.582Z" transform="translate(-157.769 -3.044)"/><path class="d" d="M211.31,210.742a.272.272,0,0,1,.544,0,.272.272,0,1,1-.544,0Z" transform="translate(-157.379 -2.685)"/><path class="d" d="M212.2,209.582c0-1.134.59-1.792,1.406-1.792s1.417.669,1.417,1.792-.59,1.8-1.417,1.8S212.2,210.716,212.2,209.582Zm2.449,0c0-.941-.42-1.463-1.043-1.463s-1.032.522-1.032,1.463.42,1.474,1.032,1.474S214.649,210.534,214.649,209.582Z" transform="translate(-157.26 -3.044)"/><path class="d" d="M215.15,209.582c0-1.134.59-1.792,1.406-1.792s1.417.669,1.417,1.792-.6,1.8-1.417,1.8S215.15,210.716,215.15,209.582Zm2.449,0c0-.941-.42-1.463-1.043-1.463s-1.032.522-1.032,1.463.42,1.474,1.032,1.474S217.6,210.534,217.6,209.582Z" transform="translate(-156.865 -3.044)"/><path class="d" d="M218.1,209.582c0-1.134.59-1.792,1.406-1.792s1.417.669,1.417,1.792-.6,1.8-1.417,1.8S218.1,210.716,218.1,209.582Zm2.449,0c0-.941-.42-1.463-1.043-1.463s-1.043.522-1.043,1.463.431,1.474,1.043,1.474S220.549,210.534,220.549,209.582Z" transform="translate(-156.47 -3.044)"/><path class="a" d="M321.234,332.7c0,.624-.533,1.009-1.383,1.009s-1.361-.386-1.361-1.009a.9.9,0,0,1,.68-.873.805.805,0,0,1-.556-.782c0-.567.488-.93,1.236-.93s1.259.363,1.259.93a.794.794,0,0,1-.567.782A.9.9,0,0,1,321.234,332.7Zm-.374,0c0-.431-.374-.7-1.009-.7s-.987.272-.987.7.363.714.987.714,1.009-.284,1.009-.726Zm-1.009-1c.556,0,.884-.238.884-.624s-.352-.646-.884-.646-.873.249-.873.635.329.624.873.624Z" transform="translate(-143.023 13.341)"/><path class="a" d="M337.181,331.885c0,1.2-.658,1.826-1.61,1.826a1.587,1.587,0,0,1-.839-.193l.136-.295a1.259,1.259,0,0,0,.692.17c.76,0,1.259-.488,1.259-1.451q.007-.142,0-.283a1.134,1.134,0,0,1-1.077.6,1.066,1.066,0,0,1-1.191-1.055,1.134,1.134,0,0,1,1.2-1.134C336.671,330.116,337.181,330.762,337.181,331.885Zm-.5-.7a.828.828,0,0,0-.93-.76.783.783,0,0,0-.873.771c0,.465.352.76.9.76a.817.817,0,0,0,.907-.771Z" transform="translate(-140.871 13.335)"/><path class="a" d="M351.582,330.14v3.538h-.363v-3.22h-.839v-.318Z" transform="translate(-138.751 13.345)"/><path class="a" d="M352.18,331.913c0-1.134.6-1.8,1.417-1.8s1.406.669,1.406,1.8-.59,1.792-1.406,1.792S352.18,333.036,352.18,331.913Zm2.449,0c0-.953-.42-1.474-1.032-1.474s-1.043.522-1.043,1.474.42,1.463,1.043,1.463S354.629,332.854,354.629,331.913Z" transform="translate(-138.51 13.341)"/><path class="a" d="M367.134,330.14v3.538h-.363v-3.22H366v-.318Z" transform="translate(-136.659 13.345)"/><path class="a" d="M368.771,330.14v3.538h-.363v-3.22h-.828v-.318Z" transform="translate(-136.447 13.345)"/><path class="a" d="M383.225,330.14v3.538h-.363v-3.22H382v-.318Z" transform="translate(-134.515 13.345)"/><path class="a" d="M386.305,333.391v.329h-2.483v-.329l1.474-1.44c.4-.4.465-.635.465-.873,0-.408-.284-.669-.828-.669a1.2,1.2,0,0,0-.964.4l-.25-.215a1.554,1.554,0,0,1,1.247-.51c.714,0,1.134.363,1.134.953a1.451,1.451,0,0,1-.578,1.134l-1.2,1.134Z" transform="translate(-134.285 13.337)"/><path class="a" d="M399.066,330.14v3.538h-.329v-3.22H398v-.318Z" transform="translate(-132.372 13.345)"/><path class="a" d="M401.768,332.657a1.032,1.032,0,0,1-1.134,1.043,1.565,1.565,0,0,1-1.134-.454l.159-.283a1.372,1.372,0,0,0,1,.408c.533,0,.828-.272.828-.714s-.261-.7-.862-.7h-.238v-.272l.9-1.225h-1.644v-.318h2.075v.249l-.918,1.259a.964.964,0,0,1,.975,1.009Z" transform="translate(-132.171 13.345)"/><path class="a" d="M415.311,330.14v3.538h-.363v-3.22h-.828v-.318Z" transform="translate(-130.213 13.345)"/><path class="a" d="M418.933,332.748h-.714v.93h-.363v-.93h-2v-.272l1.882-2.336h.4l-1.8,2.268h1.531v-.816h.352v.816h.714Z" transform="translate(-129.98 13.345)"/><path class="a" d="M431.261,330.14v3.538H430.9v-3.22h-.828v-.318Z" transform="translate(-128.076 13.345)"/><path class="a" d="M434.3,332.635c0,.6-.42,1.066-1.281,1.066a1.8,1.8,0,0,1-1.27-.454l.181-.284a1.531,1.531,0,0,0,1.134.408c.6,0,.919-.295.919-.726s-.284-.737-1.134-.737h-.816l.181-1.769h1.939v.318h-1.622l-.113,1.134h.454C433.882,331.591,434.3,332,434.3,332.635Z" transform="translate(-127.851 13.345)"/><path class="a" d="M447.362,330.14v3.538H447v-3.22h-.839v-.318Z" transform="translate(-125.921 13.345)"/><path class="a" d="M450.613,332.611a1.134,1.134,0,0,1-1.2,1.134c-.941,0-1.451-.646-1.451-1.769a1.627,1.627,0,0,1,1.622-1.826,1.644,1.644,0,0,1,.839.193l-.147.295a1.236,1.236,0,0,0-.692-.17c-.76,0-1.259.488-1.259,1.451a2.816,2.816,0,0,0,0,.284,1.134,1.134,0,0,1,1.077-.6,1.066,1.066,0,0,1,1.213,1.009Zm-.352,0c0-.465-.352-.76-.9-.76a.816.816,0,0,0-.907.771c0,.386.329.76.941.76a.771.771,0,0,0,.873-.76Z" transform="translate(-125.68 13.346)"/><path class="a" d="M463.291,330.14v3.538h-.363v-3.22H462.1v-.318Z" transform="translate(-123.786 13.345)"/><path class="a" d="M466.407,330.141v.249l-1.485,3.288h-.4l1.463-3.22h-1.826v.658h-.352v-.987Z" transform="translate(-123.557 13.344)"/><path class="a" d="M479.4,330.14v3.538h-.363v-3.22h-.828v-.318Z" transform="translate(-121.628 13.345)"/><path class="a" d="M482.734,332.7c0,.624-.533,1.009-1.383,1.009s-1.361-.386-1.361-1.009a.873.873,0,0,1,.68-.873.805.805,0,0,1-.556-.782c0-.567.488-.93,1.236-.93s1.247.363,1.247.93a.794.794,0,0,1-.556.782.9.9,0,0,1,.692.873Zm-.374,0c0-.431-.374-.7-1.009-.7s-.987.272-.987.7.363.714.987.714,1.009-.284,1.009-.726Zm-1.009-1c.556,0,.884-.238.884-.624s-.352-.646-.884-.646-.873.249-.873.635.329.624.873.624Z" transform="translate(-121.39 13.341)"/><path class="a" d="M494.438,330.14v3.538h-.34v-3.22h-.828v-.318Z" transform="translate(-119.611 13.345)"/><path class="a" d="M497.613,331.885c0,1.2-.658,1.826-1.622,1.826a1.645,1.645,0,0,1-.839-.193l.147-.295a1.236,1.236,0,0,0,.692.17c.76,0,1.247-.488,1.247-1.451a2.584,2.584,0,0,0,0-.283,1.192,1.192,0,1,1-1.066-1.588C497.1,330.116,497.613,330.762,497.613,331.885Zm-.5-.7c0-.386-.329-.76-.941-.76a.771.771,0,0,0-.862.771c0,.465.34.76.9.76a.816.816,0,0,0,.907-.771Z" transform="translate(-119.384 13.335)"/><path class="a" d="M510.915,333.391v.329h-2.483v-.329l1.474-1.44c.4-.4.476-.635.476-.873,0-.408-.295-.669-.828-.669a1.134,1.134,0,0,0-.964.4l-.261-.215a1.576,1.576,0,0,1,1.259-.51c.714,0,1.134.363,1.134.953a1.486,1.486,0,0,1-.578,1.134l-1.2,1.134Z" transform="translate(-117.593 13.337)"/><path class="a" d="M511,331.913c0-1.134.6-1.8,1.417-1.8s1.406.669,1.406,1.8-.59,1.792-1.406,1.792S511,333.036,511,331.913Zm2.449,0c0-.953-.42-1.474-1.032-1.474s-1.043.522-1.043,1.474.42,1.463,1.043,1.463,1.021-.522,1.021-1.463Z" transform="translate(-117.236 13.341)"/><path class="a" d="M525.955,333.391v.329h-2.483v-.329l1.474-1.44c.4-.4.476-.635.476-.873,0-.408-.295-.669-.828-.669a1.134,1.134,0,0,0-.964.4l-.261-.215a1.576,1.576,0,0,1,1.259-.51c.714,0,1.134.363,1.134.953a1.486,1.486,0,0,1-.578,1.134l-1.2,1.134Z" transform="translate(-115.579 13.337)"/><path class="a" d="M527.062,330.14v3.538H526.7v-3.22h-.839v-.318Z" transform="translate(-115.245 13.345)"/><path class="a" d="M541,333.391v.329h-2.483v-.329l1.474-1.44c.4-.4.476-.635.476-.873,0-.408-.295-.669-.828-.669a1.134,1.134,0,0,0-.964.4l-.261-.215a1.576,1.576,0,0,1,1.259-.51c.714,0,1.134.363,1.134.953a1.485,1.485,0,0,1-.578,1.134l-1.145,1.225Z" transform="translate(-113.564 13.337)"/><path class="a" d="M543.529,333.391v.329h-2.517v-.329l1.474-1.44c.4-.4.476-.635.476-.873,0-.408-.295-.669-.828-.669a1.134,1.134,0,0,0-.964.4l-.261-.215a1.576,1.576,0,0,1,1.259-.51c.714,0,1.134.363,1.134.953a1.486,1.486,0,0,1-.578,1.134l-1.2,1.134Z" transform="translate(-113.229 13.337)"/><path class="a" d="M556.035,333.391v.329h-2.483v-.329l1.474-1.44c.4-.4.476-.635.476-.873,0-.408-.295-.669-.828-.669a1.134,1.134,0,0,0-.964.4l-.261-.215a1.576,1.576,0,0,1,1.247-.51c.726,0,1.134.363,1.134.953a1.474,1.474,0,0,1-.59,1.134l-1.168,1.225Z" transform="translate(-111.55 13.337)"/><path class="a" d="M558.491,332.657c0,.59-.42,1.043-1.281,1.043a1.8,1.8,0,0,1-1.27-.454l.181-.284a1.531,1.531,0,0,0,1.134.408c.59,0,.907-.272.907-.714s-.295-.7-.953-.7h-.249v-.272l.975-1.225h-1.8v-.318H558.4v.249l-1,1.259C558.117,331.694,558.491,332.09,558.491,332.657Z" transform="translate(-111.216 13.345)"/><path class="a" d="M612.129,325.185c0,.159-90.8.295-202.773.295s-202.8-.136-202.8-.295,90.784-.295,202.8-.295S612.129,325.015,612.129,325.185Z" transform="translate(-158.016 12.642)"/><g class="i" transform="translate(309.682 211.572)"><rect class="h" width="14.775" height="108.009"/></g><g class="g" transform="translate(184.641 282.059)"><rect class="h" width="14.775" height="37.511"/></g><path class="d" d="M233.2,210.085a19.777,19.777,0,0,1-6.8,0A19.775,19.775,0,0,1,233.2,210.085Z" transform="translate(-155.358 -2.776)"/><path class="d" d="M257.9,210.089a39.685,39.685,0,0,1-6.8.295,39.763,39.763,0,0,1-6.8-.295,39.769,39.769,0,0,1,6.8-.295A39.689,39.689,0,0,1,257.9,210.089Z" transform="translate(-152.962 -2.78)"/><path class="d" d="M281.787,210.089a39.581,39.581,0,0,1-6.8.295,39.58,39.58,0,0,1-6.8-.295,39.568,39.568,0,0,1,6.8-.295A39.572,39.572,0,0,1,281.787,210.089Z" transform="translate(-149.762 -2.78)"/><path class="d" d="M305.681,210.085a78.006,78.006,0,0,1-13.551,0A78.006,78.006,0,0,1,305.681,210.085Z" transform="translate(-146.553 -2.776)"/><path class="d" d="M329.607,210.085a78.007,78.007,0,0,1-13.607,0,78,78,0,0,1,13.607,0Z" transform="translate(-143.356 -2.776)"/><path class="d" d="M353.481,210.085a78.006,78.006,0,0,1-13.551,0A78.009,78.009,0,0,1,353.481,210.085Z" transform="translate(-140.151 -2.776)"/><path class="d" d="M377.381,210.085a78.005,78.005,0,0,1-13.551,0A78.008,78.008,0,0,1,377.381,210.085Z" transform="translate(-136.949 -2.776)"/><path class="d" d="M401.271,210.085a78.007,78.007,0,0,1-13.551,0A78.01,78.01,0,0,1,401.271,210.085Z" transform="translate(-133.749 -2.776)"/><path class="d" d="M425.171,210.085a78.007,78.007,0,0,1-13.551,0A78.007,78.007,0,0,1,425.171,210.085Z" transform="translate(-130.548 -2.776)"/><path class="d" d="M449.059,210.085a77.866,77.866,0,0,1-13.539,0,77.872,77.872,0,0,1,13.539,0Z" transform="translate(-127.346 -2.776)"/><path class="d" d="M472.961,210.085a78.007,78.007,0,0,1-13.551,0A78.007,78.007,0,0,1,472.961,210.085Z" transform="translate(-124.146 -2.776)"/><path class="d" d="M496.861,210.085a78.006,78.006,0,0,1-13.551,0A78.006,78.006,0,0,1,496.861,210.085Z" transform="translate(-120.945 -2.776)"/><path class="d" d="M520.761,210.085a78.007,78.007,0,0,1-13.551,0A78.007,78.007,0,0,1,520.761,210.085Z" transform="translate(-117.743 -2.776)"/><path class="d" d="M544.677,210.085a78.133,78.133,0,0,1-13.607,0A78.124,78.124,0,0,1,544.677,210.085Z" transform="translate(-114.547 -2.776)"/><path class="d" d="M561.8,210.085a19.776,19.776,0,0,1-6.8,0A19.775,19.775,0,0,1,561.8,210.085Z" transform="translate(-111.342 -2.776)"/><path class="f" d="M232.217,296.09a92.416,92.416,0,0,1-7.144,7.563,91.481,91.481,0,0,1-7.563,7.155,90.312,90.312,0,0,1,7.144-7.563,91.489,91.489,0,0,1,7.563-7.155Z" transform="translate(-156.549 8.784)"/><path class="f" d="M260.419,296.31a92.409,92.409,0,0,1-7.144,7.563,89.093,89.093,0,0,1-7.575,7.144,93.644,93.644,0,0,1,7.155-7.563,92.406,92.406,0,0,1,7.563-7.144Z" transform="translate(-152.773 8.813)"/><path class="f" d="M314.269,296.08a91.511,91.511,0,0,1-7.155,7.563,89.421,89.421,0,0,1-7.564,7.155,90.475,90.475,0,0,1,7.155-7.575,92.423,92.423,0,0,1,7.563-7.144Z" transform="translate(-145.56 8.783)"/><path class="f" d="M232.049,284.57a91.5,91.5,0,0,1-7.155,7.563,90.3,90.3,0,0,1-7.563,7.144,91.487,91.487,0,0,1,7.155-7.563A90.3,90.3,0,0,1,232.049,284.57Z" transform="translate(-156.573 7.241)"/><path class="f" d="M286.977,296.28a92.427,92.427,0,0,1-7.144,7.563,90.057,90.057,0,0,1-7.563,7.144,94.614,94.614,0,0,1,7.144-7.563A92.4,92.4,0,0,1,286.977,296.28Z" transform="translate(-149.214 8.809)"/><path class="f" d="M286.809,284.76a91.476,91.476,0,0,1-7.155,7.563,92.416,92.416,0,0,1-7.563,7.144,92.416,92.416,0,0,1,7.144-7.563A91.4,91.4,0,0,1,286.809,284.76Z" transform="translate(-149.238 7.266)"/><path class="f" d="M282.195,276a86.36,86.36,0,0,1-10.115,10.115A88.754,88.754,0,0,1,282.195,276Z" transform="translate(-149.239 6.093)"/><g class="j" transform="translate(246.816 304.862)"><path class="h" d="M396.117,296.08a92.4,92.4,0,0,1-7.144,7.563,91.481,91.481,0,0,1-7.563,7.155,91.376,91.376,0,0,1,7.144-7.575,92.411,92.411,0,0,1,7.563-7.144Z" transform="translate(-381.41 -296.08)"/></g><g class="j" transform="translate(246.611 291.799)"><path class="h" d="M395.937,284.56a90.076,90.076,0,0,1-7.144,7.563,92.432,92.432,0,0,1-7.563,7.144,92.412,92.412,0,0,1,7.144-7.564,94.619,94.619,0,0,1,7.564-7.144Z" transform="translate(-381.23 -284.56)"/></g><g class="j" transform="translate(246.611 277.206)"><path class="h" d="M395.937,271.724a90.067,90.067,0,0,1-7.144,7.563,92.437,92.437,0,0,1-7.563,7.144,182.417,182.417,0,0,1,14.741-14.741Z" transform="translate(-381.23 -271.69)"/></g><g class="j" transform="translate(246.816 263.156)"><path class="h" d="M396.117,259.3a92.407,92.407,0,0,1-7.144,7.564,92.42,92.42,0,0,1-7.563,7.144,92.432,92.432,0,0,1,7.144-7.563A90.061,90.061,0,0,1,396.117,259.3Z" transform="translate(-381.41 -259.3)"/></g><g class="j" transform="translate(246.611 250.081)"><path class="h" d="M395.937,247.77a90.071,90.071,0,0,1-7.144,7.563,91.48,91.48,0,0,1-7.563,7.155,90.288,90.288,0,0,1,7.144-7.563,93.649,93.649,0,0,1,7.564-7.155Z" transform="translate(-381.23 -247.77)"/></g><g class="j" transform="translate(246.612 235.521)"><path class="h" d="M395.937,234.93a90.057,90.057,0,0,1-7.144,7.563,90.073,90.073,0,0,1-7.563,7.144,94.625,94.625,0,0,1,7.144-7.563,94.63,94.63,0,0,1,7.563-7.144Z" transform="translate(-381.23 -234.93)"/></g><path class="f" d="M423.639,296.083a91.491,91.491,0,0,1-7.155,7.563,91.492,91.492,0,0,1-7.563,7.155,177.91,177.91,0,0,1,14.741-14.741Z" transform="translate(-130.909 8.78)"/><path class="f" d="M423.457,284.56a92.411,92.411,0,0,1-7.144,7.563,94.624,94.624,0,0,1-7.563,7.144,90.063,90.063,0,0,1,7.144-7.563,92.416,92.416,0,0,1,7.563-7.144Z" transform="translate(-130.932 7.239)"/><path class="f" d="M423.457,271.724a92.406,92.406,0,0,1-7.144,7.563,94.625,94.625,0,0,1-7.563,7.144,182.394,182.394,0,0,1,14.741-14.741Z" transform="translate(-130.932 5.515)"/><path class="f" d="M423.639,259.3a91.487,91.487,0,0,1-7.155,7.564,92.425,92.425,0,0,1-7.563,7.144,92.4,92.4,0,0,1,7.144-7.563A89.11,89.11,0,0,1,423.639,259.3Z" transform="translate(-130.909 3.856)"/><path class="f" d="M423.457,247.77a92.4,92.4,0,0,1-7.144,7.563,93.649,93.649,0,0,1-7.563,7.155,88.075,88.075,0,0,1,7.144-7.563A91.482,91.482,0,0,1,423.457,247.77Z" transform="translate(-130.932 2.311)"/><path class="d" d="M478.257,296.08a92.405,92.405,0,0,1-7.144,7.563,91.467,91.467,0,0,1-7.563,7.155,91.392,91.392,0,0,1,7.144-7.575,92.428,92.428,0,0,1,7.563-7.144Z" transform="translate(-123.592 8.783)"/><path class="d" d="M478.089,284.56a91.486,91.486,0,0,1-7.155,7.563,92.417,92.417,0,0,1-7.564,7.144,91.5,91.5,0,0,1,7.155-7.563,90.3,90.3,0,0,1,7.563-7.144Z" transform="translate(-123.616 7.239)"/><path class="d" d="M478.089,271.72a91.477,91.477,0,0,1-7.155,7.563,92.422,92.422,0,0,1-7.564,7.144,91.494,91.494,0,0,1,7.155-7.563,88.068,88.068,0,0,1,7.563-7.144Z" transform="translate(-123.616 5.52)"/><path class="d" d="M478.257,259.3a92.407,92.407,0,0,1-7.144,7.564,92.42,92.42,0,0,1-7.563,7.144,92.421,92.421,0,0,1,7.144-7.563A90.07,90.07,0,0,1,478.257,259.3Z" transform="translate(-123.592 3.856)"/><path class="d" d="M478.089,247.77a91.482,91.482,0,0,1-7.155,7.563,91.467,91.467,0,0,1-7.563,7.155,89.423,89.423,0,0,1,7.155-7.563A89.415,89.415,0,0,1,478.089,247.77Z" transform="translate(-123.616 2.311)"/><path class="d" d="M478.089,236.78a91.479,91.479,0,0,1-7.155,7.563,92.412,92.412,0,0,1-7.564,7.144,91.493,91.493,0,0,1,7.155-7.563,90.318,90.318,0,0,1,7.563-7.144Z" transform="translate(-123.616 0.839)"/><path class="f" d="M368.057,296.08a92.436,92.436,0,0,1-7.144,7.563,91.492,91.492,0,0,1-7.563,7.155,91.381,91.381,0,0,1,7.144-7.575,92.422,92.422,0,0,1,7.563-7.144Z" transform="translate(-138.353 8.783)"/><path class="f" d="M367.889,284.56a91.491,91.491,0,0,1-7.155,7.563,90.3,90.3,0,0,1-7.564,7.144,91.478,91.478,0,0,1,7.155-7.564A90.313,90.313,0,0,1,367.889,284.56Z" transform="translate(-138.377 7.239)"/><path class="f" d="M367.889,271.72a91.487,91.487,0,0,1-7.155,7.563,90.3,90.3,0,0,1-7.563,7.144,91.483,91.483,0,0,1,7.155-7.564,88.063,88.063,0,0,1,7.563-7.144Z" transform="translate(-138.377 5.52)"/><path class="f" d="M341.659,296.08a92.431,92.431,0,0,1-7.144,7.563,90.47,90.47,0,0,1-7.575,7.155,90.5,90.5,0,0,1,7.155-7.575,92.442,92.442,0,0,1,7.563-7.144Z" transform="translate(-141.891 8.783)"/><path class="f" d="M341.477,284.564a92.432,92.432,0,0,1-7.144,7.563,92.4,92.4,0,0,1-7.563,7.144,182.418,182.418,0,0,1,14.741-14.741Z" transform="translate(-141.913 7.235)"/><path class="f" d="M336.783,275.86a44.1,44.1,0,0,1-4.8,5.216,42.932,42.932,0,0,1-5.216,4.8,84.63,84.63,0,0,1,10.013-10.013Z" transform="translate(-141.913 6.074)"/><path class="f" d="M368.06,259.3a92.428,92.428,0,0,1-7.167,7.6,92.426,92.426,0,0,1-7.563,7.144,92.406,92.406,0,0,1,7.144-7.563,90.071,90.071,0,0,1,7.586-7.178Z" transform="translate(-138.356 3.856)"/><path class="f" d="M368.057,236.2a92.416,92.416,0,0,1-7.144,7.563,91.484,91.484,0,0,1-7.563,7.155,91.383,91.383,0,0,1,7.144-7.575A92.413,92.413,0,0,1,368.057,236.2Z" transform="translate(-138.353 0.762)"/><path class="f" d="M367.889,247.77a91.486,91.486,0,0,1-7.155,7.563,89.413,89.413,0,0,1-7.564,7.155,89.4,89.4,0,0,1,7.155-7.563A89.425,89.425,0,0,1,367.889,247.77Z" transform="translate(-138.377 2.311)"/><path class="f" d="M451.737,296.08a90.072,90.072,0,0,1-7.144,7.563,91.486,91.486,0,0,1-7.563,7.155,91.381,91.381,0,0,1,7.144-7.575A94.63,94.63,0,0,1,451.737,296.08Z" transform="translate(-127.144 8.783)"/><path class="f" d="M451.6,284.56a92.421,92.421,0,0,1-7.144,7.563,94.64,94.64,0,0,1-7.563,7.144,87.847,87.847,0,0,1,7.144-7.563,92.417,92.417,0,0,1,7.564-7.144Z" transform="translate(-127.163 7.239)"/><path class="f" d="M451.6,271.72a92.406,92.406,0,0,1-7.144,7.563,94.625,94.625,0,0,1-7.563,7.144,87.847,87.847,0,0,1,7.144-7.563,90.075,90.075,0,0,1,7.563-7.144Z" transform="translate(-127.163 5.52)"/><path class="f" d="M451.737,259.3a90.072,90.072,0,0,1-7.144,7.563,92.406,92.406,0,0,1-7.563,7.144,92.406,92.406,0,0,1,7.144-7.563,92.163,92.163,0,0,1,7.564-7.144Z" transform="translate(-127.144 3.856)"/><path class="f" d="M451.6,247.77a92.406,92.406,0,0,1-7.144,7.563,93.655,93.655,0,0,1-7.563,7.155,85.954,85.954,0,0,1,7.144-7.563,91.494,91.494,0,0,1,7.563-7.155Z" transform="translate(-127.163 2.311)"/><path class="f" d="M451.6,234.93a92.406,92.406,0,0,1-7.144,7.563,92.157,92.157,0,0,1-7.563,7.144,89.835,89.835,0,0,1,7.144-7.563,92.42,92.42,0,0,1,7.564-7.144Z" transform="translate(-127.163 0.591)"/><path class="f" d="M451.6,223.26a92.406,92.406,0,0,1-7.144,7.563,94.628,94.628,0,0,1-7.563,7.144,87.843,87.843,0,0,1,7.144-7.563,92.41,92.41,0,0,1,7.563-7.144Z" transform="translate(-127.163 -0.972)"/><path class="f" d="M449.08,213.81a63.486,63.486,0,0,1-5.885,6.3,63.506,63.506,0,0,1-6.3,5.885,61.888,61.888,0,0,1,5.885-6.3,61.884,61.884,0,0,1,6.3-5.885Z" transform="translate(-127.163 -2.238)"/><g class="j" transform="translate(246.816 220.723)"><path class="h" d="M396.117,221.88a90.308,90.308,0,0,1-7.144,7.563,91.491,91.491,0,0,1-7.564,7.155,92.427,92.427,0,0,1,7.144-7.563A91.5,91.5,0,0,1,396.117,221.88Z" transform="translate(-381.41 -221.88)"/></g><g class="j" transform="translate(246.612 207.66)"><path class="h" d="M395.937,210.36a90.074,90.074,0,0,1-7.144,7.563,90.069,90.069,0,0,1-7.563,7.144,94.619,94.619,0,0,1,7.144-7.563,94.625,94.625,0,0,1,7.564-7.144Z" transform="translate(-381.23 -210.36)"/></g><g class="j" transform="translate(246.623 199.008)"><path class="h" d="M390.039,202.73a32.531,32.531,0,0,1-4.2,4.615,33.148,33.148,0,0,1-4.6,4.184,32.885,32.885,0,0,1,4.2-4.6,33.725,33.725,0,0,1,4.6-4.2Z" transform="translate(-381.24 -202.73)"/></g><path class="f" d="M507.519,296.553a89.42,89.42,0,0,1-7.155,7.563,89.406,89.406,0,0,1-7.563,7.155,187.783,187.783,0,0,1,14.741-14.741Z" transform="translate(-119.674 8.843)"/><path class="f" d="M507.337,285a92.416,92.416,0,0,1-7.144,7.563,90.091,90.091,0,0,1-7.563,7.144,94.631,94.631,0,0,1,7.144-7.563A92.407,92.407,0,0,1,507.337,285Z" transform="translate(-119.696 7.298)"/><path class="f" d="M507.258,272.26a92.694,92.694,0,0,1-7.11,7.518,90.328,90.328,0,0,1-7.518,7.11,180.455,180.455,0,0,1,14.628-14.628Z" transform="translate(-119.696 5.592)"/><path class="f" d="M537.157,296.55a88.073,88.073,0,0,1-7.144,7.563,91.5,91.5,0,0,1-7.563,7.155,92.406,92.406,0,0,1,7.144-7.564,93.635,93.635,0,0,1,7.563-7.155Z" transform="translate(-115.702 8.846)"/><path class="f" d="M536.987,285a92.406,92.406,0,0,1-7.144,7.563,92.16,92.16,0,0,1-7.563,7.144,182.4,182.4,0,0,1,14.741-14.741Z" transform="translate(-115.725 7.294)"/><path class="f" d="M526.932,281.051c.057.057-.159.374-.544.839-.193.227-.431.5-.7.794a5.579,5.579,0,0,1-.431.442l-.227.238-.113.125-.068.057h0l-.419-.408h0l.419.42h0l-.068.057-.113.125-.238.227-.454.431-.794.7c-.465.386-.771.59-.828.533s.147-.374.533-.828c.193-.238.431-.51.7-.794l.431-.454.227-.238.113-.125.068-.057h0l.42.42h0c-.828-.828-.227-.227-.42-.408h0v-.057l.113-.113.238-.238.454-.42.794-.7C526.558,281.21,526.864,280.994,526.932,281.051Z" transform="translate(-115.717 6.768)"/><path class="f" d="M564.617,296.55a90.289,90.289,0,0,1-7.144,7.563,93.676,93.676,0,0,1-7.563,7.155,92.432,92.432,0,0,1,7.144-7.563A91.491,91.491,0,0,1,564.617,296.55Z" transform="translate(-112.024 8.845)"/><path class="f" d="M556.847,291.74a21.989,21.989,0,0,1-3.4,3.753,21.229,21.229,0,0,1-3.765,3.345,21.991,21.991,0,0,1,3.345-3.753A20.684,20.684,0,0,1,556.847,291.74Z" transform="translate(-112.055 8.201)"/><path class="d" d="M674.25,108.715c0,.17-112.624.295-251.533.295s-251.567-.125-251.567-.295,112.613-.295,251.567-.295S674.25,108.556,674.25,108.715Z" transform="translate(-162.759 -16.355)"/><rect class="f" width="105.537" height="35.3" rx="4.64" transform="translate(82.053 126.662)"/><path class="h" d="M256.9,162.5l-2.96-5.012-1.134,1.361a1.134,1.134,0,0,1-2.007-.658l-.714-9.185a1.134,1.134,0,0,1,1.735-1.066l7.666,4.706a1.152,1.152,0,0,1-.261,2.086l-1.622.5,3.515,4.74Zm-2.778-6.94,3.164,5.375,2.12-1.293L255.66,154.6l3.164-.964-7.7-4.729H251.1l.726,9.185Z" transform="translate(-152.187 -11.084)"/><g class="k" transform="translate(121.129 128.499)"><path class="h" d="M270.865,171.439c-.159,0-.295-6.917-.295-15.444s.136-15.444.295-15.444.295,6.917.295,15.444S271.058,171.439,270.865,171.439Z" transform="translate(-270.57 -140.55)"/></g><path class="h" d="M276,148.525a1.962,1.962,0,0,1,2.052-1.984,1.882,1.882,0,0,1,1.429.567l-.261.261a1.554,1.554,0,0,0-1.134-.454,1.622,1.622,0,1,0,0,3.232,1.52,1.52,0,0,0,1.134-.465l.261.261a1.86,1.86,0,0,1-1.429.578,1.962,1.962,0,0,1-2.052-2Z" transform="translate(-148.714 -11.249)"/><path class="h" d="M279.78,146.36h.4v4.128h-.4Z" transform="translate(-148.208 -11.272)"/><path class="h" d="M281,146.643a.3.3,0,0,1,.295-.284.283.283,0,0,1,.284.272.295.295,0,1,1-.578,0Zm.091.93h.4v2.914h-.4Z" transform="translate(-148.045 -11.272)"/><path class="h" d="M282.18,148.9a1.44,1.44,0,0,1,1.508-1.485,1.293,1.293,0,0,1,1.134.578l-.295.2a1.021,1.021,0,0,0-.862-.442,1.134,1.134,0,1,0,0,2.268.987.987,0,0,0,.862-.431l.295.2a1.293,1.293,0,0,1-1.134.578,1.44,1.44,0,0,1-1.508-1.474Z" transform="translate(-147.886 -11.132)"/><path class="h" d="M286.27,149.039l-.7.635v.816h-.4v-4.15h.4v2.812l1.758-1.6h.5l-1.259,1.2,1.372,1.735h-.488Z" transform="translate(-147.486 -11.275)"/><path class="h" d="M287.7,150.029l.181-.306a1.815,1.815,0,0,0,1.043.329c.556,0,.794-.193.794-.476,0-.771-1.905-.17-1.905-1.327,0-.488.408-.839,1.134-.839a1.973,1.973,0,0,1,1.043.272l-.181.318a1.451,1.451,0,0,0-.862-.249c-.533,0-.76.2-.76.488,0,.794,1.905.193,1.905,1.327,0,.5-.454.828-1.213.828A1.917,1.917,0,0,1,287.7,150.029Z" transform="translate(-147.147 -11.132)"/><path class="h" d="M279.232,154.8v8.561h-1.588v-7.2H275.83V154.8Z" transform="translate(-148.737 -10.142)"/><path class="h" d="M280.33,159.09c0-2.812,1.542-4.4,3.572-4.4s3.583,1.588,3.583,4.4-1.542,4.411-3.583,4.411S280.33,161.9,280.33,159.09Zm5.556,0c0-2.064-.805-3.016-1.984-3.016s-1.973.953-1.973,3.016.816,3.028,1.973,3.028,1.984-.953,1.984-3.028Z" transform="translate(-148.134 -10.157)"/><path class="h" d="M287.41,161.649a1.009,1.009,0,1,1,1.009,1.009.986.986,0,0,1-1.009-1.009Z" transform="translate(-147.186 -9.36)"/><path class="h" d="M296.362,160.7c0,1.508-1.134,2.755-3.4,2.755a5.364,5.364,0,0,1-3.22-1l.68-1.236a4.014,4.014,0,0,0,2.517.85c1.134,0,1.814-.5,1.814-1.315s-.533-1.327-2.268-1.327h-2.075l.442-4.661h5.035v1.395H292.2l-.181,1.984h.816C295.342,158.115,296.362,159.215,296.362,160.7Z" transform="translate(-146.874 -10.146)"/><path class="h" d="M296.38,159.09c0-2.812,1.542-4.4,3.572-4.4s3.583,1.588,3.583,4.4S302,163.5,299.952,163.5,296.38,161.9,296.38,159.09Zm5.556,0c0-2.064-.805-3.016-1.984-3.016s-1.962.953-1.962,3.016.805,3.028,1.962,3.028S301.936,161.165,301.936,159.09Z" transform="translate(-145.984 -10.157)"/><path class="h" d="M303.64,159.09c0-2.812,1.542-4.4,3.572-4.4s3.583,1.588,3.583,4.4-1.542,4.411-3.583,4.411S303.64,161.9,303.64,159.09Zm5.556,0c0-2.064-.816-3.016-1.984-3.016s-1.973.953-1.973,3.016.805,3.028,1.973,3.028S309.2,161.165,309.2,159.09Z" transform="translate(-145.012 -10.157)"/><rect class="f" width="105.537" height="35.3" rx="2.78" transform="translate(206.799 126.662)"/><g class="i" transform="translate(206.799 126.662)"><rect class="h" width="105.537" height="35.3" rx="3.41"/></g><path class="h" d="M389.362,147.911c0,.839-.6,1.338-1.6,1.338h-1.055v1.213H386.3V146.55h1.463C388.783,146.573,389.362,147.06,389.362,147.911Zm-.408,0c0-.624-.42-.975-1.2-.975h-1.043v1.95h1.043c.805,0,1.225-.363,1.225-.975Z" transform="translate(-133.939 -11.247)"/><path class="h" d="M392.341,149.03H389.88a1.179,1.179,0,0,0,2.041.635l.215.261A1.429,1.429,0,0,1,391,150.4a1.574,1.574,0,1,1,1.327-1.5A1.18,1.18,0,0,1,392.341,149.03Zm-2.461-.295h2.086a1.009,1.009,0,0,0-1.043-.975,1.032,1.032,0,0,0-1.066.975Z" transform="translate(-133.517 -11.142)"/><path class="h" d="M394.175,147.411v.386h-.091a.953.953,0,0,0-1,1.134v1.417h-.4v-2.937h.352v.567A1.134,1.134,0,0,1,394.175,147.411Z" transform="translate(-133.083 -11.133)"/><path class="h" d="M395.187,147.228v.352h.907v.329h-.9v2.585h-.4v-2.608h-.522v-.329h.522v-.363a.817.817,0,0,1,.9-.873.907.907,0,0,1,.578.181l-.136.295a.658.658,0,0,0-.431-.147A.511.511,0,0,0,395.187,147.228Z" transform="translate(-132.87 -11.278)"/><path class="h" d="M396.05,148.9a1.5,1.5,0,1,1,1.5,1.5,1.44,1.44,0,0,1-1.5-1.5Zm2.585,0a1.134,1.134,0,1,0-1.134,1.134,1.077,1.077,0,0,0,1.134-1.134Z" transform="translate(-132.634 -11.133)"/><path class="h" d="M400.885,147.411v.386h-.091a.953.953,0,0,0-1,1.134v1.417h-.4v-2.937h.386v.567A1.134,1.134,0,0,1,400.885,147.411Z" transform="translate(-132.185 -11.133)"/><path class="h" d="M406.193,148.672v1.678h-.4v-1.667c0-.624-.318-.941-.839-.941a.941.941,0,0,0-.987,1.066v1.542h-.4v-1.667c0-.624-.318-.941-.851-.941a.952.952,0,0,0-.987,1.066v1.542h-.4v-2.937h.386v.533a1.134,1.134,0,0,1,1.077-.556,1.055,1.055,0,0,1,1.043.612,1.293,1.293,0,0,1,1.134-.612,1.134,1.134,0,0,1,1.213,1.281Z" transform="translate(-131.925 -11.135)"/><path class="h" d="M408.821,148.548v1.8h-.374V149.9a1.134,1.134,0,0,1-1.009.476c-.669,0-1.077-.34-1.077-.85s.295-.828,1.134-.828h.93v-.181c0-.51-.283-.782-.828-.782a1.463,1.463,0,0,0-.975.352l-.181-.295a1.86,1.86,0,0,1,1.191-.4,1.043,1.043,0,0,1,1.191,1.157Zm-.4.941v-.476h-.918c-.567,0-.748.215-.748.522s.272.556.737.556A.93.93,0,0,0,408.424,149.489Z" transform="translate(-131.252 -11.136)"/><path class="h" d="M412.189,148.672v1.678h-.4v-1.667c0-.624-.318-.941-.873-.941a.964.964,0,0,0-1.032,1.066v1.542h-.4v-2.937h.374v.544A1.236,1.236,0,0,1,411,147.39a1.134,1.134,0,0,1,1.191,1.281Z" transform="translate(-130.833 -11.135)"/><path class="h" d="M412.58,148.9a1.44,1.44,0,0,1,1.508-1.485,1.293,1.293,0,0,1,1.134.578l-.295.2a1.021,1.021,0,0,0-.862-.442,1.134,1.134,0,1,0,0,2.268.987.987,0,0,0,.862-.431l.295.2a1.293,1.293,0,0,1-1.134.578,1.44,1.44,0,0,1-1.508-1.474Z" transform="translate(-130.419 -11.132)"/><path class="h" d="M418.17,149.02H415.71a1.171,1.171,0,0,0,2.03.635l.227.261a1.429,1.429,0,0,1-1.134.476,1.451,1.451,0,0,1-1.542-1.5,1.417,1.417,0,0,1,1.44-1.485,1.395,1.395,0,0,1,1.417,1.485Zm-2.461-.295H417.8a1.032,1.032,0,0,0-1.043-.975,1.009,1.009,0,0,0-1.043.975Z" transform="translate(-130.056 -11.132)"/><path class="h" d="M393.187,160.915c0,1.588-1.383,2.585-3.515,2.585s-3.481-1-3.481-2.585a2.132,2.132,0,0,1,1.372-2.041,1.962,1.962,0,0,1-1.066-1.8c0-1.463,1.281-2.381,3.175-2.381s3.209.919,3.209,2.381a1.984,1.984,0,0,1-1.134,1.8A2.143,2.143,0,0,1,393.187,160.915Zm-1.6,0c0-.85-.737-1.372-1.916-1.372s-1.882.522-1.882,1.372.714,1.383,1.882,1.383,1.973-.567,1.973-1.429Zm-3.527-3.719c0,.726.612,1.134,1.61,1.134s1.644-.465,1.644-1.134-.658-1.213-1.644-1.213-1.61.4-1.61,1.168Z" transform="translate(-133.954 -10.157)"/><path class="h" d="M393.33,161.649a1.009,1.009,0,1,1,1,1.009.987.987,0,0,1-1-1.009Z" transform="translate(-132.998 -9.36)"/><path class="h" d="M402.271,160.7c0,1.508-1.134,2.755-3.4,2.755a5.33,5.33,0,0,1-3.209-1l.669-1.236a4.014,4.014,0,0,0,2.517.85c1.134,0,1.814-.5,1.814-1.315s-.533-1.327-2.268-1.327h-2.064l.431-4.661h5.035v1.395h-3.708l-.181,1.984h.816C401.262,158.115,402.271,159.215,402.271,160.7Z" transform="translate(-132.686 -10.146)"/><path class="h" d="M402.3,159.09c0-2.812,1.531-4.4,3.572-4.4s3.583,1.588,3.583,4.4-1.542,4.411-3.583,4.411S402.3,161.9,402.3,159.09Zm5.545,0c0-2.064-.805-3.016-1.973-3.016s-1.973.953-1.973,3.016.805,3.028,1.973,3.028S407.845,161.165,407.845,159.09Z" transform="translate(-131.796 -10.157)"/><path class="h" d="M409.55,159.09c0-2.812,1.542-4.4,3.572-4.4s3.583,1.588,3.583,4.4-1.542,4.411-3.583,4.411S409.55,161.9,409.55,159.09Zm5.556,0c0-2.064-.805-3.016-1.984-3.016s-1.973.953-1.973,3.016.816,3.028,1.973,3.028,1.984-.953,1.984-3.028Z" transform="translate(-130.825 -10.157)"/><path class="h" d="M361.593,162.793a1.384,1.384,0,0,1-.748-.227,1.361,1.361,0,0,1-.578-1.293l.556-4.048a.261.261,0,0,0-.068-.181l-3.016-2.744a1.338,1.338,0,0,1,.658-2.268l4.014-.726a.215.215,0,0,0,.159-.125l1.678-3.719a1.349,1.349,0,0,1,2.4-.079l1.928,3.595a.216.216,0,0,0,.17.1l4.048.454a1.349,1.349,0,0,1,.828,2.268l-2.823,2.948a.25.25,0,0,0,0,.193l.828,3.992a1.327,1.327,0,0,1-.488,1.327,1.3,1.3,0,0,1-1.406.159l-3.708-1.837a.227.227,0,0,0-.193,0l-3.549,2.018A1.259,1.259,0,0,1,361.593,162.793Zm3.878-15.025h0a.193.193,0,0,0-.181.113l-1.69,3.7a1.338,1.338,0,0,1-.987.771l-4.014.726a.214.214,0,0,0-.1.363l3.016,2.744a1.349,1.349,0,0,1,.431,1.134l-.556,4.037a.238.238,0,0,0,.091.2.249.249,0,0,0,.227,0l3.538-2.03a1.349,1.349,0,0,1,1.247,0l3.674,1.78a.25.25,0,0,0,.227,0,.227.227,0,0,0,.068-.215l-.828-3.992a1.35,1.35,0,0,1,.352-1.2l2.812-2.948a.2.2,0,0,0-.125-.352l-4.048-.442a1.372,1.372,0,0,1-1.043-.7l-1.928-3.595A.193.193,0,0,0,365.471,147.768Z" transform="translate(-137.819 -11.229)"/><rect class="e" width="105.537" height="35.3" rx="3.64" transform="translate(331.544 126.662)"/><g class="k" transform="translate(370.62 128.499)"><path class="h" d="M490.885,171.439c-.159,0-.295-6.917-.295-15.444s.136-15.444.295-15.444.295,6.917.295,15.444S491.055,171.439,490.885,171.439Z" transform="translate(-490.59 -140.55)"/></g><path class="h" d="M496.33,146.571h1.588a1.962,1.962,0,1,1,0,3.912H496.33Zm1.565,3.549a1.6,1.6,0,1,0,0-3.186h-1.134v3.186Z" transform="translate(-119.201 -11.245)"/><path class="h" d="M500.07,148.9a1.5,1.5,0,1,1,1.5,1.5,1.44,1.44,0,0,1-1.5-1.5Zm2.585,0a1.134,1.134,0,1,0-1.134,1.134,1.077,1.077,0,0,0,1.134-1.134Z" transform="translate(-118.7 -11.133)"/><path class="h" d="M507.726,147.43l-1.134,2.937h-.374l-.93-2.4-.93,2.4h-.374l-1.134-2.937h.386l.918,2.495.941-2.495h.34l.941,2.495.93-2.495Z" transform="translate(-118.327 -11.129)"/><path class="h" d="M510.389,148.672v1.678h-.4v-1.667c0-.624-.318-.941-.885-.941a.964.964,0,0,0-1.021,1.066v1.542h-.4v-2.937h.352v.544a1.236,1.236,0,0,1,1.134-.567,1.134,1.134,0,0,1,1.213,1.281Z" transform="translate(-117.679 -11.135)"/><path class="h" d="M511,146.36h.4v4.128H511Z" transform="translate(-117.236 -11.272)"/><path class="h" d="M512.09,148.9a1.5,1.5,0,1,1,1.5,1.5,1.44,1.44,0,0,1-1.5-1.5Zm2.585,0a1.134,1.134,0,1,0-1.134,1.134,1.066,1.066,0,0,0,1.134-1.134Z" transform="translate(-117.09 -11.133)"/><path class="h" d="M517.681,148.549v1.8H517.3V149.9a1.134,1.134,0,0,1-1.009.476c-.658,0-1.066-.34-1.066-.85s.283-.828,1.134-.828h.885v-.181c0-.51-.283-.782-.828-.782a1.5,1.5,0,0,0-.986.352l-.181-.295a1.915,1.915,0,0,1,1.2-.4,1.043,1.043,0,0,1,1.236,1.157Zm-.4.941v-.476h-.919c-.578,0-.76.215-.76.522s.272.556.748.556a.941.941,0,0,0,.885-.6Z" transform="translate(-116.67 -11.137)"/><path class="h" d="M521.061,146.363v4.128h-.386v-.578a1.259,1.259,0,0,1-1.134.6,1.5,1.5,0,0,1,0-2.982,1.3,1.3,0,0,1,1.134.578V146.34Zm-.4,2.676a1.134,1.134,0,1,0-1.134,1.134,1.077,1.077,0,0,0,1.134-1.134Z" transform="translate(-116.275 -11.275)"/><path class="h" d="M503.078,160.712a2.858,2.858,0,0,1-3.13,2.778c-2.336,0-3.708-1.508-3.708-4.264,0-2.937,1.712-4.536,4.2-4.536a4.343,4.343,0,0,1,2.268.544l-.59,1.2a2.9,2.9,0,0,0-1.622-.408c-1.622,0-2.631,1-2.631,2.937h0a2.9,2.9,0,0,1,2.268-.9,2.676,2.676,0,0,1,2.948,2.642Zm-1.542.068c0-.9-.669-1.451-1.712-1.451a1.554,1.554,0,0,0-1.735,1.463c0,.816.635,1.451,1.78,1.451a1.485,1.485,0,0,0,1.667-1.451Z" transform="translate(-119.213 -10.157)"/><path class="h" d="M503.07,161.649a1.009,1.009,0,1,1,1,1.009.987.987,0,0,1-1-1.009Z" transform="translate(-118.298 -9.36)"/><path class="h" d="M512.011,160.7c0,1.508-1.134,2.755-3.4,2.755a5.352,5.352,0,0,1-3.209-1l.669-1.236a4.014,4.014,0,0,0,2.517.85c1.134,0,1.814-.5,1.814-1.315s-.522-1.327-2.268-1.327H506.08l.442-4.661h5.023v1.395h-3.685l-.181,1.984h.816C511,158.115,512.011,159.215,512.011,160.7Z" transform="translate(-117.986 -10.146)"/><path class="h" d="M512,159.09c0-2.812,1.542-4.4,3.572-4.4s3.583,1.588,3.583,4.4-1.542,4.411-3.583,4.411S512,161.9,512,159.09Zm5.545,0c0-2.064-.805-3.016-1.973-3.016s-1.973.953-1.973,3.016.805,3.028,1.973,3.028,2.018-.953,2.018-3.028Z" transform="translate(-117.102 -10.157)"/><path class="h" d="M519.29,159.09c0-2.812,1.542-4.4,3.572-4.4s3.583,1.588,3.583,4.4-1.542,4.411-3.583,4.411S519.29,161.9,519.29,159.09Zm5.556,0c0-2.064-.805-3.016-1.984-3.016s-1.962.953-1.962,3.016.805,3.028,1.962,3.028S524.846,161.165,524.846,159.09Z" transform="translate(-116.125 -10.157)"/><path class="h" d="M475.655,164.76a8.085,8.085,0,1,1,8.085-8.085A8.085,8.085,0,0,1,475.655,164.76Zm0-15.036a6.951,6.951,0,1,0,6.951,6.951,6.951,6.951,0,0,0-6.951-6.951Z" transform="translate(-123.053 -10.974)"/><path class="h" d="M475.127,160.72a.522.522,0,0,1-.431-.2l-3.4-4.139a.59.59,0,0,1,.079-.805.567.567,0,0,1,.794.079l2.96,3.583,2.71-3.776a.567.567,0,0,1,.794-.136.578.578,0,0,1,.125.794l-3.13,4.377a.567.567,0,0,1-.442.227Z" transform="translate(-122.571 -10.086)"/><path class="h" d="M474.687,161.012a.567.567,0,0,1-.567-.567v-7.938a.567.567,0,0,1,.567-.567.578.578,0,0,1,.567.567v7.938a.578.578,0,0,1-.567.567Z" transform="translate(-122.176 -10.525)"/><circle class="d" cx="3.039" cy="3.039" r="3.039" transform="translate(33.043 74.954)"/><circle class="d" cx="3.039" cy="3.039" r="3.039" transform="translate(43.623 74.954)"/><circle class="d" cx="3.039" cy="3.039" r="3.039" transform="translate(54.203 74.954)"/><path class="d" d="M551.037,29.5l-.057-.023.646-2.245.057.023Z" transform="translate(-111.88 -27.23)"/><path class="e" d="M643.713,409.275c0,.159-100.207.295-223.785.295s-223.808-.136-223.808-.295,100.185-.295,223.808-.295S643.713,409.116,643.713,409.275Z" transform="translate(-159.414 23.906)"/></g><g transform="translate(665.138 306.391)"><path class="d" d="M654.8,428.752c-.159,0-.363-26.58-.454-59.351s0-59.351.125-59.351.363,26.568.454,59.351S654.957,428.752,654.8,428.752Z" transform="translate(-580.163 -268.508)"/><path class="d" d="M671.493,356.08a3.22,3.22,0,0,1-.215.624c-.193.442-.431,1.021-.726,1.712l-.522,1.247-.544,1.508c-.193.533-.4,1.134-.624,1.724s-.386,1.281-.59,1.973a79.087,79.087,0,0,0-2.268,9.888,121.124,121.124,0,0,0-1.259,12.371,169.907,169.907,0,0,0,.635,22.588c.261,2.892.522,5.216.714,6.8.091.76.159,1.372.2,1.86a2.33,2.33,0,0,1,0,.646,2.537,2.537,0,0,1-.147-.635l-.306-1.837c-.261-1.61-.59-3.935-.9-6.8a150.107,150.107,0,0,1-.816-22.679,115.364,115.364,0,0,1,1.3-12.473,77.111,77.111,0,0,1,2.393-9.922c.227-.692.42-1.361.646-1.973s.454-1.191.669-1.724.4-1.043.578-1.508.408-.85.578-1.225l.828-1.678A2.713,2.713,0,0,1,671.493,356.08Z" transform="translate(-578.863 -262.342)"/><path class="d" d="M670.038,337.13a6.3,6.3,0,0,1-.261.873l-.839,2.472c-.193.544-.4,1.134-.612,1.78s-.42,1.383-.658,2.143c-.465,1.542-1.021,3.288-1.508,5.25-.249.987-.522,2.007-.805,3.073s-.5,2.2-.76,3.4c-.567,2.268-.975,4.819-1.485,7.45-.9,5.273-1.678,11.113-2.268,17.259s-.726,12.043-.805,17.406,0,10.206.272,14.22c.068,2.03.193,3.855.306,5.454s.193,2.994.295,4.128.147,1.95.193,2.6a4.7,4.7,0,0,1,0,.918,5.6,5.6,0,0,1-.147-.907c-.079-.646-.181-1.508-.306-2.6s-.272-2.506-.4-4.1-.295-3.4-.386-5.466c-.272-4.048-.385-8.879-.4-14.254s.25-11.26.771-17.44,1.338-12.02,2.268-17.315c.544-2.631.964-5.148,1.553-7.461.272-1.134.533-2.268.794-3.4l.85-3.073c.51-1.962,1.134-3.708,1.588-5.239l.7-2.143c.238-.635.465-1.225.658-1.769l.953-2.438A4.536,4.536,0,0,1,670.038,337.13Z" transform="translate(-579.472 -264.88)"/><path class="d" d="M652.054,433.019a.815.815,0,0,1,0-.306,4.16,4.16,0,0,0-.079-.918l-.238-3.515c-.193-3.107-.476-7.518-.816-12.95-.692-10.92-1.712-26.024-3.549-42.625-.941-8.3-2.03-16.181-3.164-23.325-.6-3.572-1.134-6.962-1.769-10.126s-1.134-6.1-1.746-8.777-1.134-5.091-1.6-7.212-.918-3.935-1.293-5.42-.635-2.6-.839-3.4c-.079-.363-.147-.658-.2-.9a1.711,1.711,0,0,1-.057-.306.827.827,0,0,1,.113.295c.068.227.147.522.261.873l.941,3.4c.408,1.474.9,3.288,1.395,5.409s1.134,4.536,1.69,7.2,1.225,5.6,1.814,8.777,1.2,6.554,1.814,10.115c1.134,7.155,2.268,15.048,3.209,23.359,1.848,16.612,2.8,31.751,3.4,42.659.295,5.477.51,9.9.635,12.961,0,1.5.091,2.676.125,3.527v.918C652.1,432.985,652.054,433.019,652.054,433.019Z" transform="translate(-582.522 -268.08)"/><path class="f" d="M657.162,322.1c-.351-3.765-4.15-6.6-7.938-6.645s-7.3,2.268-9.616,5.228a30.1,30.1,0,0,0-4.626,10.274c-2.551,8.867-3.946,18.143-2.858,27.351s4.808,18.143,11.339,24.663c1.066,1.055,2.449,2.1,3.923,1.792a4.6,4.6,0,0,0,2.064-1.281,61.232,61.232,0,0,0,19.867-46.492c-.1-3.493-.556-7.121-2.483-10.024s-6.429-5.976-9.718-4.819" transform="translate(-583.185 -267.784)"/><path class="f" d="M631.691,296.348,626.373,306c-.125.215-.295.476-.544.5s-.488-.249-.646-.476L611.11,284.407l3.243-1.837Z" transform="translate(-585.95 -272.189)"/><g class="l" transform="translate(25.16 10.381)"><path d="M631.691,296.348,626.373,306c-.125.215-.295.476-.544.5s-.488-.249-.646-.476L611.11,284.407l3.243-1.837Z" transform="translate(-611.11 -282.57)"/></g><path class="f" d="M660.257,314.957l-48.023-28.349c-.5-.295-1.032-.635-1.134-1.134a2.268,2.268,0,0,1,.862-1.928,33.078,33.078,0,0,1,25.661-10.081,29.3,29.3,0,0,1,23.2,14.424c4.638,8.289,4.785,19.277-.522,27.1" transform="translate(-585.952 -273.415)"/><path class="d" d="M618.2,277.1a2.519,2.519,0,0,1,.624-.079c.42,0,1.032-.091,1.814-.091a36.509,36.509,0,0,1,6.668.533,38.929,38.929,0,0,1,31.082,28.122,35.158,35.158,0,0,1,1.191,6.577,13.613,13.613,0,0,1,.079,1.406,2.268,2.268,0,0,1-.374,1.043,8.059,8.059,0,0,0,.079-2.427A41.787,41.787,0,0,0,658,305.7a39.28,39.28,0,0,0-30.764-27.838,41.371,41.371,0,0,0-6.6-.7C619.107,277.123,618.2,277.146,618.2,277.1Z" transform="translate(-585 -272.944)"/><path class="d" d="M650.751,292.8a11.624,11.624,0,0,1-2.427,1.134c-1.531.6-3.663,1.372-6.055,2.132s-4.536,1.372-6.18,1.758a11.6,11.6,0,0,1-2.619.5,13.381,13.381,0,0,1,2.506-.9l6.123-1.905,6.089-1.973A13.021,13.021,0,0,1,650.751,292.8Z" transform="translate(-582.955 -270.818)"/><path class="d" d="M642.064,274.88a21.14,21.14,0,0,1,.567,5.364,20.345,20.345,0,0,1-.306,5.375,34.856,34.856,0,0,1-.272-5.364,31.394,31.394,0,0,1,.011-5.375Z" transform="translate(-581.82 -273.219)"/><path class="d" d="M611.73,285.277a21.92,21.92,0,0,1,3.481-1.225c2.188-.669,5.228-1.52,8.607-2.336s6.486-1.451,8.731-1.837a21.2,21.2,0,0,1,3.663-.5,26.07,26.07,0,0,1-3.583.9c-2.268.5-5.3,1.134-8.675,2s-6.418,1.6-8.629,2.177a25.715,25.715,0,0,1-3.595.828Z" transform="translate(-585.867 -272.616)"/><path class="f" d="M642.964,314.533c-4.128-3.13-8.493-3.753-13.675-3.549a42.1,42.1,0,0,0-14.968,3.867c-8.1,3.549-15.705,8.777-20.547,16.17s-6.52,17.2-2.9,25.264a3.55,3.55,0,0,0,1.644,1.984,3.833,3.833,0,0,0,2.71-.2c9.208-3,18.483-6.033,26.954-10.739s16.17-11.249,20.717-19.81a17.1,17.1,0,0,0,2.189-6.566,8.187,8.187,0,0,0-2.12-6.418" transform="translate(-588.922 -268.387)"/><path class="d" d="M642.668,313.25a2.689,2.689,0,0,1-.658.272l-1.928.669-1.395.465c-.51.181-1.055.408-1.633.635-1.134.465-2.517.941-3.946,1.633l-2.268,1.032c-.782.352-1.565.805-2.393,1.225-1.678.816-3.4,1.871-5.159,2.926a81.112,81.112,0,0,0-20.32,17.882c-1.281,1.644-2.54,3.186-3.561,4.74-.522.771-1.066,1.485-1.52,2.211l-1.315,2.109c-.862,1.327-1.508,2.608-2.12,3.708-.295.556-.59,1.055-.839,1.542l-.635,1.327c-.374.748-.68,1.349-.907,1.826a3.4,3.4,0,0,1-.351.624,2.918,2.918,0,0,1,.249-.669l.805-1.882.59-1.349c.238-.488.522-1.009.805-1.565.59-1.134,1.213-2.415,2.052-3.765.42-.68.839-1.395,1.293-2.143s.987-1.463,1.5-2.268c1.021-1.576,2.268-3.141,3.549-4.808a85.53,85.53,0,0,1,9.446-9.888,87.035,87.035,0,0,1,11-8.108c1.826-1.055,3.527-2.086,5.216-2.9.839-.408,1.633-.85,2.427-1.2l2.268-1c1.44-.669,2.812-1.134,3.992-1.565.59-.215,1.134-.42,1.656-.59l1.417-.42,1.962-.567a4.059,4.059,0,0,1,.726-.136Z" transform="translate(-588.547 -268.079)"/><path class="d" d="M610.592,328.66a97.086,97.086,0,0,1-10.047,3.243,94.819,94.819,0,0,1-10.206,2.676,98.513,98.513,0,0,1,10.047-3.266A99.511,99.511,0,0,1,610.592,328.66Z" transform="translate(-588.732 -266.015)"/><path class="d" d="M607.859,350.732a16.6,16.6,0,0,1-.215-3.13c0-1.928-.068-4.6,0-7.563s.238-5.67.4-7.552a15.433,15.433,0,0,1,.4-3.107,18.01,18.01,0,0,1,0,3.13c-.068,2.12-.147,4.695-.238,7.552s-.136,5.42-.181,7.541a18.2,18.2,0,0,1-.159,3.13Z" transform="translate(-586.418 -265.918)"/><path class="d" d="M624.785,342.553c-.159,0-.658-5.42-1.134-12.145s-.714-12.167-.556-12.179.658,5.42,1.134,12.145S624.944,342.542,624.785,342.553Z" transform="translate(-584.351 -267.412)"/><path class="d" d="M603.73,317.786a17.9,17.9,0,0,1,3.22-.1c1.984,0,4.729.068,7.756.17s5.772.227,7.745.34a18.227,18.227,0,0,1,3.209.318,18.432,18.432,0,0,1-3.209.091c-2,0-4.728-.068-7.767-.17s-5.76-.227-7.745-.34a19.083,19.083,0,0,1-3.209-.306Z" transform="translate(-586.938 -267.489)"/><path class="d" d="M643.966,383.423a2.376,2.376,0,0,1-.068-.646,14.08,14.08,0,0,0-.091-1.837c-.068-1.61-.091-3.935,0-6.8s.249-6.293.59-10.081.918-7.938,1.69-12.247,1.758-8.391,2.733-12.065,2.03-6.94,2.994-9.65,1.792-4.9,2.427-6.373c.295-.7.544-1.259.737-1.712a3.9,3.9,0,0,1,.283-.578,2.446,2.446,0,0,1-.181.624c-.159.454-.374,1.032-.624,1.746-.567,1.5-1.349,3.7-2.268,6.418s-1.894,6-2.88,9.661-1.882,7.734-2.676,12.031-1.327,8.437-1.724,12.2-.612,7.167-.714,10.035-.159,5.182-.159,6.8V382.8A3.5,3.5,0,0,1,643.966,383.423Z" transform="translate(-581.578 -266.983)"/><path class="d" d="M647.882,348.37a12.981,12.981,0,0,1-1.916,2.109c-1.236,1.236-3.005,2.9-5.012,4.661s-3.9,3.3-5.3,4.366a13.389,13.389,0,0,1-2.268,1.633,13.494,13.494,0,0,1,2.075-1.939l5.159-4.536,5.125-4.536a14.529,14.529,0,0,1,2.132-1.758Z" transform="translate(-582.965 -263.375)"/><path class="d" d="M661.183,361.474a21.18,21.18,0,0,1-2.041-2.824l-4.751-6.928-4.842-6.86a21.922,21.922,0,0,1-1.939-2.892,20.9,20.9,0,0,1,2.268,2.653c1.327,1.69,3.107,4.071,4.989,6.8s3.493,5.193,4.615,7.031A21.118,21.118,0,0,1,661.183,361.474Z" transform="translate(-581.061 -264.232)"/><path class="d" d="M655.251,325.21c.091.136-4.955,3.538-11.271,7.6s-11.5,7.235-11.589,7.1,4.967-3.527,11.339-7.586S655.171,325.074,655.251,325.21Z" transform="translate(-583.099 -266.477)"/><path class="d" d="M666.866,340.469a92.727,92.727,0,0,1-7.631-7.053A95.759,95.759,0,0,1,652,326a190.052,190.052,0,0,1,14.877,14.526Z" transform="translate(-580.472 -266.371)"/><path class="f" d="M668.277,342.245l4.332-.363a21.3,21.3,0,0,0,8.754-2.676,34.358,34.358,0,0,1,4.082-2.052c5.352-2.143,11.339-1.758,17.1-2.052a70.668,70.668,0,0,0,27.215-6.962,2.586,2.586,0,0,0,1.134-1.066c.885-1.622-.771-3.073-2.189-3.946-7.3-4.536-14.741-9.072-23.019-11.339s-17.678-1.86-24.754,3c-8.289,5.67-11.339,17.44-12.712,27.408" transform="translate(-578.3 -268.453)"/><path class="d" d="M731.023,326.043a5.125,5.125,0,0,1-.726-.352l-2.064-1.066c-1.78-.941-4.343-2.325-7.586-3.878a69.695,69.695,0,0,0-11.748-4.536,38.7,38.7,0,0,0-15.218-1.236,26.082,26.082,0,0,0-13.88,5.953,31.035,31.035,0,0,0-7.235,10.206,84.113,84.113,0,0,0-3.141,7.938l-.771,2.177a4.408,4.408,0,0,1-.306.76,6.828,6.828,0,0,1,.193-.794c.17-.556.4-1.293.669-2.268a73.155,73.155,0,0,1,2.994-7.994,30.615,30.615,0,0,1,7.246-10.387,26.4,26.4,0,0,1,14.152-6.135,38.679,38.679,0,0,1,15.444,1.3,67.214,67.214,0,0,1,11.782,4.672c3.232,1.6,5.772,3.039,7.518,4.037l2.007,1.134A3.677,3.677,0,0,1,731.023,326.043Z" transform="translate(-578.282 -267.956)"/><path class="d" d="M717.394,331.562c-.079.125-5.749-3.538-12.655-8.187s-12.473-8.539-12.349-8.675,5.76,3.538,12.666,8.187S717.485,331.426,717.394,331.562Z" transform="translate(-575.063 -267.885)"/><path class="d" d="M710.094,314.44a22.113,22.113,0,0,1-8.334.68,28.044,28.044,0,0,1,4.162-.419A27.694,27.694,0,0,1,710.094,314.44Z" transform="translate(-573.807 -267.92)"/><path class="d" d="M687.717,311.59a10.672,10.672,0,0,1-1.86,2.9,12.474,12.474,0,0,1-2.347,2.676,10.816,10.816,0,0,1,1.86-2.9,12.159,12.159,0,0,1,2.347-2.676Z" transform="translate(-576.252 -268.301)"/><path class="d" d="M693.737,333.951a14.31,14.31,0,0,1-2.722-1.474c-1.644-1-3.855-2.449-6.214-4.173s-4.456-3.334-5.953-4.536a17.014,17.014,0,0,1-2.359-2.018,15.876,15.876,0,0,1,2.608,1.69l6.033,4.388c2.359,1.712,4.536,3.22,6.1,4.3a18.843,18.843,0,0,1,2.506,1.826Z" transform="translate(-577.192 -266.94)"/><path class="f" d="M675.1,354.962c-4.139-1.134-9.072,2.937-9.922,7.121s.726,8.482,2.563,12.337a62.843,62.843,0,0,0,17.1,22.373c7.4,5.9,16.669,9.673,26.081,9.627-1.746-8.119.465-16.6-.51-24.856a32.306,32.306,0,0,0-28.621-28.349c-2.642-.283-5.67-.7-6.8,1.735" transform="translate(-578.739 -262.755)"/><path class="d" d="M709.784,406.189a3.4,3.4,0,0,1-.59-.283,10.206,10.206,0,0,1-1.542-1.032,16.192,16.192,0,0,1-4.082-5.466c-.658-1.281-1.395-2.665-2.121-4.207s-1.44-3.186-2.268-4.91a46.659,46.659,0,0,0-2.733-5.262,39.947,39.947,0,0,0-3.765-5.114c-2.824-3.322-5.862-6.2-8.493-8.947a58.45,58.45,0,0,1-6.486-7.779,28.574,28.574,0,0,1-3.164-6.044c-.272-.771-.454-1.361-.556-1.78a2.366,2.366,0,0,1-.125-.635s.283.851.884,2.268a31.6,31.6,0,0,0,3.3,5.908,61.155,61.155,0,0,0,6.52,7.632c2.654,2.721,5.67,5.59,8.561,8.947a41.381,41.381,0,0,1,3.81,5.193,47.5,47.5,0,0,1,2.733,5.33c.76,1.735,1.485,3.4,2.177,4.944s1.406,2.926,2.041,4.218a16.6,16.6,0,0,0,3.867,5.477C709,405.746,709.818,406.132,709.784,406.189Z" transform="translate(-577.544 -262.523)"/><path class="d" d="M686.69,396.331a12.319,12.319,0,0,1,.374-2.79c.329-1.7.862-4.037,1.576-6.588s1.485-4.819,2.1-6.441a12.386,12.386,0,0,1,1.134-2.563,14.553,14.553,0,0,1-.737,2.7c-.51,1.656-1.213,3.935-1.928,6.464s-1.3,4.842-1.735,6.52a15.158,15.158,0,0,1-.782,2.7Z" transform="translate(-575.826 -259.412)"/><path class="d" d="M707.2,377.108a17.152,17.152,0,0,1-2.914-.669c-1.78-.465-4.241-1.134-6.974-1.724s-5.239-1.134-7.042-1.429a18.441,18.441,0,0,1-2.926-.646,13.723,13.723,0,0,1,2.982.238c1.837.238,4.354.658,7.11,1.281s5.2,1.327,6.962,1.894A14.74,14.74,0,0,1,707.2,377.108Z" transform="translate(-575.739 -260.124)"/><path class="d" d="M673.16,384.22A16.127,16.127,0,0,1,673.6,381c.363-1.973.941-4.695,1.712-7.654s1.6-5.67,2.268-7.518a16.079,16.079,0,0,1,1.191-3.028,19.9,19.9,0,0,1-.794,3.152c-.556,1.928-1.3,4.536-2.075,7.541s-1.417,5.67-1.882,7.586a20.8,20.8,0,0,1-.862,3.141Z" transform="translate(-577.638 -261.442)"/><path class="d" d="M699.206,361.562a115.158,115.158,0,0,1-11.532-.941c-6.35-.669-11.487-1.338-11.464-1.5s5.171.261,11.521.93a114.762,114.762,0,0,1,11.476,1.508Z" transform="translate(-577.23 -261.939)"/><rect class="e" width="80.771" height="11.101" transform="translate(37.282 151.161)"/><path class="e" d="M702.735,417.969H621.68V406.63h81.055Zm-80.783-.283h80.51V406.868h-80.51Z" transform="translate(-584.534 -255.571)"/><path class="e" d="M628.4,413.25l11.634,57.355h43.022l11.237-53.659Z" transform="translate(-583.634 -254.684)"/><path class="e" d="M628.4,459.05l6.2,8.527h52.3l7.393-8.527Z" transform="translate(-583.634 -248.549)"/><path class="d" d="M702.724,416.5c0,.159-18.143.283-40.516.283s-40.527-.125-40.527-.283,18.143-.295,40.527-.295S702.724,416.346,702.724,416.5Z" transform="translate(-584.534 -254.287)"/><path class="b" d="M688.451,437.095c0,.159-12.224.283-27.306.283s-27.305-.125-27.305-.283,12.224-.295,27.305-.295S688.451,436.936,688.451,437.095Z" transform="translate(-582.905 -251.529)"/><path class="b" d="M687.937,440.033c0,.159-12.009.283-26.829.283s-26.818-.125-26.818-.283,12.009-.283,26.818-.283S687.937,439.875,687.937,440.033Z" transform="translate(-582.845 -251.134)"/><path class="b" d="M689.112,434.663c0,.159-12.643.283-28.235.283s-28.247-.125-28.247-.283,12.644-.283,28.247-.283S689.112,434.5,689.112,434.663Z" transform="translate(-583.067 -251.854)"/></g><g transform="translate(592.019 184.112)"><rect class="b" width="208.284" height="96.284" transform="translate(0.272 0.238)"/><path class="d" d="M733.007,262.113v-6.724c0-4.4,0-10.863-.057-19.186,0-16.635-.068-40.686-.113-70.384l.215.215-208.273.079h0l.295-.295v96.3l-.283-.283,149.545.136,43.2.068h.125l-43.09.068-149.863.34h-.272V165.58h.318l208.273.079h.215v.215c0,29.755-.091,53.851-.125,70.509v24.108A8.121,8.121,0,0,1,733.007,262.113Z" transform="translate(-524.44 -165.58)"/><path class="d" d="M537.732,224.45v3.039h-.318v-2.767H536.7v-.272Z" transform="translate(-522.798 -157.694)"/><path class="d" d="M538.25,225.973c0-.975.51-1.553,1.213-1.553s1.213.578,1.213,1.553-.51,1.542-1.213,1.542S538.25,226.937,538.25,225.973Zm2.109,0c0-.816-.363-1.259-.9-1.259s-.9.442-.9,1.259.363,1.259.9,1.259S540.359,226.779,540.359,225.973Z" transform="translate(-522.59 -157.698)"/><path class="d" d="M538.953,210.54v.283h-2.132V210.6l1.27-1.236c.34-.34.408-.544.408-.748a.684.684,0,0,0-.714-.567,1.021,1.021,0,0,0-.828.34l-.227-.193a1.361,1.361,0,0,1,1.077-.442c.624,0,1.009.318,1.009.828a1.27,1.27,0,0,1-.5.952l-1.032,1.009Z" transform="translate(-522.794 -159.932)"/><path class="d" d="M539,209.3c0-.975.51-1.554,1.213-1.554s1.213.578,1.213,1.554-.51,1.542-1.213,1.542S539,210.3,539,209.3Zm2.109,0c0-.816-.374-1.259-.9-1.259s-.9.442-.9,1.259.363,1.259.9,1.259.93-.454.93-1.259Z" transform="translate(-522.49 -159.931)"/><path class="d" d="M538.908,193.256c0,.51-.374.9-1.134.9a1.587,1.587,0,0,1-1.134-.386l.147-.249a1.361,1.361,0,0,0,.941.352c.51,0,.782-.238.782-.612s-.249-.6-.816-.6h-.215v-.238l.839-1.055h-1.553v-.272h1.95v.215l-.85,1.134C538.579,192.451,538.908,192.791,538.908,193.256Z" transform="translate(-522.806 -162.163)"/><path class="d" d="M539,192.633c0-.975.51-1.554,1.213-1.554s1.213.578,1.213,1.554-.51,1.542-1.213,1.542S539,193.6,539,192.633Zm2.109,0c0-.816-.374-1.259-.9-1.259s-.9.442-.9,1.259.363,1.259.9,1.259.93-.454.93-1.259Z" transform="translate(-522.49 -162.164)"/><path class="d" d="M549.44,234.762c0-.964.51-1.542,1.213-1.542s1.213.578,1.213,1.542-.51,1.553-1.213,1.553S549.44,235.737,549.44,234.762Zm2.109,0c0-.805-.363-1.259-.9-1.259s-.9.454-.9,1.259.363,1.259.9,1.259S551.549,235.579,551.549,234.762Z" transform="translate(-521.091 -156.52)"/><path class="d" d="M569.413,233.24v3.039h-.329v-2.755h-.714v-.283Z" transform="translate(-518.556 -156.517)"/><path class="d" d="M590.463,236.01v.272h-2.132v-.215l1.27-1.236c.34-.34.408-.544.408-.76a.675.675,0,0,0-.714-.567,1.021,1.021,0,0,0-.828.34l-.227-.193a1.383,1.383,0,0,1,1.134-.431c.612,0,1.009.306,1.009.816a1.247,1.247,0,0,1-.5.952l-1.032,1.021Z" transform="translate(-515.894 -156.52)"/><path class="d" d="M610.268,235.406c0,.51-.363.907-1.134.907a1.6,1.6,0,0,1-1.134-.4l.159-.249a1.316,1.316,0,0,0,.941.352c.5,0,.782-.227.782-.612s-.261-.6-.828-.6h-.216v-.227l.85-1.055h-1.554v-.283h1.95v.227l-.862,1.077C609.916,234.578,610.268,234.918,610.268,235.406Z" transform="translate(-513.247 -156.517)"/><path class="d" d="M630.619,235.488h-.612v.794h-.318v-.794H628v-.249l1.61-2.018h.352l-1.576,2.018H629.7v-.7h.306v.7h.612Z" transform="translate(-510.568 -156.52)"/><path class="d" d="M649.938,235.383c0,.522-.352.93-1.134.93a1.588,1.588,0,0,1-1.134-.4l.148-.249a1.338,1.338,0,0,0,.941.352c.51,0,.794-.249.794-.624s-.249-.624-1.021-.624h-.646l.159-1.531H649.7v.284h-1.383l-.1.964h.386C649.6,234.487,649.938,234.85,649.938,235.383Z" transform="translate(-507.933 -156.517)"/><path class="d" d="M669.971,235.375a.964.964,0,0,1-1.043.941c-.805,0-1.247-.567-1.247-1.531a1.452,1.452,0,0,1,2.109-1.406l-.125.261a.976.976,0,0,0-.59-.147c-.658,0-1.077.42-1.077,1.247v.249a.975.975,0,0,1,.93-.522.918.918,0,0,1,1.043.907Zm-.306,0c0-.4-.295-.658-.771-.658a.7.7,0,0,0-.783.669c0,.329.284.646.805.646a.669.669,0,0,0,.748-.646Z" transform="translate(-505.253 -156.52)"/><path class="d" d="M689.661,233.24v.227l-1.27,2.812h-.318l1.259-2.755h-1.565v.567h-.318v-.85Z" transform="translate(-502.605 -156.517)"/><path class="d" d="M708.117,225.955c0,.159-35.152.295-78.583.295s-78.594-.136-78.594-.295,35.152-.295,78.594-.295S708.117,225.785,708.117,225.955Z" transform="translate(-520.89 -157.532)"/><path class="d" d="M708.117,209.195c0,.159-35.152.295-78.583.295s-78.594-.136-78.594-.295,35.152-.295,78.594-.295S708.117,209.013,708.117,209.195Z" transform="translate(-520.89 -159.777)"/><path class="d" d="M708.117,192.435c0,.17-35.152.295-78.583.295s-78.594-.125-78.594-.295,35.152-.295,78.594-.295S708.117,192.276,708.117,192.435Z" transform="translate(-520.89 -162.022)"/><path class="f" d="M551.178,225.789a1.009,1.009,0,1,1-1.009-1.009A1.009,1.009,0,0,1,551.178,225.789Z" transform="translate(-521.129 -157.65)"/><path class="f" d="M571.108,225.789a1.009,1.009,0,1,1-1.009-1.009A1.009,1.009,0,0,1,571.108,225.789Z" transform="translate(-518.459 -157.65)"/><path class="f" d="M591.028,225.789a1.009,1.009,0,1,1-1.009-1.009A1.009,1.009,0,0,1,591.028,225.789Z" transform="translate(-515.791 -157.65)"/><path class="f" d="M610.958,225.789a1.009,1.009,0,1,1-1.009-1.009A1.009,1.009,0,0,1,610.958,225.789Z" transform="translate(-513.121 -157.65)"/><path class="f" d="M630.888,225.789a1.009,1.009,0,1,1-1.009-1.009A1.009,1.009,0,0,1,630.888,225.789Z" transform="translate(-510.452 -157.65)"/><path class="f" d="M670.748,225.789a1.009,1.009,0,1,1-1.009-1.009A1.009,1.009,0,0,1,670.748,225.789Z" transform="translate(-505.112 -157.65)"/><path class="f" d="M650.818,225.789a1.009,1.009,0,1,1-1.009-1.009A1.009,1.009,0,0,1,650.818,225.789Z" transform="translate(-507.782 -157.65)"/><path class="f" d="M690.678,225.789a1.009,1.009,0,1,1-1.009-1.009A1.009,1.009,0,0,1,690.678,225.789Z" transform="translate(-502.443 -157.65)"/><path class="a" d="M560.158,226a.669.669,0,1,1-.658-.669.658.658,0,0,1,.658.669Z" transform="translate(-519.835 -157.576)"/><path class="a" d="M580.167,226a.658.658,0,0,1-.658.658.669.669,0,1,1,0-1.327.658.658,0,0,1,.658.669Z" transform="translate(-517.165 -157.577)"/><circle class="a" cx="0.658" cy="0.658" r="0.658" transform="translate(84.389 67.765)"/><circle class="a" cx="0.658" cy="0.658" r="0.658" transform="translate(107.079 67.765)"/><circle class="a" cx="0.658" cy="0.658" r="0.658" transform="translate(129.758 67.765)"/><path class="a" d="M660.148,226a.627.627,0,1,1-.669-.669.669.669,0,0,1,.669.669Z" transform="translate(-506.429 -157.576)"/><path class="a" d="M680.158,226a.669.669,0,1,1-.658-.669.658.658,0,0,1,.658.669Z" transform="translate(-503.761 -157.576)"/><path class="f" d="M572.747,218.8a2.483,2.483,0,1,1-2.472-2.472A2.483,2.483,0,0,1,572.747,218.8Z" transform="translate(-518.635 -158.782)"/><path class="f" d="M590.137,208.542a2.483,2.483,0,1,1-2.483-2.472A2.483,2.483,0,0,1,590.137,208.542Z" transform="translate(-516.305 -160.156)"/><path class="f" d="M611.717,209.452a2.472,2.472,0,1,1-.728-1.752A2.483,2.483,0,0,1,611.717,209.452Z" transform="translate(-513.415 -160.034)"/><path class="f" d="M632.774,190.8a2.472,2.472,0,1,1-2.472-2.472,2.472,2.472,0,0,1,2.472,2.472Z" transform="translate(-510.591 -162.533)"/><path class="f" d="M652.454,202.662a2.46,2.46,0,1,1-.721-1.751,2.472,2.472,0,0,1,.721,1.751Z" transform="translate(-507.955 -160.944)"/><path class="f" d="M672.384,205.822a2.472,2.472,0,1,1-2.472-2.472A2.472,2.472,0,0,1,672.384,205.822Z" transform="translate(-505.285 -160.521)"/><path class="f" d="M708.8,222.288a3.9,3.9,0,0,1-.59,0,14.278,14.278,0,0,1-1.678-.227,12.836,12.836,0,0,1-5.885-2.79,12.3,12.3,0,0,1-2.88-3.765,28.636,28.636,0,0,0-3.073-4.683,10.059,10.059,0,0,0-5.114-3.561,6.475,6.475,0,0,0-3.4.125,9.072,9.072,0,0,0-3.13,1.769c-1.928,1.61-3.345,3.9-5.216,5.976a10.33,10.33,0,0,1-3.4,2.642,6.8,6.8,0,0,1-4.456.363,5.6,5.6,0,0,1-3.4-3.118,21.419,21.419,0,0,1-1.463-4.536,26.29,26.29,0,0,0-1.349-4.536,3.64,3.64,0,0,0-1.44-1.735,4.842,4.842,0,0,0-2.268-.442,38.16,38.16,0,0,0-4.967.884,15.308,15.308,0,0,1-2.619.295,5.919,5.919,0,0,1-2.665-.522,5.523,5.523,0,0,1-2.121-1.769,13.28,13.28,0,0,1-1.293-2.4c-.714-1.678-1.191-3.4-1.837-5.114a12.126,12.126,0,0,0-1.2-2.393,4.354,4.354,0,0,0-1.95-1.656c-.2-.057-.408-.136-.612-.181l-.658-.068a2.268,2.268,0,0,0-1.2.249,5.033,5.033,0,0,0-1.814,1.894,23.492,23.492,0,0,0-2.1,5.194c-.533,1.826-.987,3.685-1.429,5.568-.726,3.118-1.372,6.225-2.166,9.264a46.808,46.808,0,0,1-1.395,4.536,11.794,11.794,0,0,1-2.347,4.082,3.254,3.254,0,0,1-2.268.987,4.536,4.536,0,0,1-2.268-.692,10.8,10.8,0,0,1-3.209-3.243,39.889,39.889,0,0,1-3.878-7.87,18.143,18.143,0,0,0-4.332-6.974,8.1,8.1,0,0,0-7.257-1.769,12.259,12.259,0,0,0-3.4,1.519,23.274,23.274,0,0,0-3.016,2.189A40.169,40.169,0,0,0,593,210.847h0a53.53,53.53,0,0,1-7.461,6.2,36.128,36.128,0,0,1-7.643,4.139,16.669,16.669,0,0,1-7.484,1.247,25.651,25.651,0,0,1-6.237-1.508,58.967,58.967,0,0,1-8.1-3.7c-.9-.488-1.565-.884-2.018-1.134a7.03,7.03,0,0,1-.669-.442l.7.374,2.052,1.134a62.724,62.724,0,0,0,8.119,3.572,25.658,25.658,0,0,0,6.169,1.44,16.544,16.544,0,0,0,7.325-1.281,35.427,35.427,0,0,0,7.529-4.139,53.687,53.687,0,0,0,7.371-6.169h0a39.685,39.685,0,0,1,5.091-5.159,24.8,24.8,0,0,1,3.073-2.268,12.678,12.678,0,0,1,3.595-1.588,8.641,8.641,0,0,1,7.745,1.86A18.847,18.847,0,0,1,616.7,210.6a39.1,39.1,0,0,0,3.821,7.756,10.329,10.329,0,0,0,3.039,3.073,3.957,3.957,0,0,0,2,.612,2.722,2.722,0,0,0,1.826-.828,11.2,11.2,0,0,0,2.2-3.867c.533-1.429.964-2.926,1.372-4.434.794-3.016,1.429-6.123,2.155-9.253.442-1.882.9-3.753,1.44-5.6a23.9,23.9,0,0,1,2.166-5.33,5.466,5.466,0,0,1,2.052-2.109,2.858,2.858,0,0,1,1.486-.306l.748.068a2.862,2.862,0,0,1,.714.215,5,5,0,0,1,2.268,1.848,11.874,11.874,0,0,1,1.259,2.517c.658,1.724,1.134,3.47,1.837,5.091s1.565,3.232,3.118,3.889a8.153,8.153,0,0,0,4.944.181,39.261,39.261,0,0,1,5.057-.873,5.137,5.137,0,0,1,2.551.522,4.15,4.15,0,0,1,1.678,1.973,26.323,26.323,0,0,1,1.361,4.683,21.815,21.815,0,0,0,1.417,4.411,5.114,5.114,0,0,0,3.084,2.88,6.362,6.362,0,0,0,4.128-.34,9.9,9.9,0,0,0,3.243-2.506c1.848-2.03,3.288-4.332,5.284-5.987a9.547,9.547,0,0,1,3.289-1.837,7.007,7.007,0,0,1,3.583-.1,10.285,10.285,0,0,1,5.273,3.719,27.456,27.456,0,0,1,3.028,4.763,11.977,11.977,0,0,0,2.79,3.708,12.961,12.961,0,0,0,5.749,2.858,13.931,13.931,0,0,0,1.667.272Z" transform="translate(-520.562 -162.268)"/><path class="d" d="M577,180.955c0,.17-8.777.295-19.595.295s-19.595-.125-19.595-.295,8.777-.295,19.595-.295S577,180.8,577,180.955Z" transform="translate(-522.649 -163.56)"/></g><g transform="translate(65.585 116.742)"><path class="f" d="M166.816,439.83l1.134,20.116s20.6,3.878,21.182,7.575l-38.622,5.386-3.13-31.274Z" transform="translate(-48.513 -61.474)"/><path class="c" d="M154.937,457.1a1.6,1.6,0,0,0-.93,1.916,1.542,1.542,0,0,0,1.894.941,1.7,1.7,0,0,0,.975-2.041,1.588,1.588,0,0,0-2.086-.748" transform="translate(-47.633 -59.171)"/><path class="c" d="M150.176,469.887l-.306-3.118,36.717-4.388s2.268.987,2.359,2.211Z" transform="translate(-48.179 -58.454)"/><path class="d" d="M166.506,457.356c0,.193-.93.363-1.8,1.066s-1.3,1.553-1.485,1.485,0-1.134,1.077-2.007S166.528,457.175,166.506,457.356Z" transform="translate(-46.4 -59.145)"/><path class="d" d="M170.128,458.5c.068.181-.726.578-1.3,1.44s-.669,1.735-.862,1.746-.408-1.055.318-2.12S170.105,458.316,170.128,458.5Z" transform="translate(-45.781 -58.982)"/><path class="d" d="M172.347,463c-.17,0-.533-.862-.136-1.95s1.236-1.588,1.327-1.44-.4.76-.7,1.656S172.529,462.969,172.347,463Z" transform="translate(-45.211 -58.828)"/><path class="d" d="M165.9,453.386c0,.181-.953,0-2.018.181s-1.882.59-2,.442.635-.907,1.894-1.134S165.975,453.239,165.9,453.386Z" transform="translate(-46.572 -59.733)"/><path class="d" d="M165.87,450.068a3.618,3.618,0,0,1-1.95.17,8.426,8.426,0,0,1-2.1-.431,7.864,7.864,0,0,1-1.134-.488,2.268,2.268,0,0,1-.635-.4.839.839,0,0,1-.181-1.009,1.043,1.043,0,0,1,.794-.51,2.549,2.549,0,0,1,.737,0,8.042,8.042,0,0,1,1.247.295,7.189,7.189,0,0,1,1.916,1.009c.975.76,1.361,1.44,1.293,1.474s-.578-.476-1.554-1.077a7.7,7.7,0,0,0-1.837-.816,7.2,7.2,0,0,0-1.134-.238c-.42-.068-.771,0-.862.147s0,.1.068.215a1.734,1.734,0,0,0,.465.295,9.171,9.171,0,0,0,1.134.488,10.714,10.714,0,0,0,1.95.544,13.375,13.375,0,0,1,1.78.329Z" transform="translate(-46.852 -60.463)"/><path class="d" d="M165.093,450.752a3.228,3.228,0,0,1-.692-1.837,6.362,6.362,0,0,1,0-2.155,8.107,8.107,0,0,1,.386-1.236,1.633,1.633,0,0,1,1.134-1.134.93.93,0,0,1,.862.465,2.484,2.484,0,0,1,.272.7,4.342,4.342,0,0,1,.125,1.3,4.456,4.456,0,0,1-.646,2.1c-.658,1.134-1.429,1.383-1.451,1.315a8,8,0,0,0,1.043-1.542,4.6,4.6,0,0,0,.442-1.882,3.82,3.82,0,0,0-.147-1.134c-.1-.408-.283-.726-.431-.669a1.389,1.389,0,0,0-.624.7,6.056,6.056,0,0,0-.386,1.134,7.427,7.427,0,0,0-.193,1.973A8.834,8.834,0,0,0,165.093,450.752Z" transform="translate(-46.245 -60.863)"/><path class="f" d="M89.017,437.55l-4.536,24.879-9.23,18.654a2.6,2.6,0,0,0,1.338,3.538h0a2.586,2.586,0,0,0,2.359-.193c4.536-2.858,21.1-13.437,21.33-15.274.261-2.132,6.475-25.933,6.475-25.933Z" transform="translate(-58.21 -61.78)"/><path class="c" d="M76.44,481.085l24.028-17.145-.215,1.055a3.867,3.867,0,0,1-1.406,2.268c-1.95,1.531-7.427,5.67-19.969,13.607a2.585,2.585,0,0,1-2.438.181Z" transform="translate(-58.015 -58.245)"/><path class="c" d="M94.7,457.562a1.565,1.565,0,0,0-.839,1.916,1.508,1.508,0,0,0,1.905.839,1.655,1.655,0,0,0,.862-2.041,1.554,1.554,0,0,0-2.064-.646" transform="translate(-55.693 -59.112)"/><path class="d" d="M83.913,470.973a7.564,7.564,0,0,0-1.78-2.37,7.79,7.79,0,0,0-2.733-1.134c0-.068.34-.193.941-.159a3.991,3.991,0,0,1,2.132.85,4.071,4.071,0,0,1,1.361,1.86C84.015,470.588,83.981,470.962,83.913,470.973Z" transform="translate(-57.619 -57.794)"/><path class="d" d="M81.742,473.435c-.136.091-.771-.884-1.973-1.508a20.122,20.122,0,0,0-2.359-.805,2.857,2.857,0,0,1,2.619.318C81.4,472.142,81.878,473.4,81.742,473.435Z" transform="translate(-57.885 -57.307)"/><path class="d" d="M87.754,467.87a24.085,24.085,0,0,0-2.892-2.54,27.389,27.389,0,0,0-3.493-1.61,7.087,7.087,0,0,1,6.384,4.15Z" transform="translate(-57.355 -58.274)"/><path class="d" d="M89.567,461.038c-.1.136-1.349-.714-3.118-1.134s-3.266-.283-3.288-.454a4.989,4.989,0,0,1,3.4-.079,5.081,5.081,0,0,1,3,1.667Z" transform="translate(-57.115 -58.892)"/><path class="d" d="M90.911,454.625a12.767,12.767,0,0,0-3.209-1.281,12.761,12.761,0,0,0-3.4.159c0-.057.306-.318.941-.533a5.579,5.579,0,0,1,2.608-.17,5.431,5.431,0,0,1,2.4,1.021C90.764,454.228,90.956,454.58,90.911,454.625Z" transform="translate(-56.962 -59.748)"/><path class="d" d="M87.984,452.612a2.053,2.053,0,0,1,.159-.941,6.418,6.418,0,0,1,1.236-2.268,3.028,3.028,0,0,1,1.519-1.134,1.055,1.055,0,0,1,1.134.465,1.724,1.724,0,0,1,.159,1.2,3.663,3.663,0,0,1-3.844,2.608,4.241,4.241,0,0,1-3.64-3.016,1.508,1.508,0,0,1,.17-1.213A1.043,1.043,0,0,1,86.011,448a3.572,3.572,0,0,1,1.463,1.191,7.4,7.4,0,0,1,1.293,2.268,2.132,2.132,0,0,1,.2.93,11.532,11.532,0,0,0-1.792-2.948,3.4,3.4,0,0,0-1.3-1,.533.533,0,0,0-.624.17,1,1,0,0,0-.068.805,3.765,3.765,0,0,0,3.266,2.608,3.175,3.175,0,0,0,3.277-2.268,1.213,1.213,0,0,0-.079-.839.567.567,0,0,0-.6-.272,2.733,2.733,0,0,0-1.3.93,9.706,9.706,0,0,0-1.758,3.039Z" transform="translate(-56.916 -60.388)"/><path class="d" d="M89.746,292.4c-.261,0-8.516,188.383-8.516,188.383h25.185l12.247-102.056L125,300.731l13.063,73.015,15.875,103.927,25.344-5.443L162.081,286.6,126.146,266.69Z" transform="translate(-57.374 -84.666)"/><path class="m" d="M108.067,178.953l23.813-1.905c.147-2.778,0-13.528,0-13.528s9.9-1.542,10.024-11.453-1.644-32.646-1.644-32.646h0a34.415,34.415,0,0,0-34.585,4.343L104.2,124.9Z" transform="translate(-54.297 -104.768)"/><path class="n" d="M130.106,158.284a23.019,23.019,0,0,1-12.916-3.674s3.05,7.133,12.938,6.237Z" transform="translate(-52.557 -99.679)"/><path class="m" d="M106.059,133.037c-.17-.079-6.8-2.018-6.588,4.751s6.974,5.16,6.974,4.967S106.059,133.037,106.059,133.037Z" transform="translate(-54.931 -102.611)"/><path class="n" d="M104.087,139.974a3.18,3.18,0,0,1-.306.181,1.134,1.134,0,0,1-.884,0,2.9,2.9,0,0,1-1.429-2.574,3.765,3.765,0,0,1,.272-1.7,1.349,1.349,0,0,1,.862-.93.6.6,0,0,1,.7.295c.1.193,0,.329.091.34s.147-.125.079-.4a.771.771,0,0,0-.272-.42.907.907,0,0,0-.658-.147,1.644,1.644,0,0,0-1.2,1.134,3.958,3.958,0,0,0-.352,1.894,3.073,3.073,0,0,0,1.814,2.869,1.259,1.259,0,0,0,1.134-.215C104.087,140.132,104.121,139.985,104.087,139.974Z" transform="translate(-54.728 -102.358)"/><path class="d" d="M134.572,133.542a1.406,1.406,0,0,1-1.361,1.429,1.361,1.361,0,0,1-1.451-1.281,1.406,1.406,0,0,1,1.361-1.429,1.349,1.349,0,0,1,1.451,1.281Z" transform="translate(-50.605 -102.674)"/><path class="d" d="M135.013,131.557c-.17.181-1.247-.612-2.767-.612s-2.642.771-2.8.578.091-.408.578-.771a3.912,3.912,0,0,1,2.268-.692,3.776,3.776,0,0,1,2.2.714C134.945,131.126,135.1,131.466,135.013,131.557Z" transform="translate(-50.922 -102.968)"/><path class="d" d="M121.524,133.542a1.429,1.429,0,0,1-1.361,1.429,1.361,1.361,0,0,1-1.463-1.281,1.429,1.429,0,0,1,1.361-1.429,1.349,1.349,0,0,1,1.463,1.281Z" transform="translate(-52.355 -102.674)"/><path class="d" d="M121.825,131.806c-.181.181-1.259-.612-2.778-.612s-2.631.771-2.8.578.1-.408.59-.76a3.889,3.889,0,0,1,4.445,0C121.746,131.387,121.9,131.715,121.825,131.806Z" transform="translate(-52.69 -102.934)"/><path class="d" d="M126.082,143.076a10.41,10.41,0,0,1,2.472-.442c.386,0,.748-.113.816-.386a1.916,1.916,0,0,0-.261-1.134l-1.134-2.96a51.211,51.211,0,0,1-2.585-7.745,49.529,49.529,0,0,1,3.2,7.518l1.134,2.971a2.268,2.268,0,0,1,.193,1.531.987.987,0,0,1-.635.567,2.462,2.462,0,0,1-.658.091,9.73,9.73,0,0,1-2.54-.011Z" transform="translate(-51.458 -102.921)"/><path class="d" d="M122.11,142.51c.238,0,.249,1.633,1.656,2.812s3.175.987,3.186,1.225-.386.318-1.134.34a4.139,4.139,0,0,1-2.653-.93,3.583,3.583,0,0,1-1.293-2.359C121.8,142.907,122.019,142.5,122.11,142.51Z" transform="translate(-51.932 -101.3)"/><path class="d" d="M122.307,126.506c-.147.408-1.667.215-3.4.431s-3.22.7-3.4.329c-.113-.181.136-.567.726-.964a5.749,5.749,0,0,1,2.563-.907,5.9,5.9,0,0,1,2.71.318C122.046,125.984,122.375,126.3,122.307,126.506Z" transform="translate(-52.786 -103.598)"/><path class="d" d="M134.473,127.672c-.272.352-1.315,0-2.585,0s-2.325.238-2.574-.125c-.1-.17.068-.522.533-.85a3.708,3.708,0,0,1,4.15.136C134.439,127.117,134.632,127.5,134.473,127.672Z" transform="translate(-50.937 -103.495)"/><path class="d" d="M145.52,114.561a3.674,3.674,0,0,0-1.349-3.266,2.608,2.608,0,0,0-3.4.249,3.028,3.028,0,0,0-2.608-3.663c-1.61-.1-2.994,1.134-4.536,1.542a7.314,7.314,0,0,1-4.615-.533c-1.474-.59-2.846-1.406-4.32-1.95a12.666,12.666,0,0,0-16.2,7.439,5.67,5.67,0,0,0-5.965,2.268,9.253,9.253,0,0,0-1.417,6.5,20.8,20.8,0,0,0,1.134,4.445v.386c.1,5.443.726,11.838,3.05,11.872,4.048.068,3.084-7.563,3.084-7.563,4.967-1.916,3.118-9.366,4.354-10.5s3.844-3.753,14.254,1.565a20.15,20.15,0,0,0,12.349,1.338h.408a9.072,9.072,0,0,0,2.665-1.134,5.261,5.261,0,0,0,2.2-2.438,2.9,2.9,0,0,0-.567-3.107A6.271,6.271,0,0,0,145.52,114.561Z" transform="translate(-54.726 -106.168)"/><path class="m" d="M190,240.83a2.535,2.535,0,0,1,.249.272c.431.567,1.134,2.018.4,4.536a84.2,84.2,0,0,1-3.266,8.221s.794,3.4,0,4.184-13.709,0-13.709,0-2.268-1.236-.522-2.268h9.072" transform="translate(-45.15 -88.13)"/><path class="f" d="M88.924,175.74s-11.169,3.538-16.374,25.593c-3.833,16.193-14.662,48.408-11.918,53.545,3.4,6.373,42.9,16.544,42.9,16.544l3.4-15.082-19.821-13.4L97.7,207.128S98.9,177.4,88.924,175.74Z" transform="translate(-60.192 -96.849)"/><path class="f" d="M88.877,218.664c0,1.69,5.035,35.3,5.035,35.3l-10,54.634,38.736,2.041,4.309-23.564,5.341,23.564,34.858-8.471L158.218,264.9l3.4-47.921-3.742-39.813-14.333-4.876-7.371-8.652-11.963,7.461-14.741-8.845-4.672,6.373-19.016,8.924C83.853,181.017,88.877,218.664,88.877,218.664Z" transform="translate(-57.015 -98.656)"/><path class="h" d="M106.478,162.25l-.488,10.591L126.4,227.033l8.232-53.239-2.676-10.206h0l-10.682,7.529Z" transform="translate(-54.057 -98.656)"/><path class="f" d="M149.12,175.41s9.763,7.938,13.074,17.213,8.765,21.636,8.765,21.636H152.817Z" transform="translate(-48.28 -96.893)"/><path class="d" d="M127.034,228.334a2.678,2.678,0,0,1-.488-.578l-1.27-1.746c-1.134-1.6-2.767-3.8-4.74-6.5L105.1,197.966l-2.551-3.583-.113-.17.113-.17c1.395-2.018,2.756-3.969,4.048-5.851l.057.386-8.981-6.7-.136-.1v-.17c1.6-4.162,2.914-7.586,3.867-10.047l1.134-2.744a5.588,5.588,0,0,1,.431-.953,5.669,5.669,0,0,1-.295,1c-.249.7-.578,1.633-.975,2.8-.907,2.472-2.155,5.919-3.674,10.115l-.079-.272,9.072,6.634.215.159-.147.227-4.026,5.851V194.1l2.551,3.583L120.9,219.319l4.536,6.6,1.225,1.814a4.352,4.352,0,0,1,.374.6Z" transform="translate(-55.189 -97.905)"/><path class="d" d="M122.009,277.825a2.653,2.653,0,0,1,0-.59v-1.69c0-1.554.1-3.651.17-6.2.181-5.307.431-12.473.692-20.411s.465-15.138.624-20.411c.068-2.551.125-4.649.17-6.2V220.64a2.052,2.052,0,0,1,.068-.59,2.438,2.438,0,0,1,0,.59c0,.454,0,1.009,0,1.69v6.2c0,5.228-.181,12.473-.454,20.411s-.59,15.206-.862,20.411c-.147,2.551-.272,4.638-.363,6.191,0,.669-.091,1.225-.125,1.678a1.938,1.938,0,0,1,.079.6Z" transform="translate(-51.922 -90.914)"/><path class="d" d="M124.3,226.378a2.267,2.267,0,0,1,.193-.624c.181-.454.4-1.021.669-1.724.646-1.565,1.519-3.708,2.585-6.316l8.7-20.751,2.086-4.9v.306l-4.74-5.67-.159-.193.17-.17,6.872-7.11v.215c-.919-2.642-1.656-4.8-2.2-6.384-.238-.7-.42-1.281-.567-1.746a3.628,3.628,0,0,1-.17-.624,2.541,2.541,0,0,1,.272.59l.68,1.7c.59,1.565,1.395,3.708,2.37,6.327v.113l-.091.1-6.8,7.189v-.363l4.763,5.67.125.136-.068.159-2.086,4.91c-3.4,8.04-6.566,15.308-8.856,20.672-1.134,2.585-2.075,4.695-2.756,6.248l-.771,1.678A5.435,5.435,0,0,1,124.3,226.378Z" transform="translate(-51.604 -97.526)"/><g class="i" transform="translate(42.589 83.79)"><path d="M97.75,180.06l6,6.713-4.15,7.439,25.639,30.435L102.728,192.59l4.026-5.863Z" transform="translate(-97.75 -180.06)"/></g><g class="i" transform="translate(73.285 94.653)"><path d="M124.82,222.4l14.288-28.009-.374-4.751Z" transform="translate(-124.82 -189.64)"/></g><path class="d" d="M64.47,254.311c0-.057.93.488,2.721,1.2s4.411,1.746,7.768,2.9c6.69,2.268,16.2,5.364,27.328,8.709l-.352.193c1.327-4.944,2.767-10.308,4.252-15.875l.136.329-.646-.408L86.4,239.127l-.17-.1v-.193c2.812-9.684,5.2-17.905,6.917-23.756.85-2.869,1.531-5.148,2.018-6.8.227-.748.42-1.338.556-1.792a3.312,3.312,0,0,1,.215-.6,2.268,2.268,0,0,1-.136.624c-.113.454-.272,1.055-.476,1.814-.442,1.633-1.134,3.923-1.871,6.8-1.644,5.863-3.969,14.106-6.713,23.813l-.113-.306,19.277,12.19.646.408.181.113v.2c-1.508,5.568-2.96,10.92-4.286,15.875l-.079.283-.283-.091c-11.113-3.4-20.615-6.5-27.283-8.913-3.334-1.2-5.953-2.268-7.722-3.05A17.828,17.828,0,0,1,64.47,254.311Z" transform="translate(-59.619 -92.812)"/><path class="d" d="M85.2,180.61a3.028,3.028,0,0,1,.782.51,15.274,15.274,0,0,1,1.894,1.656,23.053,23.053,0,0,1,6.588,14.991,18.394,18.394,0,0,1-.057,2.517,2.687,2.687,0,0,1-.17.919c-.1,0,0-1.327-.193-3.4a25.5,25.5,0,0,0-6.464-14.741C86.164,181.517,85.132,180.7,85.2,180.61Z" transform="translate(-56.842 -96.197)"/><path class="d" d="M151.416,207.983c-.159,0-.714-6.157-1.225-13.789s-.805-13.823-.646-13.834.714,6.169,1.236,13.8S151.586,207.972,151.416,207.983Z" transform="translate(-48.229 -96.23)"/><path class="d" d="M134.515,172.953a3.948,3.948,0,0,1-.612.68c-.408.42-1.021,1.032-1.826,1.8a51.411,51.411,0,0,1-7.11,5.794l-.374.249v-.454a18.824,18.824,0,0,0-.919-6.033,15.717,15.717,0,0,0-1.463-3.016q-.465-.726-.987-1.429l-.125-.181-.068-.091h0l.363.079h0a1,1,0,0,0-.261.272,5.036,5.036,0,0,0-.442.714,20.989,20.989,0,0,0-1.417,5.171c-.318,1.724-.59,3.4-.816,4.967l-.068.465-.363-.295-8.652-6.894-2.427-2a5.466,5.466,0,0,1-.839-.76,5.057,5.057,0,0,1,.941.624l2.529,1.882,8.777,6.724-.431.17c.215-1.588.465-3.254.782-4.989a20.694,20.694,0,0,1,1.463-5.33,4.376,4.376,0,0,1,.5-.816,1.905,1.905,0,0,1,.363-.386h.068l.374.079h0l.068.091.136.181c.363.488.7.987,1.009,1.485a16.181,16.181,0,0,1,1.508,3.13,19.277,19.277,0,0,1,.884,6.2l-.4-.2a60.719,60.719,0,0,0,7.2-5.579l1.916-1.7A4.309,4.309,0,0,1,134.515,172.953Z" transform="translate(-54.041 -97.634)"/><path class="d" d="M124.071,225.447c-.17,0-1.338-12.3-2.619-27.521s-2.189-27.555-2.03-27.566,1.338,12.3,2.619,27.521S124.23,225.436,124.071,225.447Z" transform="translate(-52.26 -97.57)"/><g class="i" transform="translate(32.667 115.756)"><path d="M92.311,208.25s-1,26.682-.987,26.739L89,219.227Z" transform="translate(-89 -208.25)"/></g><path class="e" d="M109.328,248.6l10.206,11.339h71.246L214.422,214.5a3.3,3.3,0,0,0-2.926-4.831H141.759a3.3,3.3,0,0,0-3.05,2.041l-14.39,34.619-13.789-.363a1.576,1.576,0,0,0-1.2,2.631Z" transform="translate(-53.664 -92.304)"/><path class="d" d="M109.33,246.257a5,5,0,0,1,.771.7l2.075,2.075,7.325,7.541-.4.068c2.075-4.536,4.536-10.081,7.155-16.023,3.549-8.1,6.645-15.49,8.868-20.842,1.134-2.619,1.984-4.763,2.642-6.327l.737-1.724a2.268,2.268,0,0,1,.295-.578,2.745,2.745,0,0,1-.181.624c-.17.465-.386,1.043-.635,1.758-.567,1.52-1.406,3.708-2.472,6.407-2.12,5.4-5.159,12.814-8.709,20.921-2.608,5.953-5.125,11.442-7.257,15.989l-.147.329-.249-.261-7.189-7.688c-.805-.9-1.463-1.622-1.973-2.166a5.363,5.363,0,0,1-.658-.805Z" transform="translate(-53.61 -92.106)"/><path class="h" d="M163.668,235.717A3.98,3.98,0,1,1,166,230.206a4.264,4.264,0,0,1-2.336,5.511Z" transform="translate(-47.032 -89.855)"/><path class="m" d="M101.9,247.29l6.452-.6s11.6-3.867,13.539-3.527a2.88,2.88,0,0,1-1.485,3.186c-2.041,1.247-5.114,2.733-5.114,2.733l4.627,5.284A3.164,3.164,0,0,0,122.3,255.5h15.172a3.719,3.719,0,0,1-2.154,2.381c-1.6.454-12.655,3.753-12.655,3.753L98.66,259.106Z" transform="translate(-55.039 -87.821)"/></g></g></svg>