<svg xmlns="http://www.w3.org/2000/svg" width="73" height="23.59" viewBox="0 0 73 23.59"><defs><style>.a{fill:#085dad;}</style></defs><path class="a" d="M63.775,23.139h-5.5c-.2-.967-.417-1.913-.588-2.865-.071-.4-.2-.549-.639-.544-2.2.029-4.408.022-6.611,0a.5.5,0,0,0-.567.412c-.3.908-.636,1.807-.976,2.7-.046.122-.2.288-.3.288-1.986.017-3.972.012-6.016.012.372-.9.725-1.752,1.083-2.606L51.347,2.213A2.706,2.706,0,0,1,54.164.334H58.99c.158.746.32,1.479.473,2.214q1.891,9.059,3.781,18.116c.162.775.353,1.542.529,2.312v.163Zm-7.193-8.1-1.741-8.35-.071-.013-3.032,8.362h4.844Z" transform="translate(9.225 0.072)"/><path class="a" d="M42.777,0c.725.134,1.456.246,2.174.411.656.151,1.3.361,1.994.56L45.916,5.783c-.919-.27-1.8-.58-2.7-.779a7.641,7.641,0,0,0-3.735-.033,3.784,3.784,0,0,0-1.405.747,1.282,1.282,0,0,0-.04,2.027A8.694,8.694,0,0,0,39.54,8.829c1.2.724,2.465,1.352,3.633,2.124a5.38,5.38,0,0,1,2.591,3.852,6.867,6.867,0,0,1-3.246,7.013,11.132,11.132,0,0,1-5.229,1.689,18.688,18.688,0,0,1-7.636-.865c-.167-.055-.329-.124-.492-.19a1.327,1.327,0,0,1-.164-.1l1.063-4.982c.423.185.821.37,1.229.534a10.631,10.631,0,0,0,6.023.751,4.291,4.291,0,0,0,1.551-.647,1.641,1.641,0,0,0,.184-2.7A14.562,14.562,0,0,0,37.06,14C36,13.35,34.876,12.8,33.873,12.078a5.345,5.345,0,0,1-2.392-3.8,6.5,6.5,0,0,1,2.533-6,10.636,10.636,0,0,1,5.662-2.2A3.014,3.014,0,0,0,40.017,0Z" transform="translate(6.283)"/><path class="a" d="M27.689.354c-.308.742-.6,1.451-.9,2.157q-4.243,10.121-8.478,20.245a.558.558,0,0,1-.624.4q-2.678-.027-5.356,0c-.377,0-.5-.128-.589-.467C10.232,16.8,8.694,10.907,7.2,5.007A3.107,3.107,0,0,0,5.344,2.73,29.63,29.63,0,0,0,.228,1.075C.15,1.06.073,1.04,0,1.021.009.336.009.335.659.335h9.372a2.72,2.72,0,0,1,2.832,2.329q1.19,6.229,2.352,12.461c.034.182.073.363.125.618.082-.152.137-.237.175-.331Q18.427,8.048,21.327.684a.474.474,0,0,1,.526-.358c1.813.015,3.624.007,5.436.009.118,0,.235.01.4.018Z" transform="translate(0 0.071)"/><path class="a" d="M20.814,23.148c1.63-7.627,3.252-15.2,4.876-22.793h5.92l-.73,3.425q-2.013,9.406-4.015,18.815c-.091.436-.246.574-.7.566-1.622-.032-3.245-.012-4.867-.012h-.487Z" transform="translate(4.51 0.077)"/></svg>